<mxfile host="Electron" agent="Mozilla/5.0 (Macintosh; Intel Mac OS X 10_15_7) AppleWebKit/537.36 (KHTML, like Gecko) draw.io/28.2.5 Chrome/138.0.7204.251 Electron/37.6.1 Safari/537.36" version="28.2.5">
  <diagram name="PÃ¡gina-1" id="s4fSEPLZf8TFoWQc6P3j">
    <mxGraphModel dx="1899" dy="818" grid="1" gridSize="10" guides="1" tooltips="1" connect="1" arrows="1" fold="1" page="1" pageScale="1" pageWidth="827" pageHeight="1169" math="0" shadow="0">
      <root>
        <mxCell id="0" />
        <mxCell id="1" parent="0" />
        <mxCell id="LlsY5RYBl1xxhd0hf_0L-2" value="usuario" style="shape=umlActor;verticalLabelPosition=bottom;verticalAlign=top;html=1;outlineConnect=0;" vertex="1" parent="1">
          <mxGeometry x="-40" y="275" width="20" height="50" as="geometry" />
        </mxCell>
        <mxCell id="LlsY5RYBl1xxhd0hf_0L-104" value="" style="edgeStyle=orthogonalEdgeStyle;rounded=0;orthogonalLoop=1;jettySize=auto;html=1;" edge="1" parent="1" source="LlsY5RYBl1xxhd0hf_0L-8" target="LlsY5RYBl1xxhd0hf_0L-103">
          <mxGeometry relative="1" as="geometry" />
        </mxCell>
        <mxCell id="LlsY5RYBl1xxhd0hf_0L-8" value="" style="shape=image;verticalLabelPosition=bottom;labelBackgroundColor=none;verticalAlign=top;aspect=fixed;imageAspect=0;image=data:image/png,iVBORw0KGgoAAAANSUhEUgAAAgAAAAIACAYAAAD0eNT6AAAAAXNSR0IArs4c6QAAAERlWElmTU0AKgAAAAgAAYdpAAQAAAABAAAAGgAAAAAAA6ABAAMAAAABAAEAAKACAAQAAAABAAACAKADAAQAAAABAAACAAAAAAAL+LWFAABAAElEQVR4Ae2dB7gkRdm24WOXXeIuOSksUaIkQUUQWRFRCSJi/CRJEBOfiBFUUEFRzKISxF1EflQQjCiiZFCQnBREMpLTkuP/PLtn2DlnJ0+Ht7rvuq73zEx3ddXz3tVn+p2q6uq55yJBAAKpEBgvoUvKlh55naRX2+QRa/7s9xNl/yPze6cFZPPKmrd5eyM9qzczGh9GXh/T69Oyh2TPyLz/CdmTskdkD8oeGLH7mt572/2yx2UkCEAgIIG5A2pCEgTqSMAX8SlNtoLeLyFbRraUzBd+f04tOUi4XXaH7M6R982vN2ubAwcSBCBQMAECgIKBU12tCSwn71eXvUy2mmxKkzV+pWtT7dLD8vjfshtbvDpwIEEAAjkQIADIASpF1pqAu9dXlq0j88W+Yb7oLywj9UfgUWW/RnaV7OoRu1Kv98pIEIDAEAQIAIaAx6G1J+Dx9LVl68vWG7F19bqQjJQvgbtVvIMC2yWyi2TuRXhBRoIABHogQADQAySyQEAE/L/iX/Ovkm0i20i2pswT80gxCHhC4sUj5oDA7/8rI0EAAi0IEAC0gMImCIiAu+s3lr16xHzhX0RGSouAJyCeLztHdrbsWhm9BIJAggABAOcABGYRWFAvm8mmyraQuUt/HhmpWgQ8d8DBQCMg8BDC89VyEW8g0BsBAoDeOJGregQmyiX/um9c8F+p9+Oq5yYedSHg9QrcM/An2R9lt8hIEKgFAQKAWjQzTo4QWEWvbx6xzfXqIIAEgWYC/9SH02QOCNxL4EWPSBCoJAECgEo2K06NEJig19fKGhd933tPgkCvBHzxd++AA4JTZbfKSBCoDAECgMo0JY6MEPBEve1kO8i2lC0gI0FgWAKeOOjbDX8lO0XmngISBJImQACQdPMhfoTAYnp9i2wn2VYy359PgkCeBP6jwn8n+6XMdxlwZ4EgkNIiQACQVnuhdjaBZfX2bbIdZZ69z4x9QSCVQuAW1Xqi7HiZVyskQSAJAgQASTQTIkcIzKfXbWQ7y7aWMWtfEEihCHidAfcKTJfdFEoZYiAwhgABwBggfAxHwL/st5D5ou9f/IzpCwIpPIHnpfBCmYOBn8l44qEgkGIRIACI1R6omU1gQ73dTfZO2eKzN/MOAskReFKKPXHwaNlZMuYLCAKpfAIEAOW3AQpmE/Dyu++S7S3bYPZm3kGgMgRukCc/lk2T+YFGJAiURoAAoDT0VNxEwL/295K9R+YleUkQqDqB5+TgmbKjZL610J9JECiUAAFAobiprImAf+3vKvOFfy0ZCQJ1JeBbCo+UHSN7oK4Q8Lt4AgQAxTOve41ejncPmbv5J9cdBv5DoInAU3r/C9nXZNxO2ASGtxCAQLoEHGhuKfOX27MyT4LCYMA50P4cOE//I9vK+JEmCKR8CHBy5cOVUmcR8Hj+brIPy1abtYm/EIBAHwS85PB3ZMfJHu/jOLJCoCsBAoCuiMgwAAHftueLvs3L9JIgAIHhCNynw4+QORh4cLiiOBoCswgQAHAmZElgBRW2n+z9MhbsyZIsZUFgFoFH9XKs7DDZnbM28RcCEIBAeQQ8sc+zmJ+WMa4LA86B/M8BLy7k/7mXykgQgAAECiewnmr0Cmde9pQvfRhwDhR/DvjOAS8s5CCcBAEIQCB3Ar5v35OSvHgJX/ow4Bwo/xzw/6LvsllJRoIABCCQOYE1VaIv/NzKV/4XPhdd2qDVOeAeAQ8NLCMjQaAjASYBdsTDzhECa+j187J3yP5nZBsvEIBAXAKPSdp3ZV+XcddA3HYqVRkBQKn4w1e+hBQeKPugbFx4tQiEAATGEpihDT+QHSp7ZOxOPtebgJ+1ToLAWAK+hc+3850ke62MX/2CQIJAggQmSPOmsj1lvkvnHzIPHZAgwDKTnAOjCIzXp91kB8uWHrWHDxCAQBUIXCcn9pf9oQrO4MNwBBgCGI5flY7eUc58RbZqlZzCFwhAoCWB32rrJ2T/armXjbUgQABQi2bu6OTq2vtt2Rs75mInBCBQNQLPyKGfyDzP596qOYc/3QkwB6A7o6rmWFSOfU3mZUV5UE9VWxm/INCegL//N5R56e4nZJfImB8gCHVJ9ADUpaVn++kJff8r8+1BS87ezDsIQKDmBK6Q//vILqw5h9q4z+zu2jT1TEc3019H+dNlXPxnIuEPBCAwQmBdvZ4n80JC7iEkVZwAQwAVb+AR9ybr1U8P8/3ArBA2AoUXCEBgDgLuFfawgG8bfEp2sYxhAUGoYmIIoIqtOtqnnfTx+zJ+8Y/mwicIQKA7AfcIeCGwq7pnJUdqBOgBSK3Fetfrp4P9XPYpmRf2IUEAAhDol8DyOmAP2UTZ+TI/dIhUEQL0AFSkIZvc8GI+jtgPkXHhbwLDWwhAYCgC/9bRDgbOHqoUDg5DgB6AME2RiRCP3f1Btots3kxKpBAIQAACswh4YuD7ZJNkHhrwOgKkhAnQA5Bw4zVJ969+r93/RRkX/iYwvIUABHIhcJNKdW/AX3MpnUILIUAAUAjmXCtZR6VPk22Qay0UDgEIQGA0Ad8dcLTMzxaYMXoXn1IgwDoAKbRSa43jtNkT/Px0Ly7+rRmxFQIQyI+Af0DuJfMdAl5jhJQYAeYAJNZgI3LX1qvH+j0eRxuOQOEFAhAohYDXGdlZ5h8l58qel5ESIMAQQAKNNEai/9F+KJt/zHY+QgACECibgBcO8lLj15cthPq7E2AIoDujKDmWkJDfyKbLuPhHaRV0QAACzQQ20ofLZfs2b+R9TAL0AMRsl7GqXq8Nx8mWHbuDzxCAAASCEvijdO0muyuovtrLogcg9ing2/sOkp0u4+IvCCQIQCAZAltLqZ8w6B8wpIAEmEAWsFFGJK2s1z/J3i2jp2YECi8QgEBSBLwa6XtkT8suSEp5DcRyYYnZyNtK1nTZIjHloQoCEIBA3wR+ryM8ifmBvo/kgFwIMASQC9aBC/VtNAfJTpVx8RcEEgQgUBkCb5EnniC4SWU8StwRhgDiNOBykuII2ff20zMTp11QAgEIZEfAzxHws0oYEsiO6cAlEQAMjC7TA7dUaafL1si0VAqDAAQgEI+Ae579nbemzAua8VAhQSgjMQRQBvXZdfqX/mdkvl1mydmbeQcBCECg8gR2koeeGLhi5T0N6iBdzeU1zERVfZTMXf4kCEAAAnUl4EmB75SdUVcAZfnNEEA55D3e71v83lRO9dQKAQhAIAyB+aTkvbKnZOeHUVUDIQQAxTeyZ8D+Rfay4qumRghAAAIhCTTmBawqdafJng2psmKimANQbIPuqerOlC1dbLXUBgEIQCAJAu4J+KuM78gCmos5AAVAVhXuafmW7CPFVEctEIAABJImcLPUe92Aa5P2Irh4AoD8G8hLYZ4g2y7/qqgBAhCAQGUIzJAn75D5LilSDgSYA5AD1KYi3Y3l+/u3aNrGWwhAAAIQ6E5ggrK8S3a37JLu2cnRLwECgH6J9Z5/LWX1eL8XuyBBAAIQgED/BDxPzc9G8Z0CnjxNypAAAUCGMJuKmqr3vs2PiSxNUHgLAQhAYEACm+q4FWVeOfC5AcvgsDEEmAMwBkgGH/20q6Nl82ZQFkVAAAIQgMBsAl4saAfZo7M38W5QAtwGOCi51sd5lv9PZFz8W/NhKwQgAIFhCPgZAh5aXXyYQjh2FgECgOzOhE+pqO/KYJodU0qCAAQgMJbAK7ThHNlLxu7gc38EGALoj1er3Gboe/z3bbWTbRCAAAQgkAuBm1XqVrIbcim9BoUSAAzXyO7qP07mB1mQIAABCECgWAK+RXBr2eXFVluN2ggABm9HL/BzkswnHwkCEIAABMoh8KCq3UZ2QTnVp1srAcBgbbewDvPtKK8Z7HCOggAEIACBDAn4rgAvHey5AaQeCRAA9AiqKdskvffSlK9q2sZbCEAAAhAol8Djqt6LBvlhQqQeCDBjvQdITVkm670X+OHi3wSFtxCAAAQCEJhfGn4re30ALUlIoAeg92ZaRFl98d+o90PICQEIQAACBRNwT8D2Mi8aROpAgACgA5ymXb74+6E+vv+UBAEIQAACsQk8IXl+AitBQId2IgDoAGdk15J69UMo1u6elRwQgAAEIBCEgIMA9wT8OYiecDIIADo3icf8PaFk/c7Z2AsBCEAAAgEJOAjwrdrcHdCicQgAWkAZ2eRb/dx9xJh/e0bsgQAEIBCdwCMS6ImB/4gutGh93AXQmrifPf0bGRf/1nzYCgEIQCAVAv4xd5pszVQEF6WTAGBO0l7e1yv8bT7nLrZAAAIQgECCBPz0QE/kXjFB7blJJgAYjXYefTxe9ubRm/kEAQhAAAKJE1hO+j0hcNnE/chMPgHAbJRmcZxsp9mbeAcBCEAAAhUisLJ8cU/AYhXyaWBXCABmo/um3r5n9kfeQQACEIBABQmsJZ88J8APdKt1IgCY1fyf1su+tT4TcB4CEIBAfQh4gveJMg/71jbV2vmRVvev/iNk3BJZ238DHIcABGpIYDX5vJTsdzX0fabLdQ8AporCL2Xj6noC4DcEIACBGhPw8u5+dsAFdWRQ5wBgQzW4H+7je/5JEIAABCBQTwJbyu3/yK6sm/t17fZeWQ3tiM/r/JMgAAEIQKDeBJ6S+14y+Kw6YahjAOAn+10oe1mdGhpfIQABCECgI4EHtfdVsus75qrQzrrdBeCx/l/IuPhX6CTGFQhAAAIZEPCPQy8B74fA1SLVLQD4jlrV4z0kCEAAAhCAwFgC/nH4c1ktJobXaRLgR9Sonx/b2nyGAAQgAAEINBHwHLEFZV4xsNKpLgHAG9SKx8nq1uNR6ZMX5yAAAQjkRODVKvdO2aU5lR+i2DpMAlxdpD3przbjOiHOLERAAAIQSJvAM5LvH49np+1Ge/VVDwB80b9Itmp7BOyBAAQgAAEItCRwt7Z6saDbW+5NfGOVu8Qd3Bwr4+Kf+EmKfAhAAAIlEfBSwSfJ5i2p/lyrrfIcAE/42ydXehQOAQhAAAJVJ/ASObiw7I9Vc7SqAYDHbY6WVbmHo2rnIv5AAAIQiErACwTdKKvUcsFVnAOwghrpH7LFZSQIQAACEIBAFgQeVSGvlF2bRWERyqjaL+SJgvorGRf/CGcXGiAAAQhUh4DXBvD1ZaGquFS1AOBINcwGVWkc/IAABCAAgVAEvFLgD0MpGkJMleYA7CoOXxiCBYdCAAIQgAAEuhF4uTLcJrusW8bo+6syB2AVgb5UVpmumegnDvogAAEI1JjAY/J9Q9m/UmZQhSGACWoAP+GPi3/KZyLaIQABCKRDYAFJPUGW9PoAVRgC8BP+tkvnvEEpBCAAAQhUgMAy8sE/QM9I1ZfUhwC2EXg/vzl1P1I9f9ANAQhAoM4Enpfzb5QlGQSkfOH06kyXyxaTkSAAAQhAAAJlEPDzAtaV+TWplOocAOv+mYyLf1KnG2IhAAEIVI6AnxfgW9CTS6nOAdhfpPdIjjaCIQABCECgigT82PmbZFek5FyKQwBrCvAlMq/6R4IABCAAAQhEIPCwRKwj8xoBSaTUhgDGiep0GRf/JE4vREIAAhCoDYFJ8vTHsmR+WKc2BHCw4L6rNqcTjkIAAhCAQEoEVpbYW2VJrBKYTKQioF516ULZeBkJAhCAAAQgEJHAIxLloQAHAqFTKkMA84uiZ/1z8Q99OiEOAhCAQO0JLCwCx8rC/8BOZQjgUMFktb/a/18BAAIQgEASBFaSyvBDAeEjFEH0AgsXy/j1LwgkCEAAAhBIgsADUrmG7J6oaqP3AHjW/29lXvWPBAEIQAACEEiFwHwSurTslKiCo88B2E/gPPmPBAEIQAACEEiNwPskeMuooiMPAUwRtKtlfuwiCQIQgAAEIJAigX9LtO8KeDKa+MhDAL8QLC+vSIIABCAAAQikSmBRCX9BdmY0B6L2AOwiUNOiwUIPBCAAAQhAYAACT+uY9WTXDXBsbodEDAAWkbf/ki2Rm9cUDAEIQAACECiWgHsAphZbZefaIk4C/JIkc/Hv3G7shQAEIACBtAhsIbk7RpIcrQfAEyUulfn2PxIEIAABCECgSgRukzOe2/Z4BKciTQJ0MOKJfytGAIMGCEAAAhCAQMYE/MTAp2TnZFzuQMVF6gHYWR5MH8gLDoIABCAAAQikQeAJyfQKgbeULTdKD8BCAnGqzK8kCEAAAhCAQFUJeFn7pWQnl+1glEmABwvEsmXDoH4IQAACEIBAAQTerTpeW0A9HauIMASwmhR6xT8e9tOxqdgJAQhAAAIVInCRfHmVzIsElZIiDAEcLc/XKsV7KoUABCAAAQiUQ2A5VXuN7Npyqp9rrrJ7ABz9XCArW0dZ/KkXAhCAAATqS+AGue4fwM+UgaDsHoAT5fTyZThOnRCAAAQgAIGSCSym+u+U/aMMHWX+8t5JDvu+fxIEIAABCECgrgTukeOryGYUDaCsHgBP+PMtEI5+SBCAAAQgAIG6EvAj770yYOGLA5V1G+A+cnbVurY2fkMAAhCAAASaCHxS75ds+lzI2zJ6ALzYj3/9O+ohQQACEIAABOpOYIIAeEj+z0WCKKMH4KNykKf9FdnK1AUBCEAAAtEJuGe80F6AoicBLiwHb5ItGr0l0AcBCECgRwL/Ur7zZX61XS/zmO4jMk/smiibT+beTy8B66fBeQG0dWSbyxaUkSBgAl+XeTigkFR0APB5eXVwIZ5RCQQgAIH8CJyroqfL3GV76xDVeEK010PZTrarbHEZqb4EHpPrK8l8Z0DuqcgAYLK88a9/v5IgAAEIpEbAS7b+TPYN2eU5iHdPgdeIP0C2cg7lU2QaBArrBSgyAPii2H8uDf6ohAAEIDCKwH/0aW/ZGaO25vPBwwWfkn1W5h4CUr0IFNYLUNRdAB7z/38yz3QkQQACEEiJwG8l9vUyj+8XkZ5VJWfJzpO9VeaeAVJ9CMwrV93blHuwWVQPwCFyxtEsCQKtCNyrjdfJbpZ5mOgJWSN54qgfFb2MbF3Z0jISBIoicKYqeqOslLXaVe/mstNlviiQ6kPgUbm6guyBPF0uIgDwF7gnyUzK0xHKTo7AOVL8S5m/YK+VvSDrJb1UmTxpanvZtjKfXyQI5EHgIRW6luzOPArvo8wvKO9BfeQnazUIeMj8y6m74lsa/OWOwcBdmz+SrSHLIrlr1M+UuFjG+QWDrM+BQ7M4STMow7cJPsg5Xrv/8bvU5kkP/3jM39Fz1v+YlJce07/rPNhAllfaSgV7ZjbnBgyyOgdentfJOkC5x3Fu1/J/e+8BzpWeD/mfnnMOlnFnHeaxW1K9CZwg9zeTXZojBo+TbiQ7WFbWeG2O7lF0wQR8Dl1dcJ2dqsvzf6dTvewrl8B+qj6363RuBY+I3r9cdtQegMCR0vC/sqcL0OIv7YNkW8jcZUqCwKAEPP7//KAH53Dc/TmUSZHxCawmib4TJJeUZwDwNim2eFJ9CVwj1/9P5i7ZItP5qsw9DncUWSl1VYpApIu/wUbTU6nGDu7Mp/PSl2cA8Im8RFNuEgT8hfUe2ZMlqXXwsU2J9ZfkNtVCAAIVI+Chzdfk4VNeAcDmErtxHoIpMxkCv5HSK0tW60mBHkMjQQACEEiZwEfyEJ9XAJCL2DwAUGZuBH6eW8n9FfxDZT+1v0PIDQEIQCAUAQ+pL5u1ojwCgOUl0ou0kOpNwOPwUdJeEuLVBkkQgAAEUiQwXqL9PZZpyiMA2EcKx2WqksJSI/CcBN8eSLQv/gwFBGoQpEAAAn0TcAAwb99HdTgg6wDAqxbt0aE+dtWDwGNys+iZ/93IHq8MfqgLCQIQgECKBLymjocCMktZBwCe9b14ZuooKFUC0S7+DY5eVeuBxgdeIQABCCRG4MNZ6s06AMhUXJaOUhYEROC/MoYCOBUgAIFUCfh2wPWyEp9lAOCFV9bPShjlQCAnAtNV7q9zKptiIQABCORNYM+sKsgyAMj1oQVZOUw5EBCBD8pYKphTAQIQSJHAeyV6/iyEZxUATJKYHbIQRBkQKIDAnaqD51QUAJoqIACBzAn4evvWLErNKgDILCLJwinKgEAPBI5VntN6yEcWCEAAAtEI7J6FoKwCgEzEZOEQZUCgDwIeS3uoj/xkhQAEIBCBwFSJWHlYIVkEAOtIxIbDCuF4CJRA4A7V+ckS6qVKCEAAAsMQmFsH7zxMAT42iwAgsxmJwzrD8RAYgMAxOuZPAxzHIRCAAATKJOCe93mGETBsADBBlXv8nwSBVAl40SLfwTIjVQfQDQEI1JLAS+T1FsN4PmwA4Jn/iw4jgGMhEIDALdLAUECAhkACBCDQFwGvvjtwGjYAeN/ANXMgBGIROFJyTo8lCTUQgAAEOhLYUXvn65ijw85hAgD/8t+yQ9nsgkBKBBgKSKm10AoBCJjAwrI3DYpimABgJ1Wa6aMJB3WC4yCQEYGbVc5nMiqLYiAAAQgUQeDdg1YyTAAwcKWDiuU4CBRA4Aeq44wC6qEKCEAAAlkQ2EaFeHXAvtOgAcCyqskP/yFBoGoEPBSwl+zRqjmGPxCAQCUJTJRXAy0NPGgA8C5VOOixlWwBnKoUgZvkzQGV8ghnIACBKhMYqEd+0Iv4ULceVLkV8K0yBL4vT86pjDc4AgEIVJnAVDm3SL8ODhIArKpKWPq3X9LkT43A8xK8h+zx1ISjFwIQqB2B8fL4Lf16PUgA4PsOSRCoA4Eb5OSBdXAUHyEAgeQJ9D0PYJAAYPvkMeEABHon8B1lPbf37OSEAAQgUAoBrwcwfz819xsALKXCN+6nAvJCIHECjaGAJxL3A/kQgEC1Cfji39fifP0GAP713+8x1UaOd3UgcL2c/HwdHMVHCEAgaQJ9DQP0ezGn+z/pcwPxQxD4po49b4jjORQCEIBA3gS2UwXjeq2knwBgQRU6tdeCyQeBihHwUIAXCHqyYn7hDgQgUB0Ci8mVTXp1p58A4I0q1CsOkSBQVwLXyfGD6uo8fkMAAkkQ8LW6p9RPAED3f09IyVRxAofLv4sq7iPuQQAC6RLo+emAvQYAzrd1ujxQDoHMCDynknaXPZVZiRQEAQhAIDsC66mopXsprtcAYH0VtkQvBZIHAjUgcI18/GIN/MRFCEAgPQJzS3JPwwC9BgA9FZYeJxRDYGACX9ORFw98NAdCAAIQyI9AT9fsXgOAN+Snk5IhkCSBZ6V6FxlDAUk2H6IhUGkCDgDm6eZhLwHAAiqk59sKulXIfghUiIDvCjikQv7gCgQgUA0Ci8qNjbq50ksAsIUKmbdbQeyHQE0JfEV+X1JT33EbAhCIS2BqN2m9BAB0/3ejyP46E/BQwO6yp+sMAd8hAIFwBDbvpqiXAGCrboWwHwI1J3Cl/HdPAAkCEIBAFAKbSkjH3vtuAcByKmD1KN6gAwKBCRwqbQ4ESBCAAAQiEPDTATfsJKRbALBZp4PZBwEIvEjAQwA7y555cQtvIAABCJRLoOMwQLcAwF0IJAhAoDcCVyjbYb1lJRcEIACB3AkMFQDQA5B7+1BBxQh8Sf5cVTGfcAcCEEiTgH/Ej28nvVMPwGQdtHa7A9kOAQi0JOChgN1lvjuABAEIQKBMAguqci/l3zJ1CgC8+E+n/S0LZCMEIDDXP8Tg63CAAAQgEIDAq9tp6HSBp/u/HTW2Q6A7gYOV5eru2cgBAQhAIFcCr2xXeqcAgAmA7aixHQLdCfgZAe+X+fHBJAhAAAJlEeg7AJggpV3XES7LG+qFQCIELpLObySiFZkQgEA1Cawkt5Zs5Vq7HoB1ldlBAAkCEBiOwOd1+LXDFcHREIAABIYi0LIXoF0A8IqhquJgCECgQYChgAYJXiEAgbII9BUAdFw+sCwPqBcCiRL4m3R/O1HtyIYABNIn0FcAsEH6/uIBBEIR+JzUXB9KEWIgAIG6EPCcvrnHOttqCGCiMq01NiOfIQCBoQg8oaN3lXFXwFAYORgCEBiAwCQdM2Xsca0CgPWUqe3SgWML4DMEINAzgQuV83s95yYjBCAAgewIeHL/qNQqAGD8fxQiPkAgUwIHqLQbMi2RwiAAAQh0J0AA0J0ROSCQK4HHVfqusudzrYXCIQABCIwm0FMA4CEAEgQgkB+BC1T0D/IrnpIhAAEIzEGgawDgIYHV5ziMDRCAQNYEPqUC/511oZQHAQhAoA2BFbV9UvO+sXMAVtLO+Zoz8B4CEMiFgIcC9pS9kEvpFAoBCEBgNAHfBrhO86axAcCazTt5DwEI5ErgLJX+o1xroHAIQAACswmsPfvtXHMRADTT4H1VCSwQ2DEPBdwcWB/SIACB6hB4WbMrBADNNHhfVQK7yLFRXV+BHJ0hLX5sMEMBgRoFKRCoKAECgIo2LG61JzBBu46Tzds+S6l7/qrajy5VAZVDAAJ1INA2AHBvAHcA1OEUqKePvr31s4Fd/4S03RpYH9IgAIH0CUyRC17uf2ZqHgJYQVsij5WOSOYFAgMT8Cp8fihGxPSIRO0uYyggYuugCQLVIOBr/qoNV5oDgNUaG3mFQEUJjJNf02VRb3X9i7QdW1H2uAUBCMQg8OIwQHMA4EUCSBCoOoE15OAXAzv5cWm7PbA+pEEAAmkTeHGonwAg7YZE/WAE9tNhrx3s0NyPelg17CZjKCB31FQAgVoSePHHfnMAsFItUeB0HQn4vJ8mWzCo82dIl4cqSBCAAASyJuD5fjNTcwDwYlTQ2MkrBCpMwOf7VwP793/SxlBA4AZCGgQSJTCloZsAoEGC1zoS+KCc3jqo4x4K+EBQbciCAATSJfBSSZ957W8EAH5C0KLp+oNyCAxEYG4ddYxskYGOzv+g36uKn+ZfDTVAAAI1IuAF0Za2v40AYKUaOY+rEGgmsJw+fKN5Q7D3H5WeO4JpQg4EIJA2gZnzABoBwJS0fUE9BIYisJuO3naoEvI7+CEV/aH8iqdkCECghgSm2OdGAOBfQSQI1JnAUXJ+saAAfi1dJwTVhiwIQCA9AqN6AJZJTz+KIZApAY+JRX4gj4cC7srUYwqDAATqSmDmNb/RA0AAUNfTAL+bCeygD+9s3hDo/f3SsncgPUiBAATSJTBqEuDMD+n6gnIIZEbgCJUU9f/hN9L288w8pSAIQKCuBJay440egKhfeHVtHPwuj4DnAUQeCviw9N1dHh5qhgAEKkBgVA8AQwAVaFFcyIzANirJdwZETPdJ1EciCkMTBCCQDIEXAwD3AiyejGyEQqAYAt9WNcsXU1XftfxSR5zU91EcAAEIQGAWAS/+N58v/kvK/Jx0EgQgMJvAwnr7E5lXC4yY9pGoeyIKQxMEIJAEgaUcAMycDJCEXERCoFgCU1WdnxcQMXkoYN+IwtAEAQgkQWBmAMAzAJJoK0SWROBrqnfVkuruVu2JynByt0zshwAEINCCwCLuAZjcYgebIACBWQTm18t02TxBgXgo4N6g2pAFAQjEJTCJACBu46AsDoFXS8p+ceSMUuKL/8dGbeEDBCAAge4EJjsA8GxAEgQg0JnAl7R7nc5ZStv7M9V8Smm1UzEEIJAigZkBAEMAKTYdmosmMEEVeihgfNEV91ifnxj4QI95yQYBCEBg5hAAPQCcCBDojcD6yvbZ3rIWnuu/qjHqMEXhMKgQAhDoSoAhgK6IyACB0QQO1MeNRm8K88k9FKeGUYMQCEAgMgF6ACK3DtpCEvCiWcfKPCQQMX1Yoh6KKAxNEIBAKAIEAKGaAzGpEFhbQr8YVOwd0sVQQNDGQRYEAhGYuRSw73MmQQAC/RHYX9k36++QwnJ7CePTCquNiiAAgRQJTPRtgPOmqBzNECiZgP93pskWLFlHu+r30A6GAtrRYTsEIDAzAIg6lknzQCA6gZUk8NCgIu+Urk8G1YYsCECgfAIEAOW3AQoSJ+BJd28M6sMx0vXHoNqQBQEIlEtg5hwAhgDKbQRqT5uAHxfsC23EBbVekK69ZTNkJAhAAALNBOgBaKbBewgMSOAlOu7wAY/N+7BbVQFDAXlTpnwIpEdgZg9A1KVN08OJ4joTeL+cf0tQAEdK11+DakMWBCBQDoF5PZN5Yjl1UysEKkfgaHm0WECvPBSwu4yhgICNgyQIlEXAAQA9AGXRp96qEVhGDn0/qFO3SNdngmpDFgQgUAIBBwDzlFAvVUKgqgTeJcfeEdS5H0jXGUG1IQsCECiYgAOA5wuuk+ogUHUCR8jBpQM66aGAvWSPBtSGJAhAoGACBAAFA6e6WhBYXF4eFdTTm6TrgKDakAUBCBRIwAGAfxWQIACBbAlsq+J2ybbIzErzPIVzMiuNgiAAgSQJ0AOQZLMhOhEC35HO5QNq9bDfrjKGAgI2DpIgUBQBAoCiSFNPHQlMktNeJdCrBUZLHgr4fDRR6IEABAoj8DxDAIWxpqKaEniD/P5AUN/dQ3FuUG3IggAE8iXwFD0A+QKmdAiYwNdlqwZE4aEAPzb4iYDakAQBCORL4EkHAM/lWwelQ6D2BBYQgR/L/P8WLV0vQQwFRGsV9EAgfwIzewCezr8eaoBA7QlsJgIfC0rhm9J1XlBtyIIABPIhMDMAeCyfsikVAhAYQ+AQfV57zLYIHxkKiNAKaIBAsQRmBgCPF1sntUGgtgQmyPPpsojP3/iXdB1c25bBcQjUj8DMOQD0ANSv4fG4PAIbqOpPl1d9x5oP196LOuZgJwQgUBUCT3tSEj0AVWlO/EiFgCfdvSKgWE8I9uqFTwbUhiQIQCBbAjMIALIFSmkQ6IXAOGXyUMDEXjIXnOefqu9LBddJdRCAQPEEHiYAKB46NULABNaURb397mvSdrFFkiAAgcoSmBkAMAegsu2LY8EJfEr6Ng2o8VlpYiggYMMgCQIZEiAAyBAmRUGgXwLugfMCQfP3e2AB+a9THYcWUA9VQAAC5RB4xF9AD5ZTN7VCAAIisJos6oX2K9J2Ca0EAQhUksBDDgDur6RrOAWBdAh8RFK3CCjXQwG7y1gtNGDjIAkCQxKYOQTwwJCFcDgEIDAcAQfix8oWGq6YXI6+UqW6J4AEAQhUi8DMIQB6AKrVqHiTJoEpkv2NoNK/LF2XBtWGLAhAYDAC9zAEMBg4joJAHgT2VKFvzqPgIctsDAU8M2Q5HA4BCMQhQAAQpy1QAoGZBI7R30UDsrhCmg4LqAtJEIDAYAQIAAbjxlEQyI3AMir5u7mVPlzBXiHwquGK4GgIQCAAgRnS8LiHAB6SuYuPBAEIxCDwXsnYKYaUUSp8N4AXCGIoYBQWPkAgOQL3WLEDgBdk3AlgGiQIxCFwhKQsGUfOi0ou0zs/NZAEAQikS+DFAMAu3JGuHyiHQCUJLCGvjg7q2cHSdXVQbciCAAS6E7jbWdwD4HT7rBf+QgACgQhsJy3vC6SnIeUpvXm/zI8PJkEAAukRGNUDQACQXgOiuB4Evic3XxrQ1YukKeq6BQFxIQkCoQjcajWNHgCGAEK1DWIg8CKBSXrnVQLnfnFLnDd+nPE1ceSgBAIQ6JEAAUCPoMgGgbIJbCkBe5UtokX9DAW0gMImCCRA4BZrbPQAMASQQIshsdYE3N2+SkACf5embwfUhSQIQKA9AQKA9mzYA4FwBBaQommyecIpm2uuA6Tp2oC6kAQBCMxJwJN37/TmRg8AcwDmhMQWCEQj8BoJ+mg0UdLjoYA9ZNwVELBxkASBMQR88Z+5mFcjAPCygDwVcAwlPkIgIAE/mnetgLoulCbfsUCCAARiE5jZ/W+JjQDA72/wHxIEIBCawASp810B4wKq9FDAvwPqQhIEIDCbQMsA4MbZ+3kHAQgEJrCxtH0qoL7HpcnPCng+oDYkQQACswhc3wDR3ANA5N6gwisE4hP4giRuGFDmBdLk5xiQIACBmAQIAGK2C6og0DOB8cp5nGxiz0cUl/HTqoofFMXxpiYI9EOgZQDAHIB+EJIXAuUTWFMSDixfxhwKPBSwp8xPGiVBAAJxCPh/8sVrPUMAcRoGJRAYhIDnArxykANzPuYslf/DnOugeAhAoD8CvgXQd/3NTM0BgG8DfHBkOy8QgEAaBHw3wHTZfAHlflKamFwcsGGQVFsCL3b/m0BzAODPo3Z6AwkCEAhP4GVSeEhAlY9J094yhgICNg6Saklg1DV+bABwdS2R4DQE0iewr1zYPKAbf5GmowLq6iZp7m4Z2A+BBAn8s1nz2ADgquadvIcABJIh4P/labKFAir+uDT9J6CuTpKW1M4dO2VgHwQSJHBFs2YCgGYavIdA2gSmSP7XA7rgoYC9ZKkNBXgS4xIBeSIJAoMSGPUjf2wAcOWgpXIcBCAQgoAvtG8KoWS0CA8F/Hj0pvCffPE/PLxKBEKgNwJ3KNt9zVnHBgDeeVdzBt5DAAJJEfDY9TGyRQOq9lDAbQF1dZK0s3Zu1ykD+yCQCIFR3f/WPDYA8LZRXQTeQIIABJIisKzUfjug4kekaXdZikMBkwPyRBIE+iEwRw8/AUA/+MgLgXQIvE9S3x5Q7hnSNC2grk6SHFB9tVMG9kEgAQIEAAk0EhIhkBWBI1RQxEls+0mXxyNTSp5bsUVKgtEKgTEE5ujdb9UDcOmYg/gIAQikScC3skVcjvch6fpAYkg9t+Jo2fyJ6UYuBEzAz+cYtQaAN7YKAK7R9ke9kwQBCCRPYEd58N6AXvxOmo4LqKuTpJW185BOGdgHgaAELpGuZ8dqaxUAPKdM9AKMJcVnCKRL4PuS/tKA8j8qTakNBVjzpgFZIgkCnQhc1GpnqwDA+VpmblUA2yAAgfAEPIPd9+BHW972YWlKbSjA35m+zXKijASBVAi0vKa3CwAuTsUrdEIAAj0ReINy7dFTzmIzeSjghGKrHLo2P3zpc0OXQgEQKI5AXwFAy8zFaaUmCEAgBwLfUpkex46W3K1+VzRRXfT4Ucev6JKH3RCIQOBeibi5lZB2PQDOfHerA9gGAQgkS2ABKZ8ma/d/X5Zj96tiPzY4pTROYj2sMj4l0WitJYG/t/O60xcBwwDtqLEdAukS8AS2jwSU/xtp+nlAXZ0kvVw7P90pA/sgEIBA22t5pwDgwgDCkQABCGRP4FAV6XHsaOnDEnRPNFFd9Byg/Wt1ycNuCJRJ4Lx2lXcKAM5udxDbIQCBpAnML/XTZPME88IPI/OKeymlCRJ7rCway5QYojU/Ak+r6L+1K75TAOBuA68eRIIABKpH4FVyyRPZoqVfS9BJ0UR10bOx9n+sSx52Q6AMAp7Q3/Y63ikAcOTAMEAZTUadECiGwEGqxuPY0dI+EpTaUMCXpXmNaCDRU3sC53Qi0CkA8HEMA3Sixz4IpE1gXsk/TubXSMlDAftGEtSDFg8FeIGgbt+pPRRFFghkRqDjNbzbydrx4MwkUhAEIFAWgXVV8YFlVd6h3hO17+QO+yPu2kSi3HtBgkAEAs9KRMde/G4BwN9VwJMRPEEDBCCQG4HPqGSPY0dLvpjeG01UFz2Haf9KXfKwGwJFEPADgGZ0qqhbAPCUDm47g7BTweyDAASSIeBFbabJJgZT7It/apPrFpBmP4J57mAskVM/Amd1c7lbAODjz+xWCPshAIHkCawhDzyRLVr6mQR5kaCU0lYSu2tKgtFaSQKnd/OqlwDgT90KYT8EIFAJAv61vXlATz4gTQ8E1NVJkp+78JJOGdgHgRwJPKayz+9Wfi8BgNcDSO2WnG5+sx8CEJiTgL8PfiJbaM5dpW75r2pPbShgkjR7KIAEgTIInKVKPYTfMfUSADyvEs7oWAo7IQCBqhBYUY54Ilu0dJwEnRpNVBc922j/u7rkYTcE8iDQU899LwGAxfVUWB5eUCYEIFA4AXe5v6nwWrtX+CFlebB7tlA5vic1S4ZShJg6EOjpmt1rAHCaiLkngAQBCFSfgGewHy1bJJird0rPx4Np6iZncWX4TrdM7IdAhgRuVlnX91JerwGAb8e5vJcCyQMBCFSCwHLywhPZoiXPUfAPkpSShwF2SEkwWpMm0NOvf3vYawDgvH/0HxIEIFAbArvI0+0Deru3ND0cUFcnSUdoZ7QelU562ZcugT/0Kr2fAKDnQnutnHwQgEB4AkdKobuxI6XbJGb/SIJ60LKM8nyjh3xkgcAwBB7XwX/utYB+AgCvKezbcUgQgEB9CCwlVz0fIFr6sQSl1iu5mzRvHQ0keipFwP8TT/TqUT8BgCcB/rrXgskHAQhUhsBb5cm7g3nzgvTsIXsomK5uctyjEm2dhW6a2Z8Ogb6u0f0EAEZwSjocUAoBCGRI4AcqK9rKdndI06cz9LGIopZXJV8toiLqqB2B5+RxX0P1/QYAZ6qC1O7Drd1ZgMMQyIHAZJXpbvdoD7k5Spq6rnmeA49hitxHB79+mAI4FgItCJyrbfe12N52U78BwDMq6fdtS2MHBCBQZQJ+yM3uwRz0UMBeso6PPQ2mubHOgp8cSIJAVgT66v53pf0GAD6GYQBTIEGgngS+KbdXCOb6LdKT2lDAitJ8cDCOyEmXgAPhQgIAzzL0k4ZIEIBA/QgsLJePlflXbKT0Q4np+fanIMI/Jh2vCaIFGWkTuEjyb+rXhUF6AHyfoYMAEgQgUE8CU+X2h4O57l9AfoZBSj9O/P3ruwImyEgQGIbAzwc5eJAAwPX8bJDKOAYCEKgMAc9kXy2YN/+Rns8G09RNzlrKcGC3TOyHQAcCvkX/Fx32t901aADgiYAPtC2VHRCAQNUJzC8Hp8nmCebo96Xn7GCausnx/IUNu2ViPwTaEPDsf98S23caNAB4WjX9qu/aOAACEKgSgVfLmWhL8vrX0G6yRxMCPU5afYvl+IQ0IzUOgYG6/y1/0ADAxzIMYAokCNSbgGeyrxMMgSdDfT6Ypm5y1lWGT3TLxH4IjCHwrD6fPGZbzx+HCQDOUS239VwTGSEAgSoS8AS242TzBnPuO9LjrtGUkoMWzwkgQaBXAn9Rxnt6zTw23zABgLvaThxbIJ8hAIHaEVhPHkebfOfvJz8roOcHowRoNQdTfvBStHkVAdAgoQ2BE9ps72nzMAGAK2AYoCfMZIJA5QkcIA83Cubl9dKT2lCA51V8NBhH5MQk8IhknTSMtGEDgCtU+WXDCOBYCECgEgQ8kW26bL5g3nxTes4LpqmbnC8rwyrdMrG/9gQ8+c/r8gychg0AXLFnr5IgAAEIrCEEnhQYKaU4FOBbLI+RzR0JJFrCEfjJsIqyCACOl4ihopBhneB4CEAgDIGPS8lrw6iZJeRfeokWmHRDtLky7N0tE/trS8DDW38b1vssAoCHJWKocYhhneB4CEAgDAF/p0yTLRhG0SwhX9fL+cE0dZNzmDIs3y0T+2tJwD3vXv56qJRFAGABnrlKggAEIGACK8q8VHCk1BgKeDKSqC5aFtZ+f9EzFNAFVM12+95/97wPnbIKAM6TkuuGVkMBEIBAVQh8UI5sGcyZf0rPl4Jp6ibHDHfulon9tSJwmry9MwuPswoArIXJgFm0CGVAoBoE/Kt1mmyRYO58TXouDqapmxwvarRct0zsrw2BH2TlaZYBwHSJeiorYZQDAQgkT8AXrW8E88Ldp++X+XkmqaRJEuoHBpEgcKMQnJ4VhiwDgPskipUBs2oZyoFANQjsJjfeFsyVq6Tny8E0dZMTrSelm17250PgRyrW81kySVkGABbkrioSBCAAgWYC/tJasnlDgPdfkYZLAuhAAgR6JeBlrYe+97+5sqwDAK8K6AmBJAhAAAINAkvojYOASMlDAbvLUhoKiMQPLcUTcA/7/VlWm3UAYG3fzVIgZUEAApUgsIO8eGcwT66UHvcEkCCQAoEfZi0yjwDgFIm8LWuhlAcBCCRP4Ah5sHQwLw6VniuCaUIOBMYS8J0rmd+9kkcA4K61zG5TGEuBzxCAQLIEFpPyaIuGeQhgF9kzyVJFeB0IfCsPJ/MIAKzzSBnPB8ijxSgTAmkT2EbyfWdApOQegGgrF0big5ZyCdyu6nNZbj+vAOBBCT6uXGbUDgEIBCXgXzPR1rj3bYG+PZAEgWgE/P+SSw9VXgGAAfrhGx4OIEEAAhBoJjBJH3w7k1cLjJIYCojSEuhoJvCIPuS2ym6eAcB/JPyXzZ7wHgIQgMAIgal69fMCIqXLJObwSILQUnsCnvn/cF4U8gwArNnjakM/sjAv5ykXAhAolYDX5V+1VAVzVn6wNl0952a2QKBwAu72950zuaW8AwDfZ3tabuopGAIQSJnA/BI/XTZPICf8PBPuCgjUIDWWcoJ8z/WW+rwDALcdC23U+AzGdQh0IfBq7d+vS56id1+qCj3xigSBsgh4vf/ch6OKCAC8NDDLA5d1GlEvBOIT+JIkrhNM5uel55pgmpBTHwK/kqu5D0UVEQC4ybzaFgkCEIBAKwITtNF3BYxvtbOkbR4K2FP2XEn1U219CXje3CFFuF9UAOB5ABcW4RB1QAACSRLYUKo/G0y5v7O+HUwTcqpP4Ddy8fIi3CwqALAv7lIjQQACEGhH4EDt2KjdzpK2H6B6ry2pbqqtJ4FCfv0bbZEBwBmq7yxXSoIABCDQgsA4bfNdARNb7Ctrk4cC9pAxFFBWC9Sr3j/I3cwf+tMOYZEBgDV8rp0QtkMAAhAQgTVkBwUj4aGA7wXThJxqEih0vlzRAYDvBnBPAAkCEIBAOwL7a8cm7XaWtN1DAf8uqW6qrQeBP8nN84t0tegAwL55og+rAxbZytQFgbQIeGGgn8oWDCTbTzf1AkG+P5sEgawJ+JpY+CTYMgIAj294nIMEAQhAoB2BlbSj0O7QdkKatl+g97kuzdpUF2/rReDnctcLUBWayggA7OAnZM8W6imVQQACqRH4sAS/MZjoT0sPQwHBGiVxOV7zv5T5cWUFANfJ4WmJNxryIQCBfAn4ccHHyCbnW01fpXsoYE8Zw5h9YSNzBwJHa18pQWVZAYBZHCib4TckCEAAAm0IvETbc18TvU3d7TafpR1+TCsJAsMSeEwFeCnsUlKZAcDd8vibpXhNpRCAQEoE3i+xOwQT/EnpuTGYJuSkR8ArTd5VluwyAwD77Mj+v2U5T70QgEAyBDz5btFAav3LbW8ZQwGBGiUxKfdK79fL1Fx2APConP9CmQCoOxcCHruNlKLpicQmFS3LSOj3g4n9i/QcFUwTctIh4OXxHy5TbtkBgH0/Vpb7Yw/LhFzDuheQz5EuupHuJ6/h6ZCZy+9WSTtlVlo2BXko4NZsiqKUGhG4Sr568l+pKUIA8JwI7FsqBSrPmoAXclks60KHKG/pIY7l0FgEfiA5SwWS9Ii0cFdAoAZJRMrHpNPXvlJThADAAP4q80IIpOoQWDeQKy8PpAUpwxFYXIcfOVwRmR99ukr8cealUmBVCfxajnn4qPQUJQAwiP1lj5ZOBAFZEdgyq4KGLMf3kG80ZBkcHovA9pKzSyxJc31cehgKCNYoAeU8LU2fiKIrUgBwu6AcEgUMOoYm8E6V4KGAstM7JGDeskVQf+YEfPvUSzMvdfACPRTwgcEP58iaEPiu/Lwhiq8RvqCbWVykD/7CdjcfKW0Ci0i+T/QrS3RjnOr+mSzSfIQScVSq6onyZi2Z2zdK8mpuK8jWjyIIHaEI+JZ3/zB6KpSqYGLeID2+txZLn8GdakcHAmUlP12L86jaDPYp6+RqU+8kbfdQAOcdDMaeA+9qc86weQyBk/kHqswXyKlqyzKGmjZVvY60x/4T8rlaTGaojVeWRUrbSAznGQyaz4E/RTpBo2tZTgIf4p+oMl8iP1JbFhkEbKD67uP8qcz50/xF2ur9OQWfX6qua5quHK20sq1+XJ7QubBK1zOmhAzR5gA0EDiqdwDgSJqUPoFXyIV1ZH+U5T3+ta3q8G02ZQ49qHpSgQRWUF3+zriwwDq7VeWgZGfZQt0ysr/yBL4kD0+pvJcZO+hfjP4nImKuDoOb1J6e5JnHKoHLqtyfyJ6Xcc7Uj4F/Za0hi5S2kxjOxXoz+KfOgQmRTsqUtKwusf7H5p+oWgzOU5t6sqeDvGGTL/wHybyGBOdJvRn4LiLf+REpHS8xnJf1ZOAfI1MjnYwpajmQf6DKfoHcrrb9mmwT2fyyXtMUZdxF5ok1z8r4goVB4xz4nM6HSMm3oPr2r4Y+XuvDYlqkE7GVljy6YlvVM8y28Tr4EpnHkEnVJeAL+bWyK2T3yx4cMd/vvajMY/pTZBvKWCdCEEgtCTytra+UXd5ybzkbd1C1vyqnamotiYBvgV5b5u+xsCmFAMDwNpadL4vWvWdtJAhAIBaBqyTHyz/nPeG0H6//nzJzH3g/xNLO6/kfv43uQtS7AMZyu0Mb3BOw+dgdfIYABCAwhsBS+uzvthAPXBnRdpZed5EtOPKZl+oS+KlcOywF91LpATBL//q/QMaDXUyDBAEIdCLgCVj+wXBep0wF79te9XlhLFJ1Cdwl17xE9QMpuJjFLOyi/PQYsSNo3xVAggAEINCJgL/bpski/eL+tfT8UkaqLoEPybUkLv5uglSGABqny31686Rsq8YGXiEAAQi0IeDJowvIvABVlHS2hOwm6+eulyja0dGZwIna/eXOWWLtTS0AML2/y9y1N0VGggAEINCJgCcQnyu7uVOmAvc9prpuk729wDqpKn8CnqfmiX9J9VCnNAeguQmn6INvF1u4eSPvIQABCLQgcLO2rSt7pMW+sjadpIp3LKty6s2UgOebuFc60qTTnhxMaQ5As0M368NHmzfwHgIQgEAbAlO0/fA2+8ra7McY31tW5dSbKYFvqLTkLv4mkOIQQKPl3AOwssyRPQkCEIBAJwJeQOpi2Q2dMhW473HV5cVi3lZgnVSVPYHLVOR7ZM9lX3T+JaY6BNAg4wk+/5D5mQEkCEAAAp0IeEnetWWRZmn/Snq8UiApPQKekO7b0q9OT/osxakOATR4e0LNO2RuCBIEIACBTgSW0c7vdspQwr4Pqc5IAUkJCJKt8mNSnuzF39RTHgJonDX36M2jsq0bG3iFAAQg0IbAy7XdX9rXtdlf9GZ/d3nxGHoBiiY/XH2/1uH7D1dE+UenPgTQIGg/TpFt39jAKwQgAIE2BO7Tdg8F3N1mfxmb/f311jIqps6+CdyqIzaQ+aFlSaeqBABuhMVkl8qW9wcSBCAAgQ4EfMGNNAFvOelxz8TkDprZVT4BP2BqM5knlCafUp8D0NwAjsbcA5DUQgzNDvAeAhAojIC73N9XWG3dK/JCMvt1z0aOkgl8XPVX4uJvjlXqAWicF3vqzVGND7xCAAIQaEPgYW1fR+aV+aKkP0jIm6KIQccoAr/Qp3eO2pL4hyoGAG6SY2TvT7xtkA8BCORP4AxV4VXcXsi/qp5qWFa5PBSwSE+5yVQUAa8f8QrZI0VVWEQ9VbgLoBWn07XxjTKPq5EgAAEItCOwknZ4fYBL2mUoePsM1efhzO0Krpfq2hPwbebulbmlfZY091S1B8CtsYLM/9SeHEiCAAQg0I7Ao9rh2wNvapeh4O3+XvYTDHnqacHg21TnuSLHt9mX9OYqTQIc2xCO1pJdonGsM3yGAARyI7CgSv6JLMr3oYcjPJepUt3N8ifFdLhEV/Li78ao6hBA40S7UW/cpebhABIEIACBdgSmaIcnBf6tXYaCt1vLg7JtCq6X6mYT+LPe7iZzQFbJVPUAwI3mf+ilZZ7AQYIABCDQjsDrtMPrA9zbLkPB272uyatlKxdcL9XNNdf1guDVZf3QpsqmKs8BaG608frgMbWpzRt5DwEIQGAMAV90XyV7Zsz2sj6uoIqvki1UloAa1uteYwde11Td9zr0ALgNn5f9TuaVv5gUKAgkCECgJQE/MMirvZ3bcm/xGz0UYHtL8VXXskZfK/yAufPq4H1degAabbmG3lwom9TYwCsEIACBMQSe1ueNZVeM2V7WR39P/1X2urIE1Kjez8jXr9bF37oFAG5XTwh0b8A4fyBBAAIQaEHAF38HAQ4GIqSVJOJK2QIRxFRUgxeQ890XtUl1GQJoblDfGXCnpBbx4QAAD0RJREFUjIU2mqnwHgIQaCbgicO+LdC/vCMk3xHgsWmWCc6nNf6kYt8r8xBAbVIdAwA37mUy9368TkaCAAQg0IrAJtp4uuyOVjtL2PYP1fk62RQZKTsCnuz3ZlmlZ/y3wlXHIYBmDkfowwebN/AeAhCAQBOBf+n9+rIoTxldUVo8FODFi0jDE3BvsO/6uG34otIroa49AI2WcrfPurLVGxt4hQAEINBEYHG9n1/m74oI6SGJcDDie9RJwxHwkMobZNcPV0y6R9e9B8At50k1Z8o28gcSBCAAgTEEPC48VXb2mO1lffTchHNkrylLQAXq9ToPngfm9WFqmwgAZjX9kno5X7ZKbc8EHIcABDoRuEk7Xy57tFOmAvetproul81XYJ1VqcoBnR/wc0JVHBrUj7oPATS4PaY3p8q8UNDkxkZeIQABCIwQWESvXkTMtxBHSH5k8JOyrSKISUzDftJ7dGKac5FLD8BorKvqo7vWfAsQCQIQgEAzAT8Uxivynda8scT3HgrwsMSmJWpIreoDJPjQ1ETnpZcAYE6y7ubznIBF59zFFghAoOYE7pT/68geCMLhZdLh25oZCujeIN9Tlo92z1afHAwBzNnWd2uTo+p3yibMuZstEIBAjQn4oTzLyk4JwsBDAZ7Q5tnspPYEjtOuD7TfXc899AC0b/fXa5fH+ya2z8IeCECgpgQ8XyhKEOAfchfIvHQxaU4CJ2uTf9A9N+euem8hAOjc/ttq90myeTtnYy8EIFAzAvfI37Vl9wbxe03puFRGr+XoBvHk7nfI3EtCGkOAIYAxQMZ89AIRl8h2lPHwoDFw+AiBGhPw+iGryU4MwsCBiG9vc88laRYBT9bcSfY0QFoTIABozaV567/1wZE1QUAzFd5DAAKrC4G/H64KguJC6fDDgpYLoqdMGb747yB7qkwR0etmCKD3FtpaWT3mx5yA3pmREwJVJ/CQHHy57LYgjq4hHf7BUufvKa/u54u/10kgdSBAD0AHOGN2OdL307jeLmM4YAwcPkKgpgR8ofVcgOOD+H+fdHh9gC2C6ClaBhf/PogTAPQBS1lvlDEc0B8zckOg6gRWloN3yPzdECF5KGAb2TIRxBSo4Q+qi27/PoAzBNAHrKasW+q9hwMWbNrGWwhAoL4EZsh1DwXcHATButJxkawudzD9Ur7+r4wJf4LQa3JXEal/AmfokKkyd7eRIAABCCwkBD+VRflOvUJavlKTZvHwy3tkXPxr0uBR3PS9t7fLvEY4BgPOAc6BfaN8OUnHONk/Kv7d9H35FyXokpS0EkMAw7fXiiridNkqwxdFCRCAQOIEPPN8Q9m1QfzwUMDFsvFB9GQp4zAV9uksC6xbWUROw7f4TSpiM1mUe4GH94gSIACBQQn4roAfy6JMsPZQwFcHdSboce5p21/GxT9oA9VR1mJy+m8yuoFhwDnAORDp4uSJgFdW5LvJS/ruJiNlQIAhgAwgNhXh6H+6zGtPkyAAgfoS8IS0jWS+8EZI60mE7wpIeSjgMen3Q31+LyNlQCBKN1UGroQo4lmp8O2Bi8o2DqEIERCAQBkE/N26iexYWYSn0N0lHf6B4uHKFJP1byU7O0XxUTUTAGTfMu7+9TrUXiLUJyy9LIJAgkANCSw94vOZQXw/XzreKlsyiJ5eZXgV1tfLrun1APL1RoCLU2+cBs21ow70PaqOvEkQgED9CLhX8DUyd79HSBtIxN9kqQwFWKsfy86aK4KQdeIugKyJji7vZH3cWvbA6M18ggAEakLA9+JPk0X5EeDlir8lSyGdJJFbyLj4p9BaaGxLYGXtcfcVs8NhwDlQz3Pg8LbfDsXvmKAqrw7+ffQd6eMHavHnBjXmRMBLhf5GxgUABpwD9TsHPBFw85y+WwYp9pU6yMMT0c7FJ6Rp50Ec4pj+CTAJsH9mgx7h24J+IXP0vemghXAcBCCQJAHPt3IA4LsC/F1QdrpDAvyjxHcqREl3SoiHTP8QRVDVdRAAFNvCjrbPkN0ge4vM44MkCECgHgQWkZuTZVHuYz9HWt4mW0JWdrpMAraUXVe2EOqHQBEEPDP4Llm0Ljj00CacA/mdA8/rf/4NRXzB9FiHv4c8PFFmmx+n+qNMkuwRG9kgMDyB5VTE+bIy//moG/6cA8WeA7fqf949AVGS7woo4xx4RvV+PAoEdECgDAIeBviqrIx/QOqEO+dAOefAtDK+bNrUOb+2Xy8r8ly4W/V5cR8SBCAgAu+SzZAV+U9IXfDmHCjvHPBCYVGSJwMWNRRwtupaJorj6IBAFAIvk5Do9+dywSjvggH7arG/R//vkZbl9b33eZ5jnv/gOsbLSBCAQAsCC2ubbxfM8x+RsuHLORDjHPD/epS0gITcKMvj3HhQ5W4fxVF0QCA6gb0k8HFZHv+MlAlXzoE454CH/6Kk10mIf6lneX5covK8GioJAhDog8Dqynu5LMt/RsqCJ+dArHPAv45f0sf3Qt5Zj8joO6fR5e/Fz0gQgMAABHx/rMfNso7KuQjEugjQHvVujz/pfzzK01k9FPBv2TDnpGf5v1lGggAEMiDg53jfLxvmn5Jj4cc5EPcceH8G3xNZFeGn8A36o+OPOnbprIRQDgQgMIvA8nr5i4wvcRhwDlTvHHhY/9srzPpXD/H3R31+13jO0gdlUXoyQkBEBASyJOB/ro/KmCBYvQsAF3Xa1AF+lAuoHxZ0s6yX89JzldaSkSAAgQIIrKQ6zpX18s9JHjhxDqRzDnykgO+PXquYqoydhgK8nK9XMmWiX69EyQeBjAh4GeFPyZ6S8QUPA86BapwDj+n/eTVZlHS0hLQ6t7xo2SuiiEQHBOpKYH05fqWs1T8p2+DCOZDeOeCHhM0T5AttknT4AUaN88i/+r8sm1dGSphAlBMsYYQhpN8lFY7SPS9gU5l7BkgQgEC6BF4q6f5/diBQdnIP41Wy98mulW0nO172nIyUMIEok00SRhhOuhcPOkq2WThlCIIABPoh4Auvu9jd1R4h+eFFv5NZF6kCBAgAKtCILVxwuzpa/5Zs0Rb72QQBCKRBwLPrXyl7Og25qEyJAEMAKbVWf1qvUPafyqbI1pSRIACB9Ah4QR3Pwj8rPekojk6AHoDoLZSNvm1VjJcTXjGb4igFAhAokMCzqmsT2cUF1klVNSBAAFCDRh5xcT69+pZBm58vQIIABNIhcJ2kbih7Ih3JKI1OgCGA6C2UnT7/ijhLdqLMiwhFus9YckgQgEAHAkton2+7+3OHPOyCQF8E6AHoC1elMntY4NsyBwMkCEAgPgHPBdhCdk58qShMgQABQAqtlJ9GDwX8n+wzsoXzq4aSIQCBjAj4Mb3rybxaIAkCQxFgCGAofMkf7GGB82ReRMjBgMcY/0dGggAEYhLwbb1eme8PMeWhKiUCBAAptVZ+Wj2xyM/w/oVsKRlP9RIEEgSCEthIuv4uc28ACQIDE2AIYGB0lT5wS3l3uGzdSnuJcxBIl8Ctkv5y2cPpuoDysgnQA1B2C8Ss/z+SdaTsGpmDgMVkJAhAIA4BDwO4t+7XcSShJDUCBACptVixev3gjx/IHAh4fsAiMhIEIBCDwPqScZXsuhhyUJEaAYYAUmux8vT6HuRdZQfJlpGRIACB8gncKwlry+4pXwoKUiNAD0BqLVaeXj/68xLZj2SPyDw0sICMBAEIlEfA/4PLy04qTwI1p0qAW75SbbnydPv+48NkU2Qfk90hI0EAAuUQuFDV/qycqqkVAhCoOwEPDewsu172AgYDzoFCzgGv3+HVPEkQgAAESifg3qSdZJ44SCAAA86B7M8BLwX8W9mrZCQIQAAC4Qg4ENhOdqaMiwAMOAeGPwee0f/S8TJP9iNBIDMC3AWQGUoKakHAa5bvI/MQAY8gbgGITRDoQMCTbafJvim7RUaCQKYECAAyxUlhbQgsre0fkH1YxqJCbSCxGQIjBLzE7/dlx8g86ZYEAQhAIHkCvmVpb9llMrqGYcA5MPsc8Pj+6bI3y7g7SxBI+ROgByB/xtTQmsCrtdnDA544yPBAa0ZsrT6Bh+Wib+P7oezq6ruLh5EIEABEao16apkst98h21e2Zj0R4HUNCXhRraNkJ8geraH/uByAAAFAgEZAwkwC7vacKttVtoNsfhkJAlUi8JCc8Wx+X/i9hj8JAqUSIAAoFT+VtyGwsLa7V2AX2WtknKeCQEqSgMf2z5X9RPYL2RMyEgRCEOCLNUQzIKIDgeW1792yvWQrdcjHLghEIuAn9PmCf5zsP5GEoQUCDQIEAA0SvKZAYEOJ3FnmiYM8kTCFFquXxvvl7smyn8q8VC8JAqEJEACEbh7EtSHgp1huLnunbEcZawsIAqkUAr7o/0b2c9kZMj81kwSBJAgQACTRTIjsQGC89r1e9nbZtrIlZSQI5Engvyr8VNmvZGfJnpWRIJAcAQKA5JoMwR0I+E6C9WUOBLaReciABIEsCNyqQnzR/63sLBkXfUEgpU2AACDt9kN9ZwKravf2MgcEm8jGyUgQ6IWAL/AXyk4bsct7OYg8EEiJAAFASq2F1mEIeBlirz645YjROzAMzWoee6/cOkv2O5l/6T8oI0GgsgQIACrbtDjWhYBvKdxqxKbqdVKX/OyuHgE/aOd82Vkyr8N/qczPJyBBoBYECABq0cw42YWA7ypYXeZFhzaVvU72UhmpWgQelzuXyXyL3hmyc2VPyUgQqCUBAoBaNjtO90BgDeXZbMQ8f8A9BqS0CNwtuX+X/U12juwi2TMyEgQgIAIEAJwGEOiNgIcI1pF57oB7ChwcLC0jxSDgC/sNMv+6d7f+JbJrZXTpCwIJAq0IEAC0osI2CPRGwMsUbyTbQLa2zAHCFBn/V4KQY/LkvCtkV8quknmGvj/z614QSBDolQBfVL2SIh8EeiOwkLKtJXMw4KDA5vkFy8pI/RHwY3L9q/5fMl/sG3ab3pMgAIEhCRAADAmQwyHQI4EFlW8VmdcmaLw23td5KMFPx7tJdr3MF/uG+fOdMhIEIJATAQKAnMBSLAT6IDBReV8yYr77wEMLy8ka75fQ+8Vl42UppYck9h6ZJ+PdKvMv99ub3vvz/TISBCBQAgECgBKgUyUEBiQwWcf5WQcOBhq2mN4vKpt/xDxZ0b0N/uxXH9P4P19E75vTwvowz8gG3xP/dNNO3zLXuEXO771/huyRkffe5gu8t/v1Ppkv9F5Mx+9tz8hIEIBAUAL/H0wIq5UXXMAdAAAAAElFTkSuQmCC;textShadow=0;labelBorderColor=none;fontColor=default;imageBackground=#FFFFFF;" vertex="1" parent="1">
          <mxGeometry x="90" y="275" width="50" height="50" as="geometry" />
        </mxCell>
        <mxCell id="LlsY5RYBl1xxhd0hf_0L-10" style="edgeStyle=orthogonalEdgeStyle;rounded=0;orthogonalLoop=1;jettySize=auto;html=1;entryX=0;entryY=0.5;entryDx=0;entryDy=0;" edge="1" parent="1" source="LlsY5RYBl1xxhd0hf_0L-9" target="LlsY5RYBl1xxhd0hf_0L-8">
          <mxGeometry relative="1" as="geometry" />
        </mxCell>
        <mxCell id="LlsY5RYBl1xxhd0hf_0L-9" value="" style="image;points=[];aspect=fixed;html=1;align=center;shadow=0;dashed=0;image=img/lib/allied_telesis/computer_and_terminals/Personal_Computer.svg;" vertex="1" parent="1">
          <mxGeometry x="-10" y="269.1" width="45.6" height="61.800000000000004" as="geometry" />
        </mxCell>
        <mxCell id="LlsY5RYBl1xxhd0hf_0L-44" value="" style="edgeStyle=orthogonalEdgeStyle;rounded=0;orthogonalLoop=1;jettySize=auto;html=1;" edge="1" parent="1" source="LlsY5RYBl1xxhd0hf_0L-12" target="LlsY5RYBl1xxhd0hf_0L-43">
          <mxGeometry relative="1" as="geometry" />
        </mxCell>
        <mxCell id="LlsY5RYBl1xxhd0hf_0L-53" value="" style="edgeStyle=orthogonalEdgeStyle;rounded=0;orthogonalLoop=1;jettySize=auto;html=1;" edge="1" parent="1" source="LlsY5RYBl1xxhd0hf_0L-12" target="LlsY5RYBl1xxhd0hf_0L-52">
          <mxGeometry relative="1" as="geometry" />
        </mxCell>
        <mxCell id="LlsY5RYBl1xxhd0hf_0L-98" style="edgeStyle=orthogonalEdgeStyle;rounded=0;orthogonalLoop=1;jettySize=auto;html=1;" edge="1" parent="1" source="LlsY5RYBl1xxhd0hf_0L-12" target="LlsY5RYBl1xxhd0hf_0L-84">
          <mxGeometry relative="1" as="geometry" />
        </mxCell>
        <mxCell id="LlsY5RYBl1xxhd0hf_0L-12" value="" style="dashed=0;outlineConnect=0;html=1;align=center;labelPosition=center;verticalLabelPosition=bottom;verticalAlign=top;shape=mxgraph.weblogos.java" vertex="1" parent="1">
          <mxGeometry x="390" y="267.5" width="34.4" height="65" as="geometry" />
        </mxCell>
        <mxCell id="LlsY5RYBl1xxhd0hf_0L-63" style="edgeStyle=orthogonalEdgeStyle;rounded=0;orthogonalLoop=1;jettySize=auto;html=1;exitX=1;exitY=0.5;exitDx=0;exitDy=0;entryX=0;entryY=0.5;entryDx=0;entryDy=0;" edge="1" parent="1" source="LlsY5RYBl1xxhd0hf_0L-43" target="LlsY5RYBl1xxhd0hf_0L-61">
          <mxGeometry relative="1" as="geometry" />
        </mxCell>
        <mxCell id="LlsY5RYBl1xxhd0hf_0L-43" value="Cadastrar metas" style="whiteSpace=wrap;html=1;verticalAlign=middle;dashed=0;" vertex="1" parent="1">
          <mxGeometry x="461.6" y="270" width="120" height="60" as="geometry" />
        </mxCell>
        <mxCell id="LlsY5RYBl1xxhd0hf_0L-94" style="edgeStyle=orthogonalEdgeStyle;rounded=0;orthogonalLoop=1;jettySize=auto;html=1;exitX=1;exitY=0.5;exitDx=0;exitDy=0;" edge="1" parent="1" source="LlsY5RYBl1xxhd0hf_0L-52" target="LlsY5RYBl1xxhd0hf_0L-69">
          <mxGeometry relative="1" as="geometry" />
        </mxCell>
        <mxCell id="LlsY5RYBl1xxhd0hf_0L-52" value="Mudar status&amp;nbsp;&lt;div&gt;da meta&lt;/div&gt;" style="whiteSpace=wrap;html=1;verticalAlign=top;dashed=0;" vertex="1" parent="1">
          <mxGeometry x="347.2" y="420" width="120" height="60" as="geometry" />
        </mxCell>
        <mxCell id="LlsY5RYBl1xxhd0hf_0L-73" style="edgeStyle=orthogonalEdgeStyle;rounded=0;orthogonalLoop=1;jettySize=auto;html=1;exitX=1;exitY=0.5;exitDx=0;exitDy=0;entryX=0;entryY=0.5;entryDx=0;entryDy=0;" edge="1" parent="1" source="LlsY5RYBl1xxhd0hf_0L-54" target="LlsY5RYBl1xxhd0hf_0L-67">
          <mxGeometry relative="1" as="geometry" />
        </mxCell>
        <mxCell id="LlsY5RYBl1xxhd0hf_0L-54" value="Meta concluida" style="rhombus;whiteSpace=wrap;html=1;verticalAlign=middle;dashed=0;" vertex="1" parent="1">
          <mxGeometry x="670" y="400" width="80" height="80" as="geometry" />
        </mxCell>
        <mxCell id="LlsY5RYBl1xxhd0hf_0L-61" value="&lt;span style=&quot;text-wrap-mode: nowrap;&quot;&gt;Armazena todas&lt;/span&gt;&lt;div style=&quot;text-wrap-mode: nowrap;&quot;&gt;&amp;nbsp;as mensagens&lt;/div&gt;" style="whiteSpace=wrap;html=1;" vertex="1" parent="1">
          <mxGeometry x="647.2" y="270" width="120" height="60" as="geometry" />
        </mxCell>
        <mxCell id="LlsY5RYBl1xxhd0hf_0L-45" value="" style="outlineConnect=0;dashed=0;verticalLabelPosition=bottom;verticalAlign=top;align=center;html=1;shape=mxgraph.aws3.mysql_db_instance_2;fillColor=#2E73B8;gradientColor=none;" vertex="1" parent="1">
          <mxGeometry x="747.2" y="305" width="50" height="50" as="geometry" />
        </mxCell>
        <mxCell id="LlsY5RYBl1xxhd0hf_0L-76" style="edgeStyle=orthogonalEdgeStyle;rounded=0;orthogonalLoop=1;jettySize=auto;html=1;exitX=1;exitY=0.5;exitDx=0;exitDy=0;" edge="1" parent="1" source="LlsY5RYBl1xxhd0hf_0L-67" target="LlsY5RYBl1xxhd0hf_0L-77">
          <mxGeometry relative="1" as="geometry">
            <mxPoint x="962.8" y="511.9047619047619" as="targetPoint" />
          </mxGeometry>
        </mxCell>
        <mxCell id="LlsY5RYBl1xxhd0hf_0L-67" value="Dispara evento" style="whiteSpace=wrap;html=1;dashed=0;" vertex="1" parent="1">
          <mxGeometry x="809.8" y="482" width="120" height="60" as="geometry" />
        </mxCell>
        <mxCell id="LlsY5RYBl1xxhd0hf_0L-95" style="edgeStyle=orthogonalEdgeStyle;rounded=0;orthogonalLoop=1;jettySize=auto;html=1;exitX=1;exitY=0.5;exitDx=0;exitDy=0;" edge="1" parent="1" source="LlsY5RYBl1xxhd0hf_0L-69" target="LlsY5RYBl1xxhd0hf_0L-54">
          <mxGeometry relative="1" as="geometry" />
        </mxCell>
        <mxCell id="LlsY5RYBl1xxhd0hf_0L-69" value="Atualiza status" style="whiteSpace=wrap;html=1;dashed=0;" vertex="1" parent="1">
          <mxGeometry x="501" y="409" width="120" height="80" as="geometry" />
        </mxCell>
        <mxCell id="LlsY5RYBl1xxhd0hf_0L-71" value="" style="image;sketch=0;aspect=fixed;html=1;points=[];align=center;fontSize=12;image=img/lib/mscae/Cache_Redis_Product.svg;" vertex="1" parent="1">
          <mxGeometry x="491" y="469" width="50" height="42" as="geometry" />
        </mxCell>
        <mxCell id="LlsY5RYBl1xxhd0hf_0L-72" value="" style="outlineConnect=0;dashed=0;verticalLabelPosition=bottom;verticalAlign=top;align=center;html=1;shape=mxgraph.aws3.mysql_db_instance_2;fillColor=#2E73B8;gradientColor=none;" vertex="1" parent="1">
          <mxGeometry x="581" y="469" width="50" height="50" as="geometry" />
        </mxCell>
        <mxCell id="LlsY5RYBl1xxhd0hf_0L-78" style="edgeStyle=orthogonalEdgeStyle;rounded=0;orthogonalLoop=1;jettySize=auto;html=1;" edge="1" parent="1" source="LlsY5RYBl1xxhd0hf_0L-74" target="LlsY5RYBl1xxhd0hf_0L-77">
          <mxGeometry relative="1" as="geometry" />
        </mxCell>
        <mxCell id="LlsY5RYBl1xxhd0hf_0L-83" style="edgeStyle=orthogonalEdgeStyle;rounded=0;orthogonalLoop=1;jettySize=auto;html=1;" edge="1" parent="1" source="LlsY5RYBl1xxhd0hf_0L-74" target="LlsY5RYBl1xxhd0hf_0L-81">
          <mxGeometry relative="1" as="geometry" />
        </mxCell>
        <mxCell id="LlsY5RYBl1xxhd0hf_0L-74" value="" style="dashed=0;outlineConnect=0;html=1;align=center;labelPosition=center;verticalLabelPosition=bottom;verticalAlign=top;shape=mxgraph.weblogos.java" vertex="1" parent="1">
          <mxGeometry x="1145.6" y="480" width="34.4" height="65" as="geometry" />
        </mxCell>
        <mxCell id="LlsY5RYBl1xxhd0hf_0L-75" value="MicroserviÃ§o&lt;div&gt;envio de email&lt;/div&gt;" style="text;html=1;align=center;verticalAlign=middle;resizable=0;points=[];autosize=1;strokeColor=none;fillColor=none;" vertex="1" parent="1">
          <mxGeometry x="1112.8" y="553" width="100" height="40" as="geometry" />
        </mxCell>
        <mxCell id="LlsY5RYBl1xxhd0hf_0L-77" value="" style="shape=image;verticalLabelPosition=bottom;labelBackgroundColor=default;verticalAlign=top;aspect=fixed;imageAspect=0;image=data:image/png,iVBORw0KGgoAAAANSUhEUgAABAoAAAMMCAYAAADaWkW/AAAAAXNSR0IArs4c6QAAAERlWElmTU0AKgAAAAgAAYdpAAQAAAABAAAAGgAAAAAAA6ABAAMAAAABAAEAAKACAAQAAAABAAAECqADAAQAAAABAAADDAAAAAA5BOj9AABAAElEQVR4AezdB3hlV3Uo/nXu1ahMcwHbFNt0h2LTQxxCCY8EQkLJgzghGBwzM3aAgBvFBQyD6QZcCBAyzX52SF5oL+QFYpI/CS0B0uih/AMYGxuCMW4zI2kk3fO2xhhseTwj6bZ9zvnp+/SN7j1n773Wb2l0r5ZOifBBgAABAgQIECBAgAABAgQIECBAgAABAgQIECBAgAABAgQIECBAgAABAgQIECBAgAABAgQIECBAgAABAgQIECBAgAABAgQIECBAgAABAgQIECBAgAABAgQIECBAgAABAgQIECBAgAABAgQIECBAgAABAgQIECBAgAABAgQIECBAgAABAgQIECBAgAABAgQIECBAgAABAgQIECBAgAABAgQIECBAgAABAgQIECBAgAABAgQIECBAgAABAgQIECBAgAABAgQIECBAgAABAgQIECBAgAABAgQIECBAgAABAgQIECBAgAABAgQIECBAgAABAgQIECBAgAABAgQIECBAgAABAgQIECBAgAABAgQIECBAgAABAgQIECBAgAABAgQIECBAgAABAgQIECBAgAABAgQIECBAgAABAgQIECBAgAABAgQIECBAgAABAgQIECBAgAABAgQIECBAgAABAgQIECBAgAABAgQIECBAgAABAgQIECBAgAABAgQIECBAgAABAgQIECBAgAABAgQIECBAgAABAgQIECBAgAABAgQIECBAgAABAgQIECBAgAABAgQIECBAgAABAgQIECBAgAABAgQIECBAgAABAgQIECBAgAABAgQIECBAgAABAgQIECBAgAABAgQIECBAgAABAgQIECBAgAABAgQIECBAgAABAgQIECBAgAABAgQIECBAgAABAgQIECBAgAABAgQIECBAgAABAgQIECBAgAABAgQIECBAgAABAgQIECBAgAABAgQIECBAgAABAgQIECBAgAABAgQIECBAgAABAgQIECBAgAABAgQIECBAgAABAgQIECBAgAABAgQIECBAgAABAgQIECBAgAABAgQIECBAgAABAgQIECBAgAABAgQIECBAgAABAgQIECBAgAABAgQIECBAgAABAgQIECBAgAABAgQIECBAgAABAgQIECBAgAABAgQIECBAgAABAgQIECBAgAABAgQIECBAgAABAgQIECBAgAABAgQIECBAgAABAgQIECBAgAABAgQIECBAgAABAgQIECBAgAABAgQIECBAgAABAgQIECBAgAABAgQIECBAgAABAgQIECBAgAABAgQIECBAgAABAgQIECBAgAABAgQIECBAgAABAgQIECBAgAABAgQIECBAgAABAgQIECBAgAABAgQIECBAgAABAgQIECBAgAABAgQIECBAgAABAgQIECBAgAABAgQIECBAgAABAgQIECBAgAABAgQIECBAgAABAgQIECBAgAABAgQIECBAgAABAgQIECBAgAABAgQIECBAgAABAgQIECBAgAABAgQIECBAgAABAgQIECBAgAABAgQIECBAgAABAgQIECBAgAABAgQIECBAgAABAgQIECBAgAABAgQIECBAgAABAgQIECBAgAABAgQIECBAgAABAgQIECBAgAABAgQIECBAgAABAgQIECBAgAABAgQIECBAgAABAgQIECBAgAABAgQIECBAgAABAgQIECBAgAABAgQIECBAgAABAgQIECBAgAABAgQIECBAgAABAgQIECBAgAABAgQIECBAgAABAgQIECBAgAABAgQIECBAgAABAgQIECBAgAABAgQIECBAgAABAgQIECBAgAABAgQIECBAgAABAgQIECBAgAABAgQIECBAgAABAgQIECBAgAABAgQIECBAgAABAgQIECBAgAABAgQIECBAgAABAgQIECBAgAABAgQIECBAgAABAgQIECBAgAABAgQIECBAgAABAgQIECBAgAABAgQIECBAgAABAgQIECBAgAABAgQIECBAgAABAgQIECBAgAABAgQIECBAgAABAgQIECBAgAABAgQIECBAgAABAgQIECBAgAABAgQIECBAgAABAgQIECBAgAABAgQIECBAgAABAgQIECBAgAABAgQIECBAgAABAgQIECBAgAABAgQIECBAgAABAgQIECBAgAABAgQIECBAgAABAgQIECBAgAABAgQIECBAgAABAgQIECBAgAABAgQIECBAgAABAgQIECBAgAABAgQIECBAgAABAgQIECBAgAABAgQIECBAgAABAgQIECBAgAABAgQIECBAgAABAgQIECBAgAABAgQIECBAgAABAgQIECBAgAABAgQIECBAgAABAgQIECBAgAABAgQIECBAgAABAgQIECBAgAABAgQIECBAgAABAgQIECBAgAABAgQIECBAgAABAgQIECBAgAABAgQIECBAgAABAgQIECBAgAABAgQIECBAgAABAgQIECBAgAABAgQIECBAgAABAgQIECBAgAABAgQIECBAgAABAgQIECBAgAABAgQIECBAgAABAgQIECBAgAABAgQIECBAgAABAgQIECBAgAABAgQIECBAgAABAgQIECBAgAABAgQIECBAgAABAgQIECBAgAABAgQIECBAgAABAgQIECBAgAABAgQIECBAgAABAgQIECBAgAABAgQIECBAgAABAgQIECBAgAABAgQIECBAgAABAgQIECBAgAABAgQIECBAgAABAgQIECBAgAABAgQIECBAgAABAgQIECBAgAABAgQIECBAgAABAgQIECBAgAABAgQIECBAgAABAgQIECBAgAABAgQIECBAgAABAgQIECBAgAABAgQIECBAgAABAgQIECBAgAABAgQIECBAgAABAgQIECBAgAABAgQIECBAgAABAgQIECBAgAABAgQIECBAgAABAgQIECBAgAABAgQIECBAgAABAgQIECBAgAABAgQIECBAgAABAgQIECBAgAABAgQIECBAgAABAgQIECBAgAABAgQIECBAgAABAgQIECBAgAABAgQIECBAgAABAgQIECBAgAABAgQIECBAgAABAgQIECBAgAABAgQIECBAgAABAgQIECBAgAABAgQIECBAgAABAgQIECBAgAABAgQIECBAgAABAgQIECBAgAABAgQIECBAgAABAgQIECBAgAABAgQIECBAgAABAgQIECBAgAABAgQIECBAgAABAgQIECBAgAABAgQIECBAgAABAgQIECBAgAABAgQIECBAgAABAgQIECBAgAABAgQIECBAgAABAgQIECBAgAABAgQIECBAgAABAgQIECBAgAABAgQIECBAgAABAgQIECBAgAABAgQIECBAgAABAgQIECBAgAABAgQIECBAgAABAgQIECBAgAABAgQIECBAgAABAgQIECBAgAABAgQIECBAgAABAgQIECBAgAABAgQIECBAgAABAgQIECBAgAABAgQIECBAgAABAgQIECBAgAABAgQIECBAgAABAgQIECBAgAABAgQIECBAgAABAgQIECBAgAABAgQIECBAgAABAgQIECBAgAABAgQIECBAgAABAgQIECBAgAABAgQIECBAgAABAgQIECBAgAABAgQIECBAgAABAgQIECBAgAABAgQIECBAgAABAgQIECBAgAABAgQIECBAgAABAgQIECBAgAABAgQIECBAgAABAgQIECBAgAABAgQIECBAgAABAgQIECBAgAABAgQIECBAgAABAgQIECBAgAABAgQIECBAgAABAgQIECBAgAABAgQIECBAgAABAgQIECBAgAABAgQIECBAgAABAgQIECBAgAABAgQIECBAgAABAgQIECBAgAABAgQIECBAgAABAgQIECBAgAABAgQIECBAgAABAgQIECBAgAABAgQIECBAgAABAgQIECBAgAABAgQIECBAgAABAgQIECBAgAABAgQIECBAgAABAgQIECBAgAABAgQIECBAgAABAgQIECBAgAABAgQIECBAgAABAgQIECBAgAABAgQIECBAgAABAgQIECBAgAABAgQIECBAgAABAgQIECBAgAABAgQIECBAgAABAgQIECBAgAABAgQIECBAgAABAgQIECBAgAABAgQIECBAgAABAhUTKCoWr3AJECBAgACBLgXKE2Pl9K64e6cdBxdFrCg6sXauiNb8tO0yOmUrbizLmGnNxY/GRuOqYlPs7HJJwwkQIECAAIEKCWgUVKhYQiVAgAABAksRmFoX9+4U8ajUDLh/agY8qCziAWn84elzzVLmSfvelD6vKMr4emoifC01Eb7RKuNfxrfFd5Y4j90JECBAgACBCghoFFSgSEIkQIAAAQKLEZg8Pu5ZtOOpad/HlRGPSf/edTHjutjnB+mNxGfS+E+Vc/E3ExfH5V3MZSgBAgQIECCQiYBGQSaFEAYBAgQIEFiOwPT6OLIT8Zw09mnp88jlzNHDMV9Nc/3fdA7Dn49tjfmvfRAgQIAAAQIVFNAoqGDRhEyAAAECzRa48bi40+hoHBtlHJeOHHhEjhrpDca/RxGX7NoV7117SVybY4xiIkCAAAECBPYsoFGwZxfPEiBAgACB7ASm1sd909EDp6ZrDjw/NQkmsgtwTwEVMZmuaXBROsrg/PGt8V972sVzBAgQIECAQF4CGgV51UM0BAgQIEDgdgLTJ6QLEXbinHT0wP9MG6v62p2upRj/p2jFq8c2x9dul6QnCBAgQIAAgWwEqvpmIxtAgRAgQIAAgX4JTJ6Y7lAwF+ek+Y9Ln3V5zU79jrgk2vHqiU1xRb/szEuAAAECBAgsX6AubzqWL2AkAQIECBDITKBcF2umIs5KrYFTU2hjmYXXq3Cm0+kT549HvLHYtvv2i72a1zwECBAgQIBAlwIaBV0CGk6AAAECBHolUG6M1tQV6eiBIt6U5rxLr+bNfJ4fpobBmeOHxyXFxkiXYPBBgAABAgQIDFtAo2DYFbA+AQIECBBIAjtPiEcXc3FBahL8YiNByvjXsh2nrNwc/9zI/CVNgAABAgQyEtAoyKgYQiFAgACB5gns3BCHFmW8JWX+nOZlv8eM/7yciVesvCSu2uNWTxIgQIAAAQJ9F9Ao6DuxBQgQIECAwO0FymNiYmq/eFk67P6MtHXl7fdo9DM705EVbx6/Id5WvD8mGy0heQIECBAgMAQBjYIhoFuSAAECBJotsHNd/G5RxLlJ4R7Nlthn9t8ry3R0wbZ43z73tAMBAgQIECDQMwGNgp5RmogAAQIECOxdYPsJ8dB2J96R9nrs3ve0dYHAp+dacdLqzfHFBc97SIAAAQIECPRBQKOgD6imJECAAAECtxa46QVx8MhMvD49tyF9eu29Nc7ivy7TaRqbZ0fj7DXviR8tfpg9CRAgQIAAgaUKeLOyVDH7EyBAgACBRQqk6xCMTu4XL0kXK3x1GrJ2kcPstneBG9PpCK+duCnema5fsGvvu9pKgAABAgQILEdAo2A5asYQIECAAIF9CEytj98qI85Lux2xj11tXp7At9KbmNPGt8ZHljfcKAIECBAgQOCOBDQK7kjG8wQIECBAYBkC0xviAZ1yd4PgN5Yx3JClC1zWasepY5viG0sfagQBAgQIECCwJwGNgj2peI4AAQIECCxR4PoXxgGju+I16YX1j9LQkSUOt3t3ArPp6I13Tc/FxgMujuu7m8poAgQIECBAQKPA9wABAgQIEOhCIF2HoD29X5yYzps/J01z5y6mMrR7gR+n60GcPXZTbE7XL5jrfjozECBAgACBZgpoFDSz7rImQIAAgR4ITK6LJ0QrLkxX4z+qB9OZolcCRXwlTXXSxJb4RK+mNA8BAgQIEGiSgEZBk6otVwIECBDoicDkhrhX+sv129Lh7s/syYQm6YtAepPzwbKIl6eGwXf7soBJCRAgQIBATQU0CmpaWGkRIECAQO8FyhfF6qnpOCvNfFr6HOv9Cmbsg8B0FPH28dF4U/Hu2N6H+U1JgAABAgRqJ6BRULuSSogAAQIEei2QjhwoptbF89IvnG9Oc9+11/ObbyACV6dTRM4c3xaXpjc/qaQ+CBAgQIAAgTsS0Ci4IxnPEyBAgACBJLBzQxydTjO4MH35KCC1EPh82YmTV14Un69FNpIgQIAAAQJ9ENAo6AOqKQkQIECg+gI7j4u7Fyt2H0Hw3OpnI4M9CFzaKeOMVdvi6j1s8xQBAgQIEGi0gEZBo8sveQIECBBYKFAeH+NTI/HS+cPU07ZVC7d7XCuBHanObxzvxHnFxTFVq8wkQ4AAAQIEuhDQKOgCz1ACBAgQqJdAOs3gd9JpBm9NWd2zXpnJZh8Cl5dlvGzltvjgPvazmQABAgQINEJAo6ARZZYkAQIECOxNYNe6eMhcK12HoIzH720/22ov8IlWESePbYkv1z5TCRIgQIAAgb0IaBTsBccmAgQIEKi3wE3Pj4NGinh9upvBhpRpq97Zym6RAp30/bBpdi5eveaiuGaRY+xGgAABAgRqJaBRUKtySoYAAQIEFiNQnhgrJufixelF8DVp//0WM8Y+zRJI3xvXp4sdvnZiJN5VbIqZZmUvWwIECBBouoBGQdO/A+RPgACBhglMrYunlEWcn9L+hYalLt3lCJTxjaKIU8e3xmXLGW4MAQIECBCoooBGQRWrJmYCBAgQWLJAahD8wk8bBE9Z8mADCER8tGilhsHm+BYMAgQIECBQdwGNgrpXWH4ECBBouMB1x8f+E+14dRnxkkQx0nAO6XcnMJPeOP3xWDvOSacj3NDdVEYTIECAAIF8BTQK8q2NyAgQIECgC4HymGhPr40NqUHwujTNQV1MZSiBhQLXpNMRXjV2aGwpNkZn4UaPCRAgQIBA1QU0CqpeQfETIECAwO0EJp8fjy/T7Q7Ti9xDbrfREwR6JJC+v76YGlEnT2yNT/VoStMQIECAAIEsBDQKsiiDIAgQIECgFwKTx8c903nkb03XIvidXsxnDgKLEijifTEbp09cHJcvan87ESBAgACBzAU0CjIvkPAIECBAYN8C5fNi1dRonJn2fGn6HN/3CHsQ6LnAVJTx1vGZeEtxaezo+ewmJECAAAECAxTQKBggtqUIECBAoLcC6bDvYmpDHJt+QXtLmvluvZ3dbASWIVDEVen78RXpdop/kd5kpW9RHwQIECBAoHoCGgXVq5mICRAgQCAJ7Fwfj0ovYu9IX/4SEAIZCny204qTV22Of80wNiERIECAAIG9CmgU7JXHRgIECBDITWDHurhbq4g3prj+ILfYxENggcD8EQWXzM3FGasvjh8u2OYhAQIECBDIVkCjINvSCIwAAQIEbi1QHh/jU+04NT13VvpcfettviaQucD2KOIN4xNxfvHHMZ15rMIjQIAAAQLpZcsHAQIECBDIXGDnhnhmUcbbUpj3yjxU4RHYm8B3OumCm6u2xl/tbSfbCBAgQIDAsAU0CoZdAesTIECAwB0KTG+IB3fKuCDt8IQ73MkGAtUT+HhrLk4duzi+Ur3QRUyAAAECTRDQKGhCleVIgACBignceGLceUUnXpeuGX9CCr1dsfCFS2AxAnPpAgZ/OjsTr157SVy7mAH2IUCAAAECgxLQKBiUtHUIECBAYJ8C5cYYmb4y/ijtuDH9ErX/PgfYgUDFBdIbsevSiaAbxw6NdxcbY7bi6QifAAECBGoioFFQk0JKgwABAlUXmDohnlzOpdMMirh/1XMRP4FlCPxnug7HqePb4u+WMdYQAgQIECDQUwGNgp5ymowAAQIEliqQGgRHlJ04L437raWOtT+BugmkI2n+byvitPGt8V91y00+BAgQIFAdAY2C6tRKpAQIEKiVQHli7Dc9G2eXRZyUEltRq+QkQ6A7gZmiiAvGJuP1xXvjxu6mMpoAAQIECCxdQKNg6WZGECBAgEAXAuk6BK2pK2L9/H3l0zQHdTGVoQTqLVDGj1KCZ40fHhel6xekOyv6IECAAAECgxHQKBiMs1UIECBAIAlMro/HpReeC9Lh1Q8DQoDA4gTS0QX/kU7POXliW3xmcSPsRYAAAQIEuhPQKOjOz2gCBAgQWIRAahDcIx1BcG663eHvLmJ3uxAgsGeB/51uFnr6xKa4Ys+bPUuAAAECBHojoFHQG0ezECBAgMAeBNJ1CFZOzcYZqUnw8rR5fA+7eIoAgaUIFDGZdj93vBXnFpti51KG2pcAAQIECCxWQKNgsVL2I0CAAIFFC6RTC4qp9fH7Pz2K4O6LHmhHAgQWK3Bl+n/2iomt8ZfpzVz60gcBAgQIEOidgEZB7yzNRIAAAQJJYMe6eGSriHekL38ZCAECfRf4p04nTlp1UfxH31eyAAECBAg0RkCjoDGlligBAgT6K7D9+LhLux1vSqv8Qfr0+tJfbrMTuLXA/BEFF80VcdbqLfHft97gawIECBAgsBwBb+SWo2YMAQIECPxMoHxJjE3ujFPSC8qr0pOrf7bBFwQIDFrgptQxeP3EjXFB8f7YNejFrUeAAAEC9RHQKKhPLWVCgACBgQvsWB+/3Yp4e1r43gNf3IIECNyRwH8VZbx0fFv89R3t4HkCBAgQILA3AY2CvenYRoAAAQJ7FJg+Po7qtOP8tPGJe9zBkwQI5CDwd61WnDa2Ob6WQzBiIECAAIHqCGgUVKdWIiVAgMDQBW5YHweuiHhdevH4wxRMe+gBCYAAgX0JzJVFvHumjI37bY2f7Gtn2wkQIECAwLyARoHvAwIECBDYp0C5MUamr4gXpleN16ZzoA/Y5wA7ECCQm8BP0pu+s8cOi03FxpjNLTjxECBAgEBeAhoFedVDNAQIEMhOYGpdPCn9RXL+NIMHZhecgAgQWKrAV9OAUya2xseXOtD+BAgQINAcAY2C5tRapgQIEFiSwNT6uG8n4rz0QvG0JQ20MwEC2QukI4M+3CrjtHTBw+9kH6wACRAgQGDgAhoFAye3IAECBPIWKI+NtdMT8aqyjFNSpOmSBD4IEKipwK70RvD8sTLeUGyLm2qao7QIECBAYBkCGgXLQDOEAAECdRRI1yFoTV0Zx0cZb0rXIji4jjnKiQCBPQr8MP2/P3P88LgkXb8gHUjkgwABAgSaLqBR0PTvAPkTIEAgCUyui8cUrbgwHUXwcCAECDRUoIx/LdtxysrN8c8NFZA2AQIECPxUQKPAtwIBAgQaLDB5Yhwec/GWRPDsBjNInQCB2wr8ebqA6ekrt8T3b/u0RwQIECDQFAGNgqZUWp4ECBC4lUB5Yqyc6sQr0lOvSIccT9xqky8JECAwL7AznYL05vEb4m3F+2MSCQECBAg0S0CjoFn1li0BAg0XSFc6LybXx++lH/7nJorDGs4hfQIE9i3wvXRK0itWbov37XtXexAgQIBAXQQ0CupSSXkQIEBgHwI7nh8Pb7XiHWm3X9nHrjYTIEBgocCn51px0urN8cWFGzwmQIAAgfoJaBTUr6YyIkCAwG0Etm+IQ9plvDE9+fz06ef+bXQ8IEBgCQLpoKTYMrsiXrXmPfGjJYyzKwECBAhUTMAbxooVTLgECBBYrEB5TIxOro1T0g/6V6UxaxY7zn4ECBDYh8CN6XSE107cFO9M1y/YtY99bSZAgACBCgpoFFSwaEImQIDAvgSm1sXT01XLz0v73Wdf+9pOgACBZQp8K72RPG18a3xkmeMNI0CAAIFMBTQKMi2MsAgQILAcgekT4kGdTpyfxv76csYbQ4AAgWUIXNYq4rSxLfH1ZYw1hAABAgQyFNAoyLAoQiJAgMBSBW5YHweuKGJjUcaL0tj2UsfbnwABAl0KzKYLGLxrei42HnBxXN/lXIYTIECAwJAFNAqGXADLEyBAoBuBcmOMTH8//jCdL3xOmufAbuYylgABAj0Q+HFqWJ49dlNsTtcvmOvBfKYgQIAAgSEIaBQMAd2SBAgQ6IVAug7Br6XrEMyfZnBkL+YzBwECBHomUMRX0lwnTWyJT/RsThMRIECAwMAENAoGRm0hAgQI9EZg6sS4T2cu3p5+gD+jNzOahQABAv0RSD+nPpQami9LDYPv9mcFsxIgQIBAPwQ0Cvqhak4CBAj0QaBcF2umi3hlOg/41DT9aB+WMCUBAgT6ITAdRbx9fDTeVLw7tvdjAXMSIECAQG8FNAp662k2AgQI9FwgXYegNXVFHJfeaL85TX5IzxcwIQECBAYjcHWUceb4trg0vQFNPU8fBAgQIJCrgEZBrpURFwECBJLAzhPi0UUnLkxfPhIIAQIEaiLw+XQ6wikrt8TnapKPNAgQIFA7AY2C2pVUQgQI1EFg54Y4NDUIzk1HEfx+HfKRAwECBPYgcGmnjDNWbYur97DNUwQIECAwRAGNgiHiW5oAAQILBcpjYmJqbbw8NQjOSAfmTizc7jEBAgRqJrAj/ax743gnzisujqma5SYdAgQIVFZAo6CypRM4AQJ1E0hHEfxeuv/4W1Je96hbbvIhQIDAPgQuL8t42cpt8cF97GczAQIECAxAQKNgAMiWIECAwN4EdqyPh7Vi93UIHru3/WwjQIBA7QWK+GT6eXjS2Jb4cu1zlSABAgQyFtAoyLg4QiNAoN4CN70gDh6ZiTekLNenTz+P611u2REgsHiBTvqJuGl2Ll695qK4ZvHD7EmAAAECvRLwxrRXkuYhQIDAIgXSdQhGJ9fGSekH8NlpyNpFDrMbAQIEGiWQfkZeny52+NqJkXhXsSlmGpW8ZAkQIDBkAY2CIRfA8gQINEtg6oR4apku2pWyvl+zMpctAQIElilQxjfSG9bTxrfF3y5zBsMIECBAYIkCGgVLBLM7AQIEliMwvSEe0OnE+elw2icvZ7wxBAgQIBAfLVpx6vjm+BYLAgQIEOivgEZBf33NToBAwwWuf2EcMLorXpN+2L44UbQbziF9AgQIdCswk36e/vFYO85JpyPc0O1kxhMgQIDAngU0Cvbs4lkCBAh0JVBujJHp78cJ6XZfr0sT3amryQwmQIAAgYUC1xRFvGrs0NhSbIzOwo0eEyBAgEB3AhoF3fkZTYAAgdsJTG6I/5GevCDKOOp2Gz1BgAABAj0TKCO+lN7MnjSxNT7Vs0lNRIAAAQJux+V7gAABAr0S2Pn8OKzVigvSG9dn9mpO8xAgQIDAIgSKeF/62fvSlVvi+4vY2y4ECBAgsA8BRxTsA8hmAgQI7Etg/jSDySvS7Q6LOCftu2pf+9tOgAABAn0RuGn36Qg3pNspvj/m+rKCSQkQINAQAY2ChhRamgQI9Edgen0cmf6KdUn6fFh/VjArAQIECCxFIDUL/qOYi+eNXRT/uZRx9iVAgACBnwu0fv6lrwgQIEBgsQKpMVBMrY8XpSto/ZsmwWLV7EeAAIH+C6SLyD6804p/n/8ZPf+zuv8rWoEAAQL1E/DDs341lREBAn0WuO742D/dmuuS9AP0aX1eyvQECBAg0IVAahT89a7ROH7/P4nrupjGUAIECDROQKOgcSWXMAEC3QhMrYtfKIv46zTHEd3MYywBAgQIDEzgW612PGNsU3xjYCtaiAABAhUXcOpBxQsofAIEBieQmgRPSk2Cz6cVNQkGx24lAgQIdCtwRGcuPjd1Qjy524mMJ0CAQFMENAqaUml5EiDQlcDkujg2NQk+kibZr6uJDCZAgACBYQjsV3bio5Mb4rnDWNyaBAgQqJqARkHVKiZeAgQGLjC1IV6YLod1SVp4ZOCLW5AAAQIEeiXQijIunb/IYa8mNA8BAgTqKqBRUNfKyosAgZ4I7Fwfp6YraL87TebnZU9ETUKAAIHhCqQLHL4r/Wx/xXCjsDoBAgTyFnAxw7zrIzoCBIYoMLk+1qXltw4xBEsTIECAQJ8EiiL+cHxLbOrT9KYlQIBApQU0CipdPsETINAvgZ3r4lnpTeT70vyOJOgXsnkJECAwXIFOuvbMc1Zuib8cbhhWJ0CAQH4CGgX51UREBAgMWWDnhji6KOOTKYzRIYdieQIECBDor8BMugbNEye2xKf7u4zZCRAgUC0BjYJq1Uu0BAj0WWDncXH3YkX8W1rmLn1eyvQECBAgkINAGT9KzYJHTWyN7+UQjhgIECCQg4BDanOoghgIEMhCoDw+xlOT4K9SMJoEWVREEAQIEBiAQBEHp7+c/VV5YqwcwGqWIECAQCUENAoqUSZBEiAwCIHJVrwtrfPIQaxlDQIECBDIRyDdCeGhU3NxQT4RiYQAAQLDFXDqwXD9rU6AQCYC6b7av5XeKP5NJuEIgwABAgSGIJAubvisdHHDDw1haUsSIEAgKwGNgqzKIRgCBIYhsH1DHNIu4ytp7YOGsb41CRAgQCAPgfTG+LrOTBy18pK4Ko+IREGAAIHhCDj1YDjuViVAICOB1CSYP9xUkyCjmgiFAAECwxBIR5YdECviXcNY25oECBDIScARBTlVQywECAxcYGpdPCkdavqxgS9sQQIECBDIVqBVxG+PbYkPZxugwAgQINBnAY2CPgObngCBfAXm73Iw1Y6vpQjvnW+UIiNAgACBIQhcOb4rHlBcGjuGsLYlCRAgMHQBpx4MvQQCIEBgWALpLgcvSWtrEgyrANYlQIBAvgKHTa2Il+UbnsgIECDQXwFHFPTX1+wECGQqcN3xsf9EO76z+3zUTGMUFgECBAgMVWDHbCfuteaiuGaoUVicAAECQxBwRMEQ0C1JgMDwBcZbcbomwfDrIAICBAhkLLCq3Y6zM45PaAQIEOibgCMK+kZrYgIEchW4YX0cOBpxRYpvVa4xiosAAQIEshDYNTcX91h9cfwwi2gEQYAAgQEJOKJgQNCWIUAgH4HRIl6YotEkyKckIiFAgECuAqPpqIKTcg1OXAQIEOiXgCMK+iVrXgIEshQoXxJjUzvjeym4Q7IMUFAECBAgkJVAerN8/dhYHFa8O7ZnFZhgCBAg0EcBRxT0EdfUBAjkJ5CaBM9OUWkS5FcaEREgQCBLgXQ9m/2nd8UfZBmcoAgQINAnAY2CPsGalgCBTAWKeH6mkQmLAAECBHIVKL125FoacREg0B8Bpx70x9WsBAhkKDC1Lu5dFvHtDEMTEgECBAhkLtAq4iFjW+LLmYcpPAIECPREwBEFPWE0CQECVRBITQKHjlahUGIkQIBAhgJl6TUkw7IIiQCBPgloFPQJ1rQECGQp8KwsoxIUAQIECGQvkK5V8DvZBylAAgQI9EhAo6BHkKYhQCBvgckNca8U4YPyjlJ0BAgQIJCxwOG71sVDMo5PaAQIEOiZwEjPZjIRAQIEMhYoO/GMwlVZMq5QD0MbGY1i/7tHsTbd3GLtwVGsOvDmycdWR9G++WWv3Hn9zc/t2hnljp9EpM/yhh9Gef3VPQwk86laI1EckJzWHByx+k5RrL5zxLzPyFgUoxO7gy9npiLmPztzP3fafm2U134vYnY68wSFR6D3AnNFPCPN+qXez2xGAgQI5CWgUZBXPURDgECfBFKP4Df6NLVphyxQHHK/aB35lGjd7zHRuvuRURxyRESrvbyo0i/F5TXfjs4VX4zOt/85Ol//eJQ//Oby5sppVOqSte7xiGgd8fgo7vsr0brbA6M46N6pMbBieVGmk7XL676fbL4Rne98Ljrf+nR0vvmJiLmZ5c1nFIGqCJTx5BTqOVUJV5wECBBYroC/ry1XzjgCBCojUB4T7am1kf5sHGsrE7RA9y6Q/uLd/uXjYuQJfxTFoUftfd8ut5ZXfilmP7U55j69Of0VfVeXsw12eLHfXaP9xJdE++hjozjw8P4uPnljzP3b+2P2snOj/O9v9XctsxMYnsDM+I2xX/H+mBxeCFYmQIBA/wU0CvpvbAUCBIYssP2EeGi7E18YchiW75FA6yFPixXHvrP/v/guiLf8yZUx8+cvjs4X/3rBlgwfpiMFRp52dow8+eURK8YHG2A62mDuH94ZMx88IyKd2uGDQO0EOvGrExfFJ2uXl4QIECBwKwEXM7wVhi8JEKinwEgZv1LPzBqWVTp8fuR33xajL/nrgTcJ5qWLAw+L0Rd/OEaecnrW8MWag2L0jM/EyFPPHnyTYDdUsfsohrEz/zld/+CgrK0ER2BZAu14zLLGGUSAAIEKCWgUVKhYQiVAYHkC6Q+cD13eSKNyEhj5n2+IkSe9dOghjTzrzdF+7Iahx7HHANIpGaMv/f+ida9H7XHzIJ8sDntIrHjhB5Z/vYhBBmstAksQKDpeU5bAZVcCBCoqoFFQ0cIJmwCBJQiU8cAl7G3XDAVa9/8fMfKbZ2YT2Ypnnz+Uoxr2BbDimLemazY8eF+7DWx764jHRfvxLxjYehYiMAiBsvCaMghnaxAgMFwBjYLh+ludAIFBCBTxoEEsY40+CRStWPHsC/o0+TKnTbdaHHnqq5Y5uD/DioPvm+Uv5btP1VjuXSj6Q2VWAt0KHFGeGMu8ZUi3SxtPgACBwQhoFAzG2SoECAxJYPuGOCQtvd+QlrdsDwRaD/y1vt/ZYDlhto9+bsREPt9aI088KcvD/Oev7TB/60ofBGokMDI9G/euUT5SIUCAwO0ENApuR+IJAgTqJFDMxd3rlE8Tc5m/DWKWH/O3aHzgr2cTWusRz8omloWBtB74pIVPeUyg0gJly2tLpQsoeAIE9imgUbBPIjsQIFBlgXY77lLl+MWe/kiejijI9aP1oDwaBfOnHRT73y1Xpmgd7nqi2RZHYMsTKL22LA/OKAIEqiKgUVCVSomTAIHlChy63IHGDV+gOOg+UaydP3skz4/isDx+AW5lEscdVak4yFHad2Tj+WoKlBFeW6pZOlETILBIAY2CRULZjQCBagp0OrG6mpGLel6guFveN6xoZRJfcfB9sv6GKfa7a9bxCY7AUgWKiLVLHWN/AgQIVElAo6BK1RIrAQJLFkgXzPdmbslq+QxoZf4LcKS7H+RwQcPsfxHP6KKP+Xx3i6TKAumIAk3oKhdQ7AQI7FNAo2CfRHYgQKDSAmWMVDr+pgef8WkHt5Qmi2sDrDzglnCy/bdYuX+2sQmMwFIFiiLGljrG/gQIEKiSgEZBlaolVgIElizgrz5LJstqQLH6oKzi2VMwRQa/pBcr87lN456MPEegdgJlTNQuJwkRIEDgVgIaBbfC8CUBAgQIZCYwtiqzgPYQzviaPTzpKQIECBAgQIBAdQU0CqpbO5ETIECg9gLFaP5/tKtCjLX/RpEgAQIECBAg0FMBjYKecpqMAAECBAgMQWC0AkdeDIHFkgQIECBAgMDyBDQKludmFAECBAgMQmD+rgK5f4yMDj/C9orhxyACAgQIECBAoDYCGgW1KaVECBAgUEOBVgVuWjG6sobwUiJAgAABAgSaLKBR0OTqy50AAQIECBAgQIAAAQIECCwQ0ChYAOIhAQIECBAgQIAAAQIECBBosoBGQZOrL3cCBAgQIECAAAECBAgQILBAQKNgAYiHBAgQIECAAAECBAgQIECgyQIaBU2uvtwJECBAgAABAgQIECBAgMACAY2CBSAeEiBAgAABAgQIECBAgACBJgtoFDS5+nInQIAAAQIECBAgQIAAAQILBDQKFoB4SIAAAQIECBAgQIAAAQIEmiygUdDk6sudAAECBAgQIECAAAECBAgsENAoWADiIQECBAgQIECAAAECBAgQaLKARkGTqy93AgQIECBAgAABAgQIECCwQECjYAGIhwQIECBAgAABAgQIECBAoMkCGgVNrr7cCRAgQIAAAQIECBAgQIDAAgGNggUgHhIgQIAAAQIECBAgQIAAgSYLaBQ0ufpyJ0CAAAECBAgQIECAAAECCwQ0ChaAeEiAAAECBAgQIECAAAECBJosoFHQ5OrLnQABAgQIECBAgAABAgQILBDQKFgA4iEBAgQIECBAgAABAgQIEGiygEZBk6svdwIECBAgQIAAAQIECBAgsEBAo2ABiIcECBAgQIAAAQIECBAgQKDJAhoFTa6+3AkQIECAAAECBAgQIECAwAIBjYIFIB4SIECAAAECBAgQIECAAIEmC2gUNLn6cidAgAABAgQIECBAgAABAgsENAoWgHhIgAABAgQIECBAgAABAgSaLKBR0OTqy50AAQIECBAgQIAAAQIECCwQ0ChYAOIhAQIECBAgQIAAAQIECBBosoBGQZOrL3cCBAgQIECAAAECBAgQILBAQKNgAYiHBAgQIECAAAECBAgQIECgyQIaBU2uvtwJECBAgAABAgQIECBAgMACAY2CBSAeEiBAgAABAgQIECBAgACBJgtoFDS5+nInQIAAAQIECBAgQIAAAQILBDQKFoB4SIAAAQIECBAgQIAAAQIEmiygUdDk6sudAAECBAgQIECAAAECBAgsENAoWADiIQECBAgQIECAAAECBAgQaLKARkGTqy93AgQIECBAgAABAgQIECCwQECjYAGIhwQIECBAgAABAgQIECBAoMkCGgVNrr7cCRAgQIAAAQIECBAgQIDAAgGNggUgHhIgQIAAAQIECBAgQIAAgSYLaBQ0ufpyJ0CAAAECBAgQIECAAAECCwQ0ChaAeEiAAAECBAgQIECAAAECBJosoFHQ5OrLnQABAgQIECBAgAABAgQILBDQKFgA4iEBAgQIECBAgAABAgQIEGiygEZBk6svdwIECBAgQIAAAQIECBAgsEBAo2ABiIcECBAgQKByAiMr8g95fG3+MYqQAAECBAgQ2C2gUeAbgQABAgQIVFygGF2VfwYtbznyL5IICRAgQIDAzQJetX0nECBAgACBbgRWTHQz2lgCBAgQIECAQHYCGgXZlURABAgQIFAlgWIsg7/mTzisv0rfM2IlQIAAAQK5C2gU5F4h8REgQIBA3gJjq4ceX7H2kKHHsM8ARsb3uYsdCBAgQIAAgTwENAryqIMoCBAgQKCiAsWaOw838on9IkZXDjeGRaxejA+/obKIMO1CgAABAgQIJAGNAt8GBAgQIECgC4HigMO6GN390NbB9+1+kkHMML5mEKtYgwABAgQIEOiBgEZBDxBNQYAAAQLNFSgOPWqoyRf3fORQ11/s4sWagxe7q/0IECBAgACBIQtoFAy5AJYnQIAAgWoLFHe+VxQHHj60JFr3f8LQ1l7KwsXB91nK7vYlQIAAAQIEhiigUTBEfEsTIECAQD0E2r/0nOEkkg7nbz/4qcNZe4mrFvd4xBJH2J0AAQIECBAYloBGwbDkrUuAAAECtRFoP+nUiCGcgz/yxJMicrg94yIq2X7Ar0WMjC1iT7sQIECAAAECwxbQKBh2BaxPgAABApUXmD//fsVz/2SgeRR3PzJGfvPMga7Z1WITa6P96D/oagqDCRAgQIAAgcEIaBQMxtkqBAgQIFBzgfbRx8aK4/40or2i75nONwlGT7msMkcT3AIy8sw3RnGne9zy0L8ECBAgQIBApgIaBZkWRlgECBAgUD2B9uNOjLGz/z1aD0yH2RdFzxMoVu4fI09/TYy98l+iOODuPZ+/3xMWq+8Uo6d/Klr3elS/lzI/AQIECBAg0IXASBdjDSVAgAABAgQWCMzfLnH0tL+P8gdfj7l//0B0vvqx6Fz5pYjp7Qv2XMTDdHRCccgRu3+xbj3oSdF+6DMiRicWMTDfXebvEDF61udi7osfjs5nL43ONz8R5Y6f5BuwyAgQIECAQAMFNAoaWHQpEyBAgED/BYq7PiBGnnp2xPxnWUZ57eVRXn/17s/YtTNi8obdz/8skpHRdCrB6ijSufyRrnlQ7HeXdNTAoQM5leFnMQzqi3S0Rfthv737c7fNdVdG+aNvR3nTNRE7ro2Y3bU7krLsJKcbbx/VfNOlM3ub58ud19/8eGY6Ymby5vG3GM+m53bd6rko0z4371dO74iYm7nNXB4QIECAAIGmC2gUNP07QP4ECBAg0H+B9Itxced77f7s/2IVW2HeJh1lMP851I/UkCjnmw9TN6VGxc2NhXK+oTPftJhK2+bmt6Wmxfzj9PxttnXmbm78zDccUuOhnG9KpHl2Hylx439HufO6oaZmcQIECBAgsFQBjYKlitmfAAECBAgQqJ9AOpJj91UlVh34s9x6dZWJ+YZBedVXo/Ptz0bnyx+Jzn/9UzqaJB0t4YMAAQIECGQqoFGQaWGERYAAAQIECNRDoEjNh+KIx0UrfcZTTo/yx9+N2Y++OeY+szWdQpGORvBBgAABAgQyE3DXg8wKIhwCBAgQIECg3gLzp6HM30pz9IzP7L4WRb2zlR0BAgQIVFFAo6CKVRMzAQIECBAgUHmB1r2PTreL/HTM3zbSBwECBAgQyElAoyCnaoiFAAECBAgQaJRAcfB9Y8Xx2xqVs2QJECBAIH8BjYL8ayRCAgQIECBAoMYCrYc+PVr3e2yNM5QaAQIECFRNQKOgahUTLwECBAgQIFA7gfYTXlS7nCREgAABAtUV0Ciobu1EToAAAQIECNREoH3Ub0a03IyqJuWUBgECBCovoFFQ+RJKgAABAgQIEKi8wMTaKO72wMqnIQECBAgQqIeARkE96igLAgQIECBAoOICrbvev+IZCJ8AAQIE6iKgUVCXSsqDAAECBAgQqLRAceDhlY5f8AQIECBQHwGNgvrUUiYECBAgQIBAlQVWHlDl6MVOgAABAjUS0CioUTGlQoAAAQIECFRXoBhbVd3gRU6AAAECtRLQKKhVOSVDgAABAgQIECBAgAABAgS6E9Ao6M7PaAIECBAgQIAAAQIECBAgUCsBjYJalVMyBAgQIECAAAECBAgQIECgOwGNgu78jCZAgAABAgQIECBAgAABArUS0CioVTklQ4AAAQIECBAgQIAAAQIEuhPQKOjOz2gCBAgQIECAAAECBAgQIFArAY2CWpVTMgQIECBAgEBVBcrpHVUNXdwECBAgUDMBjYKaFVQ6BAgQIECAQEUF5mYqGriwCRAgQKBuAhoFdauofAgQIECAAAECBAgQIECAQBcCGgVd4BlKgAABAgQIECBAgAABAgTqJqBRULeKyocAAQIECBAgQIAAAQIECHQhoFHQBZ6hBAgQIECAAIGeCYyt6tlUJiJAgAABAt0IaBR0o2csAQIECBAgQKBHAkV7RY9mMg0BAgQIEOhOQKOgOz+jCRAgQIAAAQIECBAgQIBArQQ0CmpVTskQIECAAAECBAgQIECAAIHuBDQKuvMzmgABAgQIECBAgAABAgQI1EpAo6BW5ZQMAQIECBAgQIAAAQIECBDoTkCjoDs/owkQIECAAAECBAgQIECAQK0ENApqVU7JECBAgAABAgQIECBAgACB7gQ0CrrzM5oAAQIECBAgQIAAAQIECNRKQKOgVuWUDAECBAgQIECAAAECBAgQ6E5Ao6A7P6MJECBAgAABAr0RaLV7M49ZCBAgQIBAlwIaBV0CGk6AAAECBAgQ6InA+JqeTGMSAgQIECDQrYBGQbeCxhMgQIAAAQIECBAgQIAAgRoJaBTUqJhSIUCAAAECBAgQIECAAAEC3QpoFHQraDwBAgQIECBAgAABAgQIEKiRgEZBjYopFQIECBAgQIAAAQIECBAg0K2ARkG3gsYTIECAAAECBAgQIECAAIEaCWgU1KiYUiFAgAABAgQIECBAgAABAt0KjHQ7gfEECBAgQIAAga4Eyk6UV301ymu/F5G+XvLHxP5R3P3IKFbfaclDsxpQ+PtNVvUQDAECBBosoFHQ4OJLnQABAgQIDFOg/MHXY/ayt0bnC/8nyp3XdxdK+iW7da9fjPavvjDaRx8b0areW5xiYm13BkYTIECAAIEeCVTvVbRHiZuGAAECBAgQGJLA7K6Y/eDpMfvxP47ozPUmiHQkQuc7n9/9Ofuxt8Xohj+L4rCH9GZusxAgQIAAgYYJOMatYQWXLgECBAgQGKrA9I7Ydf6TYvbvL+hdk2BBQvOnMUy/6dHR+eplC7Z4SIAAAQIECCxGQKNgMUr2IUCAAAECBHoisOtPfy863/xkT+ba6yS7dsaudz8rOt/7j73uZiMBAgQIECBwewGNgtubeIYAAQIECBDog8DcP74rOl/+SB9mvoMpU7NgZnO6XsHczB3s4GkCBAgQIEBgTwIaBXtS8RwBAgQIECDQW4H0S/vshzf2ds5FzFb+8Bsx95lti9jTLgQIECBAgMAtAhoFt0j4lwABAgQIEOibwNy/fSDK7T/u2/x7m3j2E3+yt822ESBAgAABAgsENAoWgHhIgAABAgQI9F6g85UBnnKwIPzyyi9Fef3VC57N8GG6xaMPAgQIECCQg4BXpByqIAYCBAgQIFBzgc6VXx5qhvPNguw/xtdmH6IACRAgQKAZAhoFzaizLAkQIECAwHAFbvrRUNcvh7z+UJO3OAECBAgQWKKARsESwexOgAABAgQILEOg7CxjkCEECBAgQIDAMAQ0Coahbk0CBAgQIECAAAECBAgQIJCpgEZBpoURFgECBAgQINBDgVa7h5OZigABAgQI1FtAo6De9ZUdAQIECBAgkASK8TUcCBAgQIAAgUUKaBQsEspuBAgQIECAAAECBAgQIECgCQIaBU2oshwJECBAgAABAgQIECBAgMAiBTQKFgllNwIECBAgQIAAAQIECBAg0AQBjYImVFmOBAgQIECg6QIT+zVdQP4ECBAgQGDRAhoFi6ayIwECBAgQIFBdgSL/0FeM5R+jCAkQIECgEQIaBY0osyQJECBAgACB3AWKFRO5hyg+AgQIEGiIgEZBQwotTQIECBAgQIAAAQIECBAgsBgBjYLFKNmHAAECBAgQqLbA2Kpqxy96AgQIECAwQAGNggFiW4oAAQIECDRWYGz1UFMvRlcOdX2LEyBAgACBKgloFFSpWmIlQIAAAQIVFSgOvs/wIm+1ozjo3sNb38oECBAgQKBiAhoFFSuYcAkQIECAQBUFWvd73NDCbt3zkRErxoe2voUJECBAgEDVBDQKqlYx8RIgQIAAgQoKtI9+TkQxnFsUtn/5eRUUEzIBAgQIEBiegEbB8OytTIAAAQIEGiNQ3OX+0X74swaeb7HfXaP96OMHvq4FCRAgQIBAlQU0CqpcPbETIECAAIEKCYw8+/woVh040IhXPO9PItzxYKDmFiNAgACB6gtoFFS/hjIgQIAAAQKVECgOODRWvOiDEaMTA4l35Okbo/XQZwxkLYsQIECAAIE6CWgU1KmaciFAgAABApkLtH7hV2P01I9Fsd9d+hdpayRW/P6FMfL01/RvDTMTIECAAIEaC2gU1Li4UiNAgAABAjkKtO732Bh97Vej/YQXRYyM9jTE1pG/EWNn/1u0n3hST+c1GQECBAgQaJLASJOSlSsBAgQIECCQh0Cx+k6x4th3xcgzzonOFz8cnW9/NsprvxcxN7O0ANOdFOYvWFgc9tBoP+wZURxyxNLG25sAAQIECBC4nYBGwe1IPEGAAAECBAgMSmC+YdB+zLrdn4Na0zoECBAgQIDA3gWcerB3H1sJECBAgAABAgQIECBAgECjBDQKGlVuyRIgQIAAAQIECBAgQIAAgb0LaBTs3cdWAgQIECBAgMBgBNL1FnwQIECAAIEcBDQKcqiCGAgQIECAAAECE/sxIECAAAECWQhoFGRRBkEQIECAAAECBAgQIECAAIE8BDQK8qiDKAgQIECAAAECBAgQIECAQBYCGgVZlEEQBAgQIECAAAECBAgQIEAgDwGNgjzqIAoCBAgQIECAAAECBAgQIJCFgEZBFmUQBAECBAgQINB4gc5c4wkAECBAgEAeAhoFedRBFAQIECBAgEDTBaZuarqA/AkQIEAgEwGNgkwKIQwCBAgQIECAAAECBAgQIJCDgEZBDlUQAwECBAgQIECAAAECBAgQyERAoyCTQgiDAAECBAgQIECAAAECBAjkIKBRkEMVxECAAAECBAgQIECAAAECBDIR0CjIpBDCIECAAAECBAgQIECAAAECOQhoFORQBTEQIECAAAECBAgQIECAAIFMBDQKMimEMAgQIECAAIFmC5Sd2WYDyJ4AAQIEshHQKMimFAIhQIAAAQIEGi0wtb3R6UueAAECBPIR0CjI/perKAAAKwtJREFUpxYiIUCAAAECBAgQIECAAAECQxfQKBh6CQRAgAABAgQIEEgCs1MYCBAgQIBAFgIaBVmUQRAECBAgQIBA4wVmNAoa/z0AgAABApkIaBRkUghhECBAgAABAs0WKGemmw0gewIECBDIRkCjIJtSCIQAAQIECBBotMDMZKPTlzwBAgQI5COgUZBPLURCgAABAgQINFlgbqbJ2cudAAECBDIS0CjIqBhCIUCAAAECBBosML2jwclLnQABAgRyEtAoyKkaYiFAgAABAgQaK1BqFDS29hInQIBAbgIaBblVRDwECBAg8HOBuV0//9pXBOousOMndc9QfgQIECBQEQGNgooUSpgECBBopMCunY1MW9LNFCh3XtfMxGVNgAABAtkJaBRkVxIBESBAgMAtAqX7yt9C4d8GCJTbf9yALKVIgAABAlUQ0CioQpXESIAAgaYKTN3U1Mzl3USBHY4oaGLZ5UyAAIEcBTQKcqyKmAgQ6JlAEbG9Z5OZaOACpXO2B25uweEJlDf+cHiLW3mpAlNLHWB/AgQIVElAo6BK1RIrAQJLFyhidumDjMhFoLzu+7mEIg4CfRcof3Jl39ewQG8EygiNgt5QmoUAgUwFNAoyLYywCBDojUBZxg29mcksQxHQKBgKu0UHL1Bef3WEa3IMHn6ZKxZF7FjmUMMIECBQCQGNgkqUSZAECCxXIJ164CT35eJlMK5z1dcyiEIIBPovUF79n/1fxAo9E0hN6Bt7NpmJCBAgkKGARkGGRRESAQK9EyjKuKp3s5lp0ALlj/4rYtof7gbtbr3BC3S+9++DX9SKyxZIRxR4bVm2noEECFRBQKOgClUSIwECyxaYbccPlj3YwOELlJ3ofPMTw49DBAT6LND5/z/d5xVM30uBohOuPNlLUHMRIJCdgEZBdiUREAECvRQoZ/3Vp5eew5hr7isfHcay1iQwOIHJG6Pz9Y8Pbj0rdS1QjIQrrXataAICBHIW0CjIuTpiI0Cga4E1F8U16ToFbk7eteTwJpj73Hsjdu0cXgBWJtBngbnPp+9xFzLss3JPp58bvS6+09MZTUaAAIHMBDQKMiuIcAgQ6L1Auo3VV3s/qxkHJjB5Q8x+/I8HtpyFCAxUYHZXzH70zQNd0mJdC3yreH/s6noWExAgQCBjAY2CjIsjNAIEeibgcuI9oxzORLN/8/rYfWHD4SxvVQJ9E5j90JlR/uSKvs1v4t4LpIvkuh1L71nNSIBAZgIaBZkVRDgECPReIF2d+ku9n9WMAxWY3h673vG0KG+6ZqDLWoxAPwXmPvGemP378/u5hLn7IFC24st9mNaUBAgQyEpAoyCrcgiGAIF+CBSz8Zl+zGvOwQqUP/xG7HrDL0Xnii8MdmGrEei1wK7JmPmLk2PmvS+KKNPJUT6qJdDxmlKtgomWAIHlCKRrfPkgQIBAvQXKjdGavjKuTW/H9693pg3JrtWO9mM3xMivnxLFXe7fkKSlWQuBdHeDuX+6KGb/7jynG1S3oLPj7div2BSusFrdGoqcAIFFCGgULALJLgQIVF9gcn38Tcrit6qfiQx+JpDOKWnd65eideRvROt+j4ni0AdHseagn232BYGhC6QLcXa+/+XofOfzu29/2PnGP0bMTg89LAF0JfD5ia1xdFczGEyAAIEKCIxUIEYhEiBAoGuB1BW9LB1RoFHQtWRGE6RDtjvf+dzuz1uiKlbfKR03crcoDjg0ivG1ERNroxhbdfPmoh0xvuaWXf1LoHuBqZvSqQNzu+cpp9MfmCevj3JHuhtrupZGee3lUe68vvs1zJCXQBGX5RWQaAgQINAfAUcU9MfVrAQIZCYweWIcHnPxvczCEg4BAgQIVEig04lHrLoo/qNCIQuVAAECyxLQKFgWm0EECFRRYGp9fCEdVfDQKsYuZgIECBAYusD3x7fG4enNc3op8UGAAIF6C7jrQb3rKzsCBG4lUBbxgVs99CUBAgQIEFi0QDrb6UOaBIvmsiMBAhUX0CioeAGFT4DAEgRacWna21+ClkBmVwIECBC4WSA1my9mQYAAgaYIaBQ0pdLyJEAgJjbFFVHEx1EQIECAAIGlCKQO85dWbY0vLGWMfQkQIFBlAY2CKldP7AQILFkgHTq6dcmDDCBAgACBRgu0itjWaADJEyDQOAGNgsaVXMIEmi0wcWN8KAl8v9kKsidAgACBJQjcMDbptIMleNmVAIEaCGgU1KCIUiBAYPECxftjVzqE9MLFj7AnAQIECDRZoChiU/HeuLHJBnInQKB5AhoFzau5jAk0XmBiKjYlBG/6Gv+dAIAAAQL7FJjp7NJc3qeSHQgQqJ2ARkHtSiohAgT2JbD7L0NFnL+v/WwnQIAAgcYLbFl5SVzVeAUABAg0TkCjoHEllzABAvMC46PxtvTPNTQIECBAgMAdCOzotON1d7DN0wQIEKi1gEZBrcsrOQIE7kigeHdsT+edvv6OtnueAAECBBovcMGqTfGDxisAIECgkQIaBY0su6QJEJgXGLsh3pP++ToNAgQIECCwQOAH41Nx7oLnPCRAgEBjBDQKGlNqiRIgsFBg/g4I6bkXLHzeYwIECBBotkBZxEnudNDs7wHZE2i6gEZB078D5E+g4QITW+NTUcZFDWeQPgECBAj8XOBvV26JD/z8oa8IECDQPAGNgubVXMYECCwQmJmNl6enrl7wtIcECBAg0DyBG6LtSLPmlV3GBAgsFNAoWCjiMQECjRNYe0lcm5I+Ln2WjUtewgQIECDwM4H0IvCCiU1xxc+e8AUBAgQaKqBR0NDCS5sAgdsKpFMQPl5EvPW2z3pEgAABAo0RKOKSlVvjfzcmX4kSIEBgLwIaBXvBsYkAgWYJjLXjVSnjTzcra9kSIECAQBL42ngnXkyCAAECBG4W0CjwnUCAAIGfChSbYmZ2RfxOeuiwU98VBAgQaI7AT4oynl5si5uak7JMCRAgsHcBjYK9+9hKgEDDBNa8J34014pnpLR3Nix16RIgQKCJAnNRxDHj2+I7TUxezgQIELgjAY2CO5LxPAECjRVYvTm+mP66NH9kwUxjESROgACBJgiUsW5iS/xDE1KVIwECBJYioFGwFC37EiDQGIH016W/LYt4Xkq405ikJUqAAIEGCRRFnDyxLS5pUMpSJUCAwKIFNAoWTWVHAgSaJrByS/xlumHiC1LebpvYtOLLlwCBeguU8crxLfGOeicpOwIECCxfIN0NzAcBAgQI7E1gcl0cm85h/V9pn/be9rONAAECBPIXSEeLvSw1gt+ef6QiJECAwPAENAqGZ29lAgQqJDC1Lp6e3ly+P4U8WqGwhUqAAAECPxfozB8llk432Pzzp3xFgAABAnsS0CjYk4rnCBAgsAeBdGTBY9LTH0xHFxy8h82eIkCAAIF8Bba3inju2Jb4cL4hiowAAQL5CGgU5FMLkRAgUAGByfVxj3TBgg+nH54PqUC4QiRAgACBiMtbc/H0sYvjKzAIECBAYHECLma4OCd7ESBAYLfAxNb43sSu+JV0+OpfICFAgACB7AX+bqYdv6hJkH2dBEiAQGYCjijIrCDCIUCgOgKTG+K5qWHwJyni1dWJWqQECBBohMCudPTXK1Nz9+3pza471zSi5JIkQKCXAhoFvdQ0FwECjROYOjHuU87FRSnxxzYueQkTIEAgT4GvdiKOW7U1vpBneKIiQIBA/gIaBfnXSIQECGQukP5UVUytj/XpB+q56esDMg9XeAQIEKinQBGTKbFzxlvpKIJNMVPPJGVFgACBwQhoFAzG2SoECDRA4Kbnx0EjrTg3pfoH6dPP1wbUXIoECOQhUJbxN0UnXjJxcVyeR0SiIECAQLUFvJGtdv1ET4BAhgI718ej0g/XC1Jov5xheEIiQIBAnQS+XrTi1PHN8bE6JSUXAgQIDFtAo2DYFbA+AQK1FNh9OsK6eE46rmD+CIO71TJJSREgQGBIAukN7PXp5+trxg6NdxcbY3ZIYViWAAECtRXQKKhtaSVGgEAOAuXzYtXUaJyRYnlZ+hzPISYxECBAoMICcyn2TTMzcfbaS+LaCuchdAIECGQtoFGQdXkER4BAXQQmj497psNj31oW8Tt1yUkeBAgQGKhAGf/Q6sQpYxfHVwa6rsUIECDQQAGNggYWXcoECAxPYPL58fiyFRemH74PGV4UViZAgEClBL6bbnd4Wrrd4V9VKmrBEiBAoMICrQrHLnQCBAhUTmDiovjkxGHx8NQoeEEK/prKJSBgAgQIDE5ge1rqrPGV8QBNgsGhW4kAAQLzAo4o8H1AgACBIQlcd3zsP9GOV6cLH74khTAypDAsS4AAgdwE0o/FuKTTjjNXbYof5BaceAgQINAEAY2CJlRZjgQIZC0wtS5+IV27YP52ir+RdaCCI0CAQP8FPpu6BKes3Br/0v+lrECAAAECdySgUXBHMp4nQIDAgAVSw+ApP20YHDHgpS1HgACB4QoUcVV04vTxbfHn6c3p/BEFPggQIEBgiAIaBUPEtzQBAgQWCpQnxorJuXhx+uH8mrRtv4XbPSZAgEDNBKZSW+Ct4zPxluLS2FGz3KRDgACBygpoFFS2dAInQKDOAje9IA4e2RWvS1eS2ZDydOHZOhdbbgSaKlDE+2I2Tp+4OC5vKoG8CRAgkKuARkGulREXAQIEksD2E+Kh7U5cmL58HBACBAjUQSC9+fxiOrfg5Imt8ak65CMHAgQI1FFAo6COVZUTAQK1E9i5Po5JP7DfmhK7R+2SkxABAk0RuCadZvDK8cNja7ExXZHABwECBAhkK6BRkG1pBEaAAIHbCpTHxMTU2nhpevbM9Lnytls9IkCAQLYCM0UZ7xgbidcVm+KGbKMUGAECBAj8TECj4GcUviBAgEA1BHYeF3cvVsS5KdrnVCNiURIg0GCBjxatOHV8c3yrwQZSJ0CAQOUENAoqVzIBEyBA4GaBnevil9MP8QvTBQ9/kQkBAgSyEijjG0WRGgRb47Ks4hIMAQIECCxKwJW0F8VkJwIECOQnsHJbfDad63t0Ouf3+Sm6H+YXoYgIEGiaQGpeXl+WqUFweBylSdC06suXAIE6CTiioE7VlAsBAo0VKNfFmqmIs9LRBaclhNHGQkicAIFhCcylnz+bZ1px9tpN8eNhBWFdAgQIEOiNgEZBbxzNQoAAgSwEptbFvTtFnJd+uD8ji4AEQYBAEwT+sVXEKWNb4stNSFaOBAgQaIKARkETqixHAgQaJzC5Pp6Ykr4gfR7ZuOQlTIDAoAS+WxbxspVb4kODWtA6BAgQIDAYAdcoGIyzVQgQIDBQgYmt8fHxw+Jh6WJiL04L/2Sgi1uMAIG6C2xPCZ41PhcP1CSoe6nlR4BAUwUcUdDUysubAIHGCNywPg5cUcTGdB/zF6Wk241JXKIECPRD4H91yjhr1ba4uh+Tm5MAAQIE8hDQKMijDqIgQIBA3wWmT4gHdTpxflro1/u+mAUIEKibwOfKiJNXbo1/qVti8iFAgACB2wtoFNzexDMECBCotUC64OHT03nF56Uk71PrRCVHgEAvBK5OdzM4fXxLvDe9aUy9Ah8ECBAg0AQBjYImVFmOBAgQWCBQHhOjk2vj1PQi8Mq0ac2CzR4SIEAg3XE13j6+K95UXBo7cBAgQIBAswQ0CppVb9kSIEDgNgLbN8Qh7U68Kf3F8Pi0wWvCbXQ8INBMgXQ9kw+UnXj5xMVxeTMFZE2AAAEC3hT6HiBAgACB2LEhHtHqxDtSq+DROAgQaKZAOq/gS0UnTp64KD7ZTAFZEyBAgMAtAhoFt0j4lwABAg0XSL8kFJMb4tnpr4nnJopDG84hfQJNErgmvSE8e+yw2FxsjE6TEpcrAQIECOxZQKNgzy6eJUCAQGMFyhNj5dRcnJ4AXpE+xxsLIXEC9ReYSW8E3znWjtcWm+KG+qcrQwIECBBYrIBGwWKl7EeAAIGGCUyeGIenvy2+NV3n/Hcblrp0CTRB4KPp6KHTxrfFN5uQrBwJECBAYGkCGgVL87I3AQIEGieQTkd4bPqF4sJ0asLDGpe8hAnUTaCMb6Q3f/MNgr+tW2ryIUCAAIHeCbR6N5WZCBAgQKCOAhNb4tPp3OVHpiMLTkyfP6pjjnIiUHeB1By4vizj1PGReLAmQd2rLT8CBAh0L+CIgu4NzUCAAIHGCKTrF+w3PRtnl0WclJJe0ZjEJUqgugLzFyfcPNuJs9dcFNdUNw2REyBAgMAgBTQKBqltLQIECNREYOqEOCLdZ/28lM5v1SQlaRCon0ARn0yHjp40tiW+XL/kZESAAAEC/RTQKOinrrkJECBQc4HUMHhyORcXRBH3r3mq0iNQJYHL02kGL1u5LT5YpaDFSoAAAQL5CLhGQT61EAkBAgQqJzC+OT42fngcNX/u8/w50JVLQMAE6iWwI11H5JXjc/EATYJ6FVY2BAgQGLSAIwoGLW49AgQI1FTgxhPjzis68brdFz2M0IiuaZ2lla3ApZ0yzli1La7ONkKBESBAgEBlBDQKKlMqgRIgQKAaAtMb4sHpF5YLU7S/Wo2IRUmg0gKfT9cLOXnlRfH5SmcheAIECBDISkCjIKtyCIYAAQL1Edi5IZ5ZlPH2lNE965OVTAhkIzB/5MAZ41vjz9KbuTKbqARCgAABArUQ0CioRRklQYAAgTwFyuNjfKoVp6WLHZ6VIlyVZ5SiIlApgan0/+m88el4Y3Fp7KhU5IIlQIAAgcoIaBRUplQCJUCAQHUFdqyLu7WKeHPK4HnVzULkBIYrkI7Q+UDZildMbInvDjcSqxMgQIBA3QU0CupeYfkRIEAgI4F0OsLR6ZedC1JIv5RRWEIhkLVAOq/gy0URJ6cGwSeyDlRwBAgQIFAbAY2C2pRSIgQIEKiGQPqlp5hal44sKOJNKeK7VSNqURIYisCP0xu1V43dGFuK98fcUCKwKAECBAg0UkCjoJFllzQBAgSGL1C+KFZPTe++dsFpKZqx4UckAgLZCMymIwjeOTkbrz3g4rg+m6gEQoAAAQKNEdAoaEypJUqAAIE8BSY3xL3S6QhvS0caPDPPCEVFYKACl6X/D6eMb4tvDnRVixEgQIAAgVsJaBTcCsOXBAgQIDA8gcl18YRoxYXpRm9HDS8KKxMYmsC3ftog+NuhRWBhAgQIECDwUwGNAt8KBAgQIJCNQHlMtKf3ixPLMs5JQd05m8AEQqB/Ajeko2leO9GOdxabYqZ/y5iZAAECBAgsXkCjYPFW9iRAgACBAQlc/8I4YHRXvCa9SL04Ldke0LKWITBIgU46embLbBmvWnNRXDPIha1FgAABAgT2JaBRsC8h2wkQIEBgaALTG+IBnU6cn+6Q8OShBWFhAr0WKOKT7U6cPLotvtTrqc1HgAABAgR6IaBR0AtFcxAgQIBAXwWmToinlp04Ly1yv74uZHIC/RW4vCzi5Su3xAf6u4zZCRAgQIBAdwIaBd35GU2AAAECAxJI1y8YnVwbJ6UXrrPTkmsHtKxlCPRCYGc6KuaN4zfEecX7Y7IXE5qDAAECBAj0U0CjoJ+65iZAgACBngvc9II4eGQm3pAmXp8+vY71XNiEPRb4s3Imzlh5SVzV43lNR4AAAQIE+ibgDVbfaE1MgAABAv0U2PH8eHirFRekNR7bz3XMTWCZAv+STjM4OZ1m8LlljjeMAAECBAgMTUCjYGj0FiZAgACBbgXSbeWKyQ3xu+n+829Ncx3W7XzGE+iBwA/S3QzOGN8Wl6Y3Welb1AcBAgQIEKiegEZB9WomYgIECBBYIJCuXzAxtSZeEa04Pf1qNrFgs4cEBiEwnRY5b3ws3li8O7YPYkFrECBAgACBfgloFPRL1rwECBAgMHCBnRvi0J8eXfDsgS9uwcYKpDdTH0qnGbxsYkt8t7EIEidAgACBWgloFNSqnJIhQIAAgXmBnevjV1oRF6bjvh9BhEDfBIr4Spr7pNQg+ETf1jAxAQIECBAYgkB6H+WDAAECBAjUS2Dl1vinscPiUSmr9elUhB/VKzvZZCDw43TkygvT7Q4fpkmQQTWEQIAAAQI9F3BEQc9JTUiAAAECOQmUx8ba6fF4ZTq64NQU14qcYhNL5QRm0/fRu6bnYuMBF8f1lYtewAQIECBAYJECGgWLhLIbAQIECFRbYGp93LcT8fb0wvf0amci+iEJXNYq4rSxLfH1Ia1vWQIECBAgMDABjYKBUVuIAAECBHIQmFoXT0oXnjs/xfLAHOIRQ/YC30pvlk4b3xofyT5SARIgQIAAgR4JuEZBjyBNQ4AAAQLVEEj3t/+78cPiIekc85PSL4DXVSNqUQ5B4MayjJeO3xhHaRIMQd+SBAgQIDBUAUcUDJXf4gQIECAwTIEbj4s7jayIc9KL4R+mONrDjMXa2QiU6QKYm2dH4+w173EhzGyqIhACBAgQGKiARsFAuS1GgAABAjkKTB8fR3Xau09HeGKO8YlpYAKfmmvF/2vv/kLkOqsAgJ87m+zubJsYEAq1GquIfzCgVCwWJL5WUFCwLxGXNGtDKa1NsKXaQsQIKTZoDBWUJptqoAXJQx9aH3wptBWVFrFQS4WWYouloVKKSbuzu7pzPQtpH0KWzu7eOzN35rcwZHPnu+d85/cF7uRw57u3X34inu1bRokIECBAgMAQCmgUDOGimBIBAgQIDEbgnbn4Rn4n7+eZ/WODmYGsAxJ4JZ9mcGc+VvPMgPJLS4AAAQIEhkpAo2ColsNkCBAgQGDQAuVtMbXYyUcplnFPzuXyQc9H/loFFjL6vbkPwc+KM9GpNZPgBAgQIECgQQIaBQ1aLFMlQIAAgf4JvLM/rmytxL2ZcTZfrpf9o+9PpiIeKpfjrpnT8Vp/EspCgAABAgSaI+CDT3PWykwJECBAYAACC3NxbV4sf5GprxtAeimrFijjmbIV35s5GX+pOrR4BAgQIEBgVAQ0CkZlJdVBgAABArUJ5PfXi8V9sSfvK7gvk3yotkQC1ynwen6d5O58POZv88NPLqkfAgQIECBAYC0BjYK1ZBwnQIAAAQIXCZTficsWJ+MHefiOfE1f9La/DqfAUrYFjuViHSlOxfnhnKJZESBAgACB4RLQKBiu9TAbAgQIEGiAQGdvXF204mhZxLcaMN2xnWJRxCPRjTvyLoKXxxZB4QQIECBAYAMCGgUbQHMKAQIECBBYFejcGF/J77sfz4vp54gMkUARz+VsDrRPxuNDNCtTIUCAAAECjRHIx0X7IUCAAAECBDYi0H4wnmh/JK7JRsHNef6/NxLDOZUKvJl3Edwy/eG4RpOgUlfBCBAgQGDMBNxRMGYLrlwCBAgQqEfgrb2xoz0Rh3KXvNsyw5Z6soi6hsBKuv9yeTJ+vONX8dYaYxwmQIAAAQIEehTQKOgRyjACBAgQINCLQD4d4VO5d8Hq4xSv72W8MZsUKOMPrVYcnDoZL2wyktMJECBAgACBCwIaBf4pECBAgACBGgSyYfDVCw2DT9YQXsiIF/NDzMHp+fg9DAIECBAgQKBaAY2Caj1FI0CAAAEC7wmU+2NrZyVuzYvtj/LgB957wy+bETiXDZjD7f/E/cWZWN5MIOcSIECAAAEClxbQKLi0i6MECBAgQKAygfM3xxVbluMnUcR3M6iNhDcmm9sQxPz/tsY9234db2wshLMIECBAgACBXgQ0CnpRMoYAAQIECFQg8PZN8fmJbhzPULsrCDdOIZ7qRtx+2Xz8bZyKVisBAgQIEBiUgEbBoOTlJUCAAIGxFViYixvyAnw0AT46tgi9Ff5Kfs3grpmT8bvehhtFgAABAgQIVCGgUVCFohgECBAgQGCdAuUN0V7cHt/P036Yr5l1nj7qwxeywJ9On4ujuQ9BZ9SLVR8BAgQIEBg2AY2CYVsR8yFAgACBsRJYmI2riq1xXxa9Z6wKX7vYhy/cRfCvtYd4hwABAgQIEKhTQKOgTl2xCRAgQIBAjwIL++K6vCgfzw0Pv9jjKaM1rIxnyok4MHMi/jRahamGAAECBAg0T8DOy81bMzMmQIAAgREUmDkVf57eGV+KMm7M8s6OYIlrlXR2tebV2jUJ1iJynAABAgQI9FfAHQX99ZaNAAECBAi8r0C5L7YtRtyddxcczMFT73tCMwcsZYPg2HTEkeJUnG9mCWZNgAABAgRGU0CjYDTXVVUECBAgMAICnf2xM1bicJYym69RuWaXWcvpmIhD7Qfi1RFYJiUQIECAAIGRExiVDx0jtzAKIkCAAAEC7wos3RSfLbtxOP+H/c081tRrd+5RGI8UrTg0dSKef7c2fxIgQIAAAQLDJ9DUDxvDJ2lGBAgQIECgZoHFufhEN+JgUeQ+BmW0a05XTfgiOmUZD+amSMem5+OlaoKKQoAAAQIECNQpoFFQp67YBAgQIECgBoFzs/HBycn4djYLZvMugy/UkGLTIfMDxl/z3ofTy8vx0PbT8eamAwpAgAABAgQI9E1Ao6Bv1BIRIECAAIHqBZbmYlfeZbAnI389X7uqz7CuiH/P0Y/m3QMPT83H6u9+CBAgQIAAgQYKaBQ0cNFMmQABAgQIXEqgszeuLibia/ne7rzT4Mv555WXGlfhsdfzg8QfM96T5Uo81v5N/LPC2EIRIECAAAECAxLQKBgQvLQECBAgQKBugcV98fFuEdfmngafLrq5IWIRn8mcO/O1bZ25Vx9f+GpRxgtlK57PPQf+0Srj6elT8fI64xhOgAABAgQINEBAo6ABi2SKBAgQIECgSoFyf8wsLcdV3Ym4IpsIW7OJsH2liPzGQMREGd1sBpzLZsB/WyvxxtRkvFY8EAtV5heLAAECBAgQIECAAAECBAgQIECAAAECBAgQIECAAAECBAgQIECAAAECBAgQIECAAAECBAgQIECAAAECBAgQIECAAAECBAgQIECAAAECBAgQIECAAAECBAgQIECAAAECBAgQIECAAAECBAgQIECAAAECBAgQIECAAAECBAgQIECAAAECBAgQIECAAAECBAgQIECAAAECBAgQIECAAAECBAgQIECAAAECBAgQIECAAAECBAgQIECAAAECBAgQIECAAAECBAgQIECAAAECBAgQIECAAAECBAgQIECAAAECBAgQIECAAAECBAgQIECAAAECBAgQIECAAAECBAgQIECAAAECBAgQIECAAAECBAgQIECAAAECBAgQIECAAAECBAgQIECAAAECBAgQIECAAAECBAgQIECAAAECBAgQIECAAAECBAgQIECAAAECBAgQIECAAAECBAgQIECAAAECBAgQIECAAAECBAgQIECAAAECBAgQIECAAAECBAgQIECAAAECBAgQIECAAAECBAgQIECAAAECBAgQIECAAAECBAgQIECAAAECBAgQIECAAAECBAgQIECAAAECBAgQIECAAAECBAgQIECAAAECBAgQIECAAAECBAgQIECAAAECBAgQIECAAAECBAgQIECAAAECBAgQIECAAAECBAgQIECAAAECBAgQIECAAAECBAgQIECAAAECBAgQIECAAAECBAgQIECAAAECBAgQIECAAAECBAgQIECAAAECBAgQIECAAAECBAgQIECAAAECBAgQIECAAAECBAgQIECAAAECBAgQIECAAAECBAgQIECAAAECBAgQIECAAAECBAgQIECAAAECBAgQIECAAAECBAgQIECAAAECBAgQIECAAAECBAgQIECAAAECBAgQIECAAAECBAgQIECAAAECBAgQIECAAAECBAgQIECAAAECBAgQIECAAAECBAgQIECAAAECBAgQIECAAAECBAgQIECAAAECBAgQIECAAAECBAgQIECAAAECBAgQIECAAAECBAgQIECAAAECBAgQIECAAAECBAgQIECAAAECBAgQIECAAAECBAgQIECAAAECBAgQIECAAAECBAgQIECAAAECBAgQIECAAAECBAgQIECAAAECBAgQIECAAAECBAgQIECAAAECBAgQIECAAAECBAgQIECAAAECBAgQIECAAAECBAgQIECAAAECBAgQIECAAAECBAgQIECAAAECBAgQIECAAAECBAgQIECAAAECBAgQIECAAAECBAgQIECAAAECBAgQIECAAAECBAgQIECAAAECBAgQIECAAAECBAgQIECAAAECBAgQIECAAAECBAgQIECAAAECBAgQIECAAAECBAgQIECAAAECBAgQIECAAAECBAgQIECAAAECBAgQIECAAAECBAgQIECAAAECBAgQIECAAAECBAgQIECAAAECBAgQIECAAAECBAgQIECAAAECBAgQIECAAAECBAgQIECAAAECBAgQIECAAAECBAgQIECAAAECBAgQIECAAAECBAgQIECAAAECBAgQIECAAAECBAgQIECAAAECBAgQIECAAAECBAgQIECAAAECBAgQIECAAAECBAgQIECAAAECBAgQIECAAAECBAgQIECAAAECBAgQIECAAAECBAgQIECAAAECBAgQIECAAAECBAgQIECAAAECBAgQIECAAAECBAgQIECAAAECBAgQIECAAAECBAgQIECAAAECBAgQIECAAAECBAgQIECAAAECBAgQIECAAAECBAgQIECAAAECBAgQIECAAAECBAgQIECAAAECBAgQIECAAAECBAgQIECAAAECBAgQIECAAAECBAgQIECAAAECBAgQIECAAAECBAgQIECAAAECBAgQIECAAAECBAgQIECAAAECBAgQIECAAAECBAgQIECAAAECBAgQIECAAAECBAgQIECAAAECBAgQIECAAAECBAgQIECAAAECBAgQIECAAAECBAgQIECAAAECBAgQIECAAAECBAgQIECAAAECBAgQIECAAAECBAgQIECAAAECBAgQIECAAAECBAgQIECAAAECBAgQIECAAAECBAgQIECAAAECBAgQIECAAAECBAgQIECAAAECBAgQIECAAAECBAgQIECAAAECBAgQIECAAAECBAgQIECAAAECBAgQIECAAAECBAgQIECAAAECBAgQIECAAAECBAgQIECAAAECBAgQIECAAAECBAgQIECAAAECBAgQIECAAAECBAgQIECAAAECBAgQIECAAAECBAgQIECAAAECBAgQIECAAAECBAgQIECAAAECBAgQIECAAAECBAgQIECAAAECBAgQIECAAAECBAgQIECAAAECBAgQIECAAAECBAgQIECAAAECBAgQIECAAAECBAgQIECAAAECBAgQIECAAAECBAgQIECAAAECBAgQIECAAAECBAgQIECAAAECBAgQIECAAAECBAgQIECAAAECBAgQIECAAAECBAgQIECAAAECBAgQIECAAAECBAgQIECAAAECBAgQIECAAAECBAgQIECAAAECBAgQIECAAAECBAgQIECAAAECBAgQIECAAAECBAgQIECAAAECBAgQIECAAAECBAgQIECAAAECBAgQIECAAAECBAgQIECAAAECBAgQIECAAAECBAgQIECAAAECBAgQIECAAAECBAgQIECAAAECBAgQIECAAAECBAgQIECAAAECBAgQIECAAAECBAgQIECAAAECBAgQIECAAAECBAgQIECAAAECBAgQIECAAAECBAgQIECAAAECBAgQIECAAAECBAgQIECAAAECBAgQIECAAAECBAgQIECAAAECBAgQIECAAAECBAgQIECAAAECBAgQIECAAAECBAgQIECAAAECBAgQIECAAAECBAgQIECAAAECBAgQIECAAAECBAgQIECAAAECBAgQIECAAAECBAgQIECAAAECBAgQIECAAAECBAgQIECAAAECBAgQIECAAAECBAgQIECAAAECBAgQIECAAAECBAgQIECAAAECBAgQIECAAAECBAgQIECAAAECBAgQIECAAAECBAgQIECAAAECBAgQIECAAAECBAgQIECAAAECBAgQIECAAAECBAgQIECAAAECBAgQIECAAAECBAgQIECAAAECBAgQIECAAAECBAgQIECAAAECBAgQIECAAAECBAgQIECAAAECBAgQIECAAAECBAgQIECAAAECBAgQIECAAAECBAgQIECAAAECBAgQIECAAAECBAgQIECAAAECBAgQIECAAAECBAgQIECAAAECBAgQIECAAAECBAgQIECAAAECBAgQIECAAAECBAgQIECAAAECBAgQIECAAAECBAgQIECAAAECBAgQIECAAAECBAgQIECAAAECBAgQIECAAAECBAgQIECAAAECBAgQIECAAAECBAgQIECAAAECBAgQIECAAAECBAgQIECAAAECBAgQIECAAAECBAgQIECAAAECBAgQIECAAAECBAgQIECAAAECBAgQIECAAAECBAgQIECAAAECBAgQIECAAAECBAgQIECAAAECBAgQIECAAAECBAgQIECAAAECBAgQIECAAAECBAgQIECAAAECBAgQIECAAAECBAgQIECAAAECBAgQIECAAAECBAgQIECAAAECBAgQIECAAAECBAgQIECAAAECBAgQIECAAAECBAgQIECAAAECBAgQIECAAAECBAgQIECAAAECBAgQIECAAAECBAgQIECAAAECBAgQIECAAAECBAgQIECAAAECBAgQIECAAAECBAgQIECAAAECBAgQIECAAAECBAgQIECAAAECBAgQIECAAAECBAgQIECAAAECBAgQIECAAAECBAgQIECAAAECBAgQIECAAAECBAgQIECAAAECBAgQIECAAAECBAgQIECAAAECBAgQIECAAAECBCoV+D9yRZO4oAhPgwAAAABJRU5ErkJggg==;" vertex="1" parent="1">
          <mxGeometry x="972.8" y="485.59999999999997" width="70" height="52.8" as="geometry" />
        </mxCell>
        <mxCell id="LlsY5RYBl1xxhd0hf_0L-79" value="Ouve evento" style="text;html=1;align=center;verticalAlign=middle;resizable=0;points=[];autosize=1;strokeColor=none;fillColor=none;" vertex="1" parent="1">
          <mxGeometry x="1047.8" y="488" width="90" height="30" as="geometry" />
        </mxCell>
        <mxCell id="LlsY5RYBl1xxhd0hf_0L-81" value="Envia email&amp;nbsp;&lt;div&gt;Com parabÃ©ns, top&lt;/div&gt;" style="rounded=0;whiteSpace=wrap;html=1;" vertex="1" parent="1">
          <mxGeometry x="1232.8" y="483" width="120" height="60" as="geometry" />
        </mxCell>
        <mxCell id="LlsY5RYBl1xxhd0hf_0L-91" value="" style="edgeStyle=orthogonalEdgeStyle;rounded=0;orthogonalLoop=1;jettySize=auto;html=1;" edge="1" parent="1" source="LlsY5RYBl1xxhd0hf_0L-84" target="LlsY5RYBl1xxhd0hf_0L-90">
          <mxGeometry relative="1" as="geometry" />
        </mxCell>
        <mxCell id="LlsY5RYBl1xxhd0hf_0L-84" value="Obter metas&amp;nbsp;" style="rounded=0;whiteSpace=wrap;html=1;" vertex="1" parent="1">
          <mxGeometry x="347.2" y="160" width="120" height="60" as="geometry" />
        </mxCell>
        <mxCell id="LlsY5RYBl1xxhd0hf_0L-89" value="" style="edgeStyle=orthogonalEdgeStyle;rounded=0;orthogonalLoop=1;jettySize=auto;html=1;" edge="1" parent="1" source="LlsY5RYBl1xxhd0hf_0L-85" target="LlsY5RYBl1xxhd0hf_0L-88">
          <mxGeometry relative="1" as="geometry" />
        </mxCell>
        <mxCell id="LlsY5RYBl1xxhd0hf_0L-85" value="Consulta&amp;nbsp;" style="whiteSpace=wrap;html=1;rounded=0;" vertex="1" parent="1">
          <mxGeometry x="712.8" y="187.1" width="120" height="60" as="geometry" />
        </mxCell>
        <mxCell id="LlsY5RYBl1xxhd0hf_0L-87" value="" style="outlineConnect=0;dashed=0;verticalLabelPosition=bottom;verticalAlign=top;align=center;html=1;shape=mxgraph.aws3.mysql_db_instance_2;fillColor=#2E73B8;gradientColor=none;" vertex="1" parent="1">
          <mxGeometry x="795.5999999999999" y="219.1" width="50" height="50" as="geometry" />
        </mxCell>
        <mxCell id="LlsY5RYBl1xxhd0hf_0L-88" value="Cria Cache" style="whiteSpace=wrap;html=1;rounded=0;" vertex="1" parent="1">
          <mxGeometry x="912.8" y="187.1" width="120" height="60" as="geometry" />
        </mxCell>
        <mxCell id="LlsY5RYBl1xxhd0hf_0L-47" value="" style="image;sketch=0;aspect=fixed;html=1;points=[];align=center;fontSize=12;image=img/lib/mscae/Cache_Redis_Product.svg;" vertex="1" parent="1">
          <mxGeometry x="992.8" y="227.1" width="50" height="42" as="geometry" />
        </mxCell>
        <mxCell id="LlsY5RYBl1xxhd0hf_0L-93" value="" style="edgeStyle=orthogonalEdgeStyle;rounded=0;orthogonalLoop=1;jettySize=auto;html=1;" edge="1" parent="1" source="LlsY5RYBl1xxhd0hf_0L-90" target="LlsY5RYBl1xxhd0hf_0L-92">
          <mxGeometry relative="1" as="geometry">
            <Array as="points">
              <mxPoint x="580" y="80" />
            </Array>
          </mxGeometry>
        </mxCell>
        <mxCell id="LlsY5RYBl1xxhd0hf_0L-100" value="Se sim" style="edgeLabel;html=1;align=center;verticalAlign=middle;resizable=0;points=[];" vertex="1" connectable="0" parent="LlsY5RYBl1xxhd0hf_0L-93">
          <mxGeometry x="0.0914" y="3" relative="1" as="geometry">
            <mxPoint as="offset" />
          </mxGeometry>
        </mxCell>
        <mxCell id="LlsY5RYBl1xxhd0hf_0L-97" style="edgeStyle=orthogonalEdgeStyle;rounded=0;orthogonalLoop=1;jettySize=auto;html=1;exitX=1;exitY=1;exitDx=0;exitDy=0;entryX=0;entryY=0.5;entryDx=0;entryDy=0;" edge="1" parent="1" source="LlsY5RYBl1xxhd0hf_0L-90" target="LlsY5RYBl1xxhd0hf_0L-85">
          <mxGeometry relative="1" as="geometry" />
        </mxCell>
        <mxCell id="LlsY5RYBl1xxhd0hf_0L-99" value="Se nÃ£o" style="edgeLabel;html=1;align=center;verticalAlign=middle;resizable=0;points=[];" vertex="1" connectable="0" parent="LlsY5RYBl1xxhd0hf_0L-97">
          <mxGeometry x="-0.3784" y="-6" relative="1" as="geometry">
            <mxPoint as="offset" />
          </mxGeometry>
        </mxCell>
        <mxCell id="LlsY5RYBl1xxhd0hf_0L-90" value="Possui metas no redis" style="rhombus;whiteSpace=wrap;html=1;rounded=0;" vertex="1" parent="1">
          <mxGeometry x="530" y="141" width="90" height="100" as="geometry" />
        </mxCell>
        <mxCell id="LlsY5RYBl1xxhd0hf_0L-92" value="Consulta&amp;nbsp;" style="whiteSpace=wrap;html=1;rounded=0;" vertex="1" parent="1">
          <mxGeometry x="680" y="50" width="120" height="60" as="geometry" />
        </mxCell>
        <mxCell id="LlsY5RYBl1xxhd0hf_0L-96" value="" style="image;sketch=0;aspect=fixed;html=1;points=[];align=center;fontSize=12;image=img/lib/mscae/Cache_Redis_Product.svg;" vertex="1" parent="1">
          <mxGeometry x="769.8" y="77" width="50" height="42" as="geometry" />
        </mxCell>
        <mxCell id="LlsY5RYBl1xxhd0hf_0L-105" style="edgeStyle=orthogonalEdgeStyle;rounded=0;orthogonalLoop=1;jettySize=auto;html=1;" edge="1" parent="1" source="LlsY5RYBl1xxhd0hf_0L-103" target="LlsY5RYBl1xxhd0hf_0L-12">
          <mxGeometry relative="1" as="geometry" />
        </mxCell>
        <mxCell id="LlsY5RYBl1xxhd0hf_0L-103" value="Login/cadastro" style="whiteSpace=wrap;html=1;verticalAlign=middle;labelBackgroundColor=none;labelBorderColor=none;align=center;" vertex="1" parent="1">
          <mxGeometry x="185" y="270" width="120" height="60" as="geometry" />
        </mxCell>
        <mxCell id="LlsY5RYBl1xxhd0hf_0L-106" value="usuario" style="shape=umlActor;verticalLabelPosition=bottom;verticalAlign=top;html=1;outlineConnect=0;" vertex="1" parent="1">
          <mxGeometry x="70" y="1115" width="20" height="50" as="geometry" />
        </mxCell>
        <mxCell id="LlsY5RYBl1xxhd0hf_0L-107" value="" style="edgeStyle=orthogonalEdgeStyle;rounded=0;orthogonalLoop=1;jettySize=auto;html=1;" edge="1" parent="1" source="LlsY5RYBl1xxhd0hf_0L-108" target="LlsY5RYBl1xxhd0hf_0L-151">
          <mxGeometry relative="1" as="geometry" />
        </mxCell>
        <mxCell id="LlsY5RYBl1xxhd0hf_0L-108" value="" style="shape=image;verticalLabelPosition=bottom;labelBackgroundColor=none;verticalAlign=top;aspect=fixed;imageAspect=0;image=data:image/png,iVBORw0KGgoAAAANSUhEUgAAAgAAAAIACAYAAAD0eNT6AAAAAXNSR0IArs4c6QAAAERlWElmTU0AKgAAAAgAAYdpAAQAAAABAAAAGgAAAAAAA6ABAAMAAAABAAEAAKACAAQAAAABAAACAKADAAQAAAABAAACAAAAAAAL+LWFAABAAElEQVR4Ae2dB7gkRdm24WOXXeIuOSksUaIkQUUQWRFRCSJi/CRJEBOfiBFUUEFRzKISxF1EflQQjCiiZFCQnBREMpLTkuP/PLtn2DlnJ0+Ht7rvuq73zEx3ddXz3tVn+p2q6uq55yJBAAKpEBgvoUvKlh55naRX2+QRa/7s9xNl/yPze6cFZPPKmrd5eyM9qzczGh9GXh/T69Oyh2TPyLz/CdmTskdkD8oeGLH7mt572/2yx2UkCEAgIIG5A2pCEgTqSMAX8SlNtoLeLyFbRraUzBd+f04tOUi4XXaH7M6R982vN2ubAwcSBCBQMAECgIKBU12tCSwn71eXvUy2mmxKkzV+pWtT7dLD8vjfshtbvDpwIEEAAjkQIADIASpF1pqAu9dXlq0j88W+Yb7oLywj9UfgUWW/RnaV7OoRu1Kv98pIEIDAEAQIAIaAx6G1J+Dx9LVl68vWG7F19bqQjJQvgbtVvIMC2yWyi2TuRXhBRoIABHogQADQAySyQEAE/L/iX/Ovkm0i20i2pswT80gxCHhC4sUj5oDA7/8rI0EAAi0IEAC0gMImCIiAu+s3lr16xHzhX0RGSouAJyCeLztHdrbsWhm9BIJAggABAOcABGYRWFAvm8mmyraQuUt/HhmpWgQ8d8DBQCMg8BDC89VyEW8g0BsBAoDeOJGregQmyiX/um9c8F+p9+Oq5yYedSHg9QrcM/An2R9lt8hIEKgFAQKAWjQzTo4QWEWvbx6xzfXqIIAEgWYC/9SH02QOCNxL4EWPSBCoJAECgEo2K06NEJig19fKGhd933tPgkCvBHzxd++AA4JTZbfKSBCoDAECgMo0JY6MEPBEve1kO8i2lC0gI0FgWAKeOOjbDX8lO0XmngISBJImQACQdPMhfoTAYnp9i2wn2VYy359PgkCeBP6jwn8n+6XMdxlwZ4EgkNIiQACQVnuhdjaBZfX2bbIdZZ69z4x9QSCVQuAW1Xqi7HiZVyskQSAJAgQASTQTIkcIzKfXbWQ7y7aWMWtfEEihCHidAfcKTJfdFEoZYiAwhgABwBggfAxHwL/st5D5ou9f/IzpCwIpPIHnpfBCmYOBn8l44qEgkGIRIACI1R6omU1gQ73dTfZO2eKzN/MOAskReFKKPXHwaNlZMuYLCAKpfAIEAOW3AQpmE/Dyu++S7S3bYPZm3kGgMgRukCc/lk2T+YFGJAiURoAAoDT0VNxEwL/295K9R+YleUkQqDqB5+TgmbKjZL610J9JECiUAAFAobiprImAf+3vKvOFfy0ZCQJ1JeBbCo+UHSN7oK4Q8Lt4AgQAxTOve41ejncPmbv5J9cdBv5DoInAU3r/C9nXZNxO2ASGtxCAQLoEHGhuKfOX27MyT4LCYMA50P4cOE//I9vK+JEmCKR8CHBy5cOVUmcR8Hj+brIPy1abtYm/EIBAHwS85PB3ZMfJHu/jOLJCoCsBAoCuiMgwAAHftueLvs3L9JIgAIHhCNynw4+QORh4cLiiOBoCswgQAHAmZElgBRW2n+z9MhbsyZIsZUFgFoFH9XKs7DDZnbM28RcCEIBAeQQ8sc+zmJ+WMa4LA86B/M8BLy7k/7mXykgQgAAECiewnmr0Cmde9pQvfRhwDhR/DvjOAS8s5CCcBAEIQCB3Ar5v35OSvHgJX/ow4Bwo/xzw/6LvsllJRoIABCCQOYE1VaIv/NzKV/4XPhdd2qDVOeAeAQ8NLCMjQaAjASYBdsTDzhECa+j187J3yP5nZBsvEIBAXAKPSdp3ZV+XcddA3HYqVRkBQKn4w1e+hBQeKPugbFx4tQiEAATGEpihDT+QHSp7ZOxOPtebgJ+1ToLAWAK+hc+3850ke62MX/2CQIJAggQmSPOmsj1lvkvnHzIPHZAgwDKTnAOjCIzXp91kB8uWHrWHDxCAQBUIXCcn9pf9oQrO4MNwBBgCGI5flY7eUc58RbZqlZzCFwhAoCWB32rrJ2T/armXjbUgQABQi2bu6OTq2vtt2Rs75mInBCBQNQLPyKGfyDzP596qOYc/3QkwB6A7o6rmWFSOfU3mZUV5UE9VWxm/INCegL//N5R56e4nZJfImB8gCHVJ9ADUpaVn++kJff8r8+1BS87ezDsIQKDmBK6Q//vILqw5h9q4z+zu2jT1TEc3019H+dNlXPxnIuEPBCAwQmBdvZ4n80JC7iEkVZwAQwAVb+AR9ybr1U8P8/3ArBA2AoUXCEBgDgLuFfawgG8bfEp2sYxhAUGoYmIIoIqtOtqnnfTx+zJ+8Y/mwicIQKA7AfcIeCGwq7pnJUdqBOgBSK3Fetfrp4P9XPYpmRf2IUEAAhDol8DyOmAP2UTZ+TI/dIhUEQL0AFSkIZvc8GI+jtgPkXHhbwLDWwhAYCgC/9bRDgbOHqoUDg5DgB6AME2RiRCP3f1Btots3kxKpBAIQAACswh4YuD7ZJNkHhrwOgKkhAnQA5Bw4zVJ969+r93/RRkX/iYwvIUABHIhcJNKdW/AX3MpnUILIUAAUAjmXCtZR6VPk22Qay0UDgEIQGA0Ad8dcLTMzxaYMXoXn1IgwDoAKbRSa43jtNkT/Px0Ly7+rRmxFQIQyI+Af0DuJfMdAl5jhJQYAeYAJNZgI3LX1qvH+j0eRxuOQOEFAhAohYDXGdlZ5h8l58qel5ESIMAQQAKNNEai/9F+KJt/zHY+QgACECibgBcO8lLj15cthPq7E2AIoDujKDmWkJDfyKbLuPhHaRV0QAACzQQ20ofLZfs2b+R9TAL0AMRsl7GqXq8Nx8mWHbuDzxCAAASCEvijdO0muyuovtrLogcg9ing2/sOkp0u4+IvCCQIQCAZAltLqZ8w6B8wpIAEmEAWsFFGJK2s1z/J3i2jp2YECi8QgEBSBLwa6XtkT8suSEp5DcRyYYnZyNtK1nTZIjHloQoCEIBA3wR+ryM8ifmBvo/kgFwIMASQC9aBC/VtNAfJTpVx8RcEEgQgUBkCb5EnniC4SWU8StwRhgDiNOBykuII2ff20zMTp11QAgEIZEfAzxHws0oYEsiO6cAlEQAMjC7TA7dUaafL1si0VAqDAAQgEI+Ae579nbemzAua8VAhQSgjMQRQBvXZdfqX/mdkvl1mydmbeQcBCECg8gR2koeeGLhi5T0N6iBdzeU1zERVfZTMXf4kCEAAAnUl4EmB75SdUVcAZfnNEEA55D3e71v83lRO9dQKAQhAIAyB+aTkvbKnZOeHUVUDIQQAxTeyZ8D+Rfay4qumRghAAAIhCTTmBawqdafJng2psmKimANQbIPuqerOlC1dbLXUBgEIQCAJAu4J+KuM78gCmos5AAVAVhXuafmW7CPFVEctEIAABJImcLPUe92Aa5P2Irh4AoD8G8hLYZ4g2y7/qqgBAhCAQGUIzJAn75D5LilSDgSYA5AD1KYi3Y3l+/u3aNrGWwhAAAIQ6E5ggrK8S3a37JLu2cnRLwECgH6J9Z5/LWX1eL8XuyBBAAIQgED/BDxPzc9G8Z0CnjxNypAAAUCGMJuKmqr3vs2PiSxNUHgLAQhAYEACm+q4FWVeOfC5AcvgsDEEmAMwBkgGH/20q6Nl82ZQFkVAAAIQgMBsAl4saAfZo7M38W5QAtwGOCi51sd5lv9PZFz8W/NhKwQgAIFhCPgZAh5aXXyYQjh2FgECgOzOhE+pqO/KYJodU0qCAAQgMJbAK7ThHNlLxu7gc38EGALoj1er3Gboe/z3bbWTbRCAAAQgkAuBm1XqVrIbcim9BoUSAAzXyO7qP07mB1mQIAABCECgWAK+RXBr2eXFVluN2ggABm9HL/BzkswnHwkCEIAABMoh8KCq3UZ2QTnVp1srAcBgbbewDvPtKK8Z7HCOggAEIACBDAn4rgAvHey5AaQeCRAA9AiqKdskvffSlK9q2sZbCEAAAhAol8Djqt6LBvlhQqQeCDBjvQdITVkm670X+OHi3wSFtxCAAAQCEJhfGn4re30ALUlIoAeg92ZaRFl98d+o90PICQEIQAACBRNwT8D2Mi8aROpAgACgA5ymXb74+6E+vv+UBAEIQAACsQk8IXl+AitBQId2IgDoAGdk15J69UMo1u6elRwQgAAEIBCEgIMA9wT8OYiecDIIADo3icf8PaFk/c7Z2AsBCEAAAgEJOAjwrdrcHdCicQgAWkAZ2eRb/dx9xJh/e0bsgQAEIBCdwCMS6ImB/4gutGh93AXQmrifPf0bGRf/1nzYCgEIQCAVAv4xd5pszVQEF6WTAGBO0l7e1yv8bT7nLrZAAAIQgECCBPz0QE/kXjFB7blJJgAYjXYefTxe9ubRm/kEAQhAAAKJE1hO+j0hcNnE/chMPgHAbJRmcZxsp9mbeAcBCEAAAhUisLJ8cU/AYhXyaWBXCABmo/um3r5n9kfeQQACEIBABQmsJZ88J8APdKt1IgCY1fyf1su+tT4TcB4CEIBAfQh4gveJMg/71jbV2vmRVvev/iNk3BJZ238DHIcABGpIYDX5vJTsdzX0fabLdQ8AporCL2Xj6noC4DcEIACBGhPw8u5+dsAFdWRQ5wBgQzW4H+7je/5JEIAABCBQTwJbyu3/yK6sm/t17fZeWQ3tiM/r/JMgAAEIQKDeBJ6S+14y+Kw6YahjAOAn+10oe1mdGhpfIQABCECgI4EHtfdVsus75qrQzrrdBeCx/l/IuPhX6CTGFQhAAAIZEPCPQy8B74fA1SLVLQD4jlrV4z0kCEAAAhCAwFgC/nH4c1ktJobXaRLgR9Sonx/b2nyGAAQgAAEINBHwHLEFZV4xsNKpLgHAG9SKx8nq1uNR6ZMX5yAAAQjkRODVKvdO2aU5lR+i2DpMAlxdpD3przbjOiHOLERAAAIQSJvAM5LvH49np+1Ge/VVDwB80b9Itmp7BOyBAAQgAAEItCRwt7Z6saDbW+5NfGOVu8Qd3Bwr4+Kf+EmKfAhAAAIlEfBSwSfJ5i2p/lyrrfIcAE/42ydXehQOAQhAAAJVJ/ASObiw7I9Vc7SqAYDHbY6WVbmHo2rnIv5AAAIQiErACwTdKKvUcsFVnAOwghrpH7LFZSQIQAACEIBAFgQeVSGvlF2bRWERyqjaL+SJgvorGRf/CGcXGiAAAQhUh4DXBvD1ZaGquFS1AOBINcwGVWkc/IAABCAAgVAEvFLgD0MpGkJMleYA7CoOXxiCBYdCAAIQgAAEuhF4uTLcJrusW8bo+6syB2AVgb5UVpmumegnDvogAAEI1JjAY/J9Q9m/UmZQhSGACWoAP+GPi3/KZyLaIQABCKRDYAFJPUGW9PoAVRgC8BP+tkvnvEEpBCAAAQhUgMAy8sE/QM9I1ZfUhwC2EXg/vzl1P1I9f9ANAQhAoM4Enpfzb5QlGQSkfOH06kyXyxaTkSAAAQhAAAJlEPDzAtaV+TWplOocAOv+mYyLf1KnG2IhAAEIVI6AnxfgW9CTS6nOAdhfpPdIjjaCIQABCECgigT82PmbZFek5FyKQwBrCvAlMq/6R4IABCAAAQhEIPCwRKwj8xoBSaTUhgDGiep0GRf/JE4vREIAAhCoDYFJ8vTHsmR+WKc2BHCw4L6rNqcTjkIAAhCAQEoEVpbYW2VJrBKYTKQioF516ULZeBkJAhCAAAQgEJHAIxLloQAHAqFTKkMA84uiZ/1z8Q99OiEOAhCAQO0JLCwCx8rC/8BOZQjgUMFktb/a/18BAAIQgEASBFaSyvBDAeEjFEH0AgsXy/j1LwgkCEAAAhBIgsADUrmG7J6oaqP3AHjW/29lXvWPBAEIQAACEEiFwHwSurTslKiCo88B2E/gPPmPBAEIQAACEEiNwPskeMuooiMPAUwRtKtlfuwiCQIQgAAEIJAigX9LtO8KeDKa+MhDAL8QLC+vSIIABCAAAQikSmBRCX9BdmY0B6L2AOwiUNOiwUIPBCAAAQhAYAACT+uY9WTXDXBsbodEDAAWkbf/ki2Rm9cUDAEIQAACECiWgHsAphZbZefaIk4C/JIkc/Hv3G7shQAEIACBtAhsIbk7RpIcrQfAEyUulfn2PxIEIAABCECgSgRukzOe2/Z4BKciTQJ0MOKJfytGAIMGCEAAAhCAQMYE/MTAp2TnZFzuQMVF6gHYWR5MH8gLDoIABCAAAQikQeAJyfQKgbeULTdKD8BCAnGqzK8kCEAAAhCAQFUJeFn7pWQnl+1glEmABwvEsmXDoH4IQAACEIBAAQTerTpeW0A9HauIMASwmhR6xT8e9tOxqdgJAQhAAAIVInCRfHmVzIsElZIiDAEcLc/XKsV7KoUABCAAAQiUQ2A5VXuN7Npyqp9rrrJ7ABz9XCArW0dZ/KkXAhCAAATqS+AGue4fwM+UgaDsHoAT5fTyZThOnRCAAAQgAIGSCSym+u+U/aMMHWX+8t5JDvu+fxIEIAABCECgrgTukeOryGYUDaCsHgBP+PMtEI5+SBCAAAQgAIG6EvAj770yYOGLA5V1G+A+cnbVurY2fkMAAhCAAASaCHxS75ds+lzI2zJ6ALzYj3/9O+ohQQACEIAABOpOYIIAeEj+z0WCKKMH4KNykKf9FdnK1AUBCEAAAtEJuGe80F6AoicBLiwHb5ItGr0l0AcBCECgRwL/Ur7zZX61XS/zmO4jMk/smiibT+beTy8B66fBeQG0dWSbyxaUkSBgAl+XeTigkFR0APB5eXVwIZ5RCQQgAIH8CJyroqfL3GV76xDVeEK010PZTrarbHEZqb4EHpPrK8l8Z0DuqcgAYLK88a9/v5IgAAEIpEbAS7b+TPYN2eU5iHdPgdeIP0C2cg7lU2QaBArrBSgyAPii2H8uDf6ohAAEIDCKwH/0aW/ZGaO25vPBwwWfkn1W5h4CUr0IFNYLUNRdAB7z/38yz3QkQQACEEiJwG8l9vUyj+8XkZ5VJWfJzpO9VeaeAVJ9CMwrV93blHuwWVQPwCFyxtEsCQKtCNyrjdfJbpZ5mOgJWSN54qgfFb2MbF3Z0jISBIoicKYqeqOslLXaVe/mstNlviiQ6kPgUbm6guyBPF0uIgDwF7gnyUzK0xHKTo7AOVL8S5m/YK+VvSDrJb1UmTxpanvZtjKfXyQI5EHgIRW6luzOPArvo8wvKO9BfeQnazUIeMj8y6m74lsa/OWOwcBdmz+SrSHLIrlr1M+UuFjG+QWDrM+BQ7M4STMow7cJPsg5Xrv/8bvU5kkP/3jM39Fz1v+YlJce07/rPNhAllfaSgV7ZjbnBgyyOgdentfJOkC5x3Fu1/J/e+8BzpWeD/mfnnMOlnFnHeaxW1K9CZwg9zeTXZojBo+TbiQ7WFbWeG2O7lF0wQR8Dl1dcJ2dqsvzf6dTvewrl8B+qj6363RuBY+I3r9cdtQegMCR0vC/sqcL0OIv7YNkW8jcZUqCwKAEPP7//KAH53Dc/TmUSZHxCawmib4TJJeUZwDwNim2eFJ9CVwj1/9P5i7ZItP5qsw9DncUWSl1VYpApIu/wUbTU6nGDu7Mp/PSl2cA8Im8RFNuEgT8hfUe2ZMlqXXwsU2J9ZfkNtVCAAIVI+Chzdfk4VNeAcDmErtxHoIpMxkCv5HSK0tW60mBHkMjQQACEEiZwEfyEJ9XAJCL2DwAUGZuBH6eW8n9FfxDZT+1v0PIDQEIQCAUAQ+pL5u1ojwCgOUl0ou0kOpNwOPwUdJeEuLVBkkQgAAEUiQwXqL9PZZpyiMA2EcKx2WqksJSI/CcBN8eSLQv/gwFBGoQpEAAAn0TcAAwb99HdTgg6wDAqxbt0aE+dtWDwGNys+iZ/93IHq8MfqgLCQIQgECKBLymjocCMktZBwCe9b14ZuooKFUC0S7+DY5eVeuBxgdeIQABCCRG4MNZ6s06AMhUXJaOUhYEROC/MoYCOBUgAIFUCfh2wPWyEp9lAOCFV9bPShjlQCAnAtNV7q9zKptiIQABCORNYM+sKsgyAMj1oQVZOUw5EBCBD8pYKphTAQIQSJHAeyV6/iyEZxUATJKYHbIQRBkQKIDAnaqD51QUAJoqIACBzAn4evvWLErNKgDILCLJwinKgEAPBI5VntN6yEcWCEAAAtEI7J6FoKwCgEzEZOEQZUCgDwIeS3uoj/xkhQAEIBCBwFSJWHlYIVkEAOtIxIbDCuF4CJRA4A7V+ckS6qVKCEAAAsMQmFsH7zxMAT42iwAgsxmJwzrD8RAYgMAxOuZPAxzHIRCAAATKJOCe93mGETBsADBBlXv8nwSBVAl40SLfwTIjVQfQDQEI1JLAS+T1FsN4PmwA4Jn/iw4jgGMhEIDALdLAUECAhkACBCDQFwGvvjtwGjYAeN/ANXMgBGIROFJyTo8lCTUQgAAEOhLYUXvn65ijw85hAgD/8t+yQ9nsgkBKBBgKSKm10AoBCJjAwrI3DYpimABgJ1Wa6aMJB3WC4yCQEYGbVc5nMiqLYiAAAQgUQeDdg1YyTAAwcKWDiuU4CBRA4Aeq44wC6qEKCEAAAlkQ2EaFeHXAvtOgAcCyqskP/yFBoGoEPBSwl+zRqjmGPxCAQCUJTJRXAy0NPGgA8C5VOOixlWwBnKoUgZvkzQGV8ghnIACBKhMYqEd+0Iv4ULceVLkV8K0yBL4vT86pjDc4AgEIVJnAVDm3SL8ODhIArKpKWPq3X9LkT43A8xK8h+zx1ISjFwIQqB2B8fL4Lf16PUgA4PsOSRCoA4Eb5OSBdXAUHyEAgeQJ9D0PYJAAYPvkMeEABHon8B1lPbf37OSEAAQgUAoBrwcwfz819xsALKXCN+6nAvJCIHECjaGAJxL3A/kQgEC1Cfji39fifP0GAP713+8x1UaOd3UgcL2c/HwdHMVHCEAgaQJ9DQP0ezGn+z/pcwPxQxD4po49b4jjORQCEIBA3gS2UwXjeq2knwBgQRU6tdeCyQeBihHwUIAXCHqyYn7hDgQgUB0Ci8mVTXp1p58A4I0q1CsOkSBQVwLXyfGD6uo8fkMAAkkQ8LW6p9RPAED3f09IyVRxAofLv4sq7iPuQQAC6RLo+emAvQYAzrd1ujxQDoHMCDynknaXPZVZiRQEAQhAIDsC66mopXsprtcAYH0VtkQvBZIHAjUgcI18/GIN/MRFCEAgPQJzS3JPwwC9BgA9FZYeJxRDYGACX9ORFw98NAdCAAIQyI9AT9fsXgOAN+Snk5IhkCSBZ6V6FxlDAUk2H6IhUGkCDgDm6eZhLwHAAiqk59sKulXIfghUiIDvCjikQv7gCgQgUA0Ci8qNjbq50ksAsIUKmbdbQeyHQE0JfEV+X1JT33EbAhCIS2BqN2m9BAB0/3ejyP46E/BQwO6yp+sMAd8hAIFwBDbvpqiXAGCrboWwHwI1J3Cl/HdPAAkCEIBAFAKbSkjH3vtuAcByKmD1KN6gAwKBCRwqbQ4ESBCAAAQiEPDTATfsJKRbALBZp4PZBwEIvEjAQwA7y555cQtvIAABCJRLoOMwQLcAwF0IJAhAoDcCVyjbYb1lJRcEIACB3AkMFQDQA5B7+1BBxQh8Sf5cVTGfcAcCEEiTgH/Ej28nvVMPwGQdtHa7A9kOAQi0JOChgN1lvjuABAEIQKBMAguqci/l3zJ1CgC8+E+n/S0LZCMEIDDXP8Tg63CAAAQgEIDAq9tp6HSBp/u/HTW2Q6A7gYOV5eru2cgBAQhAIFcCr2xXeqcAgAmA7aixHQLdCfgZAe+X+fHBJAhAAAJlEeg7AJggpV3XES7LG+qFQCIELpLObySiFZkQgEA1Cawkt5Zs5Vq7HoB1ldlBAAkCEBiOwOd1+LXDFcHREIAABIYi0LIXoF0A8IqhquJgCECgQYChgAYJXiEAgbII9BUAdFw+sCwPqBcCiRL4m3R/O1HtyIYABNIn0FcAsEH6/uIBBEIR+JzUXB9KEWIgAIG6EPCcvrnHOttqCGCiMq01NiOfIQCBoQg8oaN3lXFXwFAYORgCEBiAwCQdM2Xsca0CgPWUqe3SgWML4DMEINAzgQuV83s95yYjBCAAgewIeHL/qNQqAGD8fxQiPkAgUwIHqLQbMi2RwiAAAQh0J0AA0J0ROSCQK4HHVfqusudzrYXCIQABCIwm0FMA4CEAEgQgkB+BC1T0D/IrnpIhAAEIzEGgawDgIYHV5ziMDRCAQNYEPqUC/511oZQHAQhAoA2BFbV9UvO+sXMAVtLO+Zoz8B4CEMiFgIcC9pS9kEvpFAoBCEBgNAHfBrhO86axAcCazTt5DwEI5ErgLJX+o1xroHAIQAACswmsPfvtXHMRADTT4H1VCSwQ2DEPBdwcWB/SIACB6hB4WbMrBADNNHhfVQK7yLFRXV+BHJ0hLX5sMEMBgRoFKRCoKAECgIo2LG61JzBBu46Tzds+S6l7/qrajy5VAZVDAAJ1INA2AHBvAHcA1OEUqKePvr31s4Fd/4S03RpYH9IgAIH0CUyRC17uf2ZqHgJYQVsij5WOSOYFAgMT8Cp8fihGxPSIRO0uYyggYuugCQLVIOBr/qoNV5oDgNUaG3mFQEUJjJNf02VRb3X9i7QdW1H2uAUBCMQg8OIwQHMA4EUCSBCoOoE15OAXAzv5cWm7PbA+pEEAAmkTeHGonwAg7YZE/WAE9tNhrx3s0NyPelg17CZjKCB31FQAgVoSePHHfnMAsFItUeB0HQn4vJ8mWzCo82dIl4cqSBCAAASyJuD5fjNTcwDwYlTQ2MkrBCpMwOf7VwP793/SxlBA4AZCGgQSJTCloZsAoEGC1zoS+KCc3jqo4x4K+EBQbciCAATSJfBSSZ957W8EAH5C0KLp+oNyCAxEYG4ddYxskYGOzv+g36uKn+ZfDTVAAAI1IuAF0Za2v40AYKUaOY+rEGgmsJw+fKN5Q7D3H5WeO4JpQg4EIJA2gZnzABoBwJS0fUE9BIYisJuO3naoEvI7+CEV/aH8iqdkCECghgSm2OdGAOBfQSQI1JnAUXJ+saAAfi1dJwTVhiwIQCA9AqN6AJZJTz+KIZApAY+JRX4gj4cC7srUYwqDAATqSmDmNb/RA0AAUNfTAL+bCeygD+9s3hDo/f3SsncgPUiBAATSJTBqEuDMD+n6gnIIZEbgCJUU9f/hN9L288w8pSAIQKCuBJay440egKhfeHVtHPwuj4DnAUQeCviw9N1dHh5qhgAEKkBgVA8AQwAVaFFcyIzANirJdwZETPdJ1EciCkMTBCCQDIEXAwD3AiyejGyEQqAYAt9WNcsXU1XftfxSR5zU91EcAAEIQGAWAS/+N58v/kvK/Jx0EgQgMJvAwnr7E5lXC4yY9pGoeyIKQxMEIJAEgaUcAMycDJCEXERCoFgCU1WdnxcQMXkoYN+IwtAEAQgkQWBmAMAzAJJoK0SWROBrqnfVkuruVu2JynByt0zshwAEINCCwCLuAZjcYgebIACBWQTm18t02TxBgXgo4N6g2pAFAQjEJTCJACBu46AsDoFXS8p+ceSMUuKL/8dGbeEDBCAAge4EJjsA8GxAEgQg0JnAl7R7nc5ZStv7M9V8Smm1UzEEIJAigZkBAEMAKTYdmosmMEEVeihgfNEV91ifnxj4QI95yQYBCEBg5hAAPQCcCBDojcD6yvbZ3rIWnuu/qjHqMEXhMKgQAhDoSoAhgK6IyACB0QQO1MeNRm8K88k9FKeGUYMQCEAgMgF6ACK3DtpCEvCiWcfKPCQQMX1Yoh6KKAxNEIBAKAIEAKGaAzGpEFhbQr8YVOwd0sVQQNDGQRYEAhGYuRSw73MmQQAC/RHYX9k36++QwnJ7CePTCquNiiAAgRQJTPRtgPOmqBzNECiZgP93pskWLFlHu+r30A6GAtrRYTsEIDAzAIg6lknzQCA6gZUk8NCgIu+Urk8G1YYsCECgfAIEAOW3AQoSJ+BJd28M6sMx0vXHoNqQBQEIlEtg5hwAhgDKbQRqT5uAHxfsC23EBbVekK69ZTNkJAhAAALNBOgBaKbBewgMSOAlOu7wAY/N+7BbVQFDAXlTpnwIpEdgZg9A1KVN08OJ4joTeL+cf0tQAEdK11+DakMWBCBQDoF5PZN5Yjl1UysEKkfgaHm0WECvPBSwu4yhgICNgyQIlEXAAQA9AGXRp96qEVhGDn0/qFO3SNdngmpDFgQgUAIBBwDzlFAvVUKgqgTeJcfeEdS5H0jXGUG1IQsCECiYgAOA5wuuk+ogUHUCR8jBpQM66aGAvWSPBtSGJAhAoGACBAAFA6e6WhBYXF4eFdTTm6TrgKDakAUBCBRIwAGAfxWQIACBbAlsq+J2ybbIzErzPIVzMiuNgiAAgSQJ0AOQZLMhOhEC35HO5QNq9bDfrjKGAgI2DpIgUBQBAoCiSFNPHQlMktNeJdCrBUZLHgr4fDRR6IEABAoj8DxDAIWxpqKaEniD/P5AUN/dQ3FuUG3IggAE8iXwFD0A+QKmdAiYwNdlqwZE4aEAPzb4iYDakAQBCORL4EkHAM/lWwelQ6D2BBYQgR/L/P8WLV0vQQwFRGsV9EAgfwIzewCezr8eaoBA7QlsJgIfC0rhm9J1XlBtyIIABPIhMDMAeCyfsikVAhAYQ+AQfV57zLYIHxkKiNAKaIBAsQRmBgCPF1sntUGgtgQmyPPpsojP3/iXdB1c25bBcQjUj8DMOQD0ANSv4fG4PAIbqOpPl1d9x5oP196LOuZgJwQgUBUCT3tSEj0AVWlO/EiFgCfdvSKgWE8I9uqFTwbUhiQIQCBbAjMIALIFSmkQ6IXAOGXyUMDEXjIXnOefqu9LBddJdRCAQPEEHiYAKB46NULABNaURb397mvSdrFFkiAAgcoSmBkAMAegsu2LY8EJfEr6Ng2o8VlpYiggYMMgCQIZEiAAyBAmRUGgXwLugfMCQfP3e2AB+a9THYcWUA9VQAAC5RB4xF9AD5ZTN7VCAAIisJos6oX2K9J2Ca0EAQhUksBDDgDur6RrOAWBdAh8RFK3CCjXQwG7y1gtNGDjIAkCQxKYOQTwwJCFcDgEIDAcAQfix8oWGq6YXI6+UqW6J4AEAQhUi8DMIQB6AKrVqHiTJoEpkv2NoNK/LF2XBtWGLAhAYDAC9zAEMBg4joJAHgT2VKFvzqPgIctsDAU8M2Q5HA4BCMQhQAAQpy1QAoGZBI7R30UDsrhCmg4LqAtJEIDAYAQIAAbjxlEQyI3AMir5u7mVPlzBXiHwquGK4GgIQCAAgRnS8LiHAB6SuYuPBAEIxCDwXsnYKYaUUSp8N4AXCGIoYBQWPkAgOQL3WLEDgBdk3AlgGiQIxCFwhKQsGUfOi0ou0zs/NZAEAQikS+DFAMAu3JGuHyiHQCUJLCGvjg7q2cHSdXVQbciCAAS6E7jbWdwD4HT7rBf+QgACgQhsJy3vC6SnIeUpvXm/zI8PJkEAAukRGNUDQACQXgOiuB4Evic3XxrQ1YukKeq6BQFxIQkCoQjcajWNHgCGAEK1DWIg8CKBSXrnVQLnfnFLnDd+nPE1ceSgBAIQ6JEAAUCPoMgGgbIJbCkBe5UtokX9DAW0gMImCCRA4BZrbPQAMASQQIshsdYE3N2+SkACf5embwfUhSQIQKA9AQKA9mzYA4FwBBaQommyecIpm2uuA6Tp2oC6kAQBCMxJwJN37/TmRg8AcwDmhMQWCEQj8BoJ+mg0UdLjoYA9ZNwVELBxkASBMQR88Z+5mFcjAPCygDwVcAwlPkIgIAE/mnetgLoulCbfsUCCAARiE5jZ/W+JjQDA72/wHxIEIBCawASp810B4wKq9FDAvwPqQhIEIDCbQMsA4MbZ+3kHAQgEJrCxtH0qoL7HpcnPCng+oDYkQQACswhc3wDR3ANA5N6gwisE4hP4giRuGFDmBdLk5xiQIACBmAQIAGK2C6og0DOB8cp5nGxiz0cUl/HTqoofFMXxpiYI9EOgZQDAHIB+EJIXAuUTWFMSDixfxhwKPBSwp8xPGiVBAAJxCPh/8sVrPUMAcRoGJRAYhIDnArxykANzPuYslf/DnOugeAhAoD8CvgXQd/3NTM0BgG8DfHBkOy8QgEAaBHw3wHTZfAHlflKamFwcsGGQVFsCL3b/m0BzAODPo3Z6AwkCEAhP4GVSeEhAlY9J094yhgICNg6Saklg1DV+bABwdS2R4DQE0iewr1zYPKAbf5GmowLq6iZp7m4Z2A+BBAn8s1nz2ADgquadvIcABJIh4P/labKFAir+uDT9J6CuTpKW1M4dO2VgHwQSJHBFs2YCgGYavIdA2gSmSP7XA7rgoYC9ZKkNBXgS4xIBeSIJAoMSGPUjf2wAcOWgpXIcBCAQgoAvtG8KoWS0CA8F/Hj0pvCffPE/PLxKBEKgNwJ3KNt9zVnHBgDeeVdzBt5DAAJJEfDY9TGyRQOq9lDAbQF1dZK0s3Zu1ykD+yCQCIFR3f/WPDYA8LZRXQTeQIIABJIisKzUfjug4kekaXdZikMBkwPyRBIE+iEwRw8/AUA/+MgLgXQIvE9S3x5Q7hnSNC2grk6SHFB9tVMG9kEgAQIEAAk0EhIhkBWBI1RQxEls+0mXxyNTSp5bsUVKgtEKgTEE5ujdb9UDcOmYg/gIAQikScC3skVcjvch6fpAYkg9t+Jo2fyJ6UYuBEzAz+cYtQaAN7YKAK7R9ke9kwQBCCRPYEd58N6AXvxOmo4LqKuTpJW185BOGdgHgaAELpGuZ8dqaxUAPKdM9AKMJcVnCKRL4PuS/tKA8j8qTakNBVjzpgFZIgkCnQhc1GpnqwDA+VpmblUA2yAAgfAEPIPd9+BHW972YWlKbSjA35m+zXKijASBVAi0vKa3CwAuTsUrdEIAAj0ReINy7dFTzmIzeSjghGKrHLo2P3zpc0OXQgEQKI5AXwFAy8zFaaUmCEAgBwLfUpkex46W3K1+VzRRXfT4Ucev6JKH3RCIQOBeibi5lZB2PQDOfHerA9gGAQgkS2ABKZ8ma/d/X5Zj96tiPzY4pTROYj2sMj4l0WitJYG/t/O60xcBwwDtqLEdAukS8AS2jwSU/xtp+nlAXZ0kvVw7P90pA/sgEIBA22t5pwDgwgDCkQABCGRP4FAV6XHsaOnDEnRPNFFd9Byg/Wt1ycNuCJRJ4Lx2lXcKAM5udxDbIQCBpAnML/XTZPME88IPI/OKeymlCRJ7rCway5QYojU/Ak+r6L+1K75TAOBuA68eRIIABKpH4FVyyRPZoqVfS9BJ0UR10bOx9n+sSx52Q6AMAp7Q3/Y63ikAcOTAMEAZTUadECiGwEGqxuPY0dI+EpTaUMCXpXmNaCDRU3sC53Qi0CkA8HEMA3Sixz4IpE1gXsk/TubXSMlDAftGEtSDFg8FeIGgbt+pPRRFFghkRqDjNbzbydrx4MwkUhAEIFAWgXVV8YFlVd6h3hO17+QO+yPu2kSi3HtBgkAEAs9KRMde/G4BwN9VwJMRPEEDBCCQG4HPqGSPY0dLvpjeG01UFz2Haf9KXfKwGwJFEPADgGZ0qqhbAPCUDm47g7BTweyDAASSIeBFbabJJgZT7It/apPrFpBmP4J57mAskVM/Amd1c7lbAODjz+xWCPshAIHkCawhDzyRLVr6mQR5kaCU0lYSu2tKgtFaSQKnd/OqlwDgT90KYT8EIFAJAv61vXlATz4gTQ8E1NVJkp+78JJOGdgHgRwJPKayz+9Wfi8BgNcDSO2WnG5+sx8CEJiTgL8PfiJbaM5dpW75r2pPbShgkjR7KIAEgTIInKVKPYTfMfUSADyvEs7oWAo7IQCBqhBYUY54Ilu0dJwEnRpNVBc922j/u7rkYTcE8iDQU899LwGAxfVUWB5eUCYEIFA4AXe5v6nwWrtX+CFlebB7tlA5vic1S4ZShJg6EOjpmt1rAHCaiLkngAQBCFSfgGewHy1bJJird0rPx4Np6iZncWX4TrdM7IdAhgRuVlnX91JerwGAb8e5vJcCyQMBCFSCwHLywhPZoiXPUfAPkpSShwF2SEkwWpMm0NOvf3vYawDgvH/0HxIEIFAbArvI0+0Deru3ND0cUFcnSUdoZ7QelU562ZcugT/0Kr2fAKDnQnutnHwQgEB4AkdKobuxI6XbJGb/SIJ60LKM8nyjh3xkgcAwBB7XwX/utYB+AgCvKezbcUgQgEB9CCwlVz0fIFr6sQSl1iu5mzRvHQ0keipFwP8TT/TqUT8BgCcB/rrXgskHAQhUhsBb5cm7g3nzgvTsIXsomK5uctyjEm2dhW6a2Z8Ogb6u0f0EAEZwSjocUAoBCGRI4AcqK9rKdndI06cz9LGIopZXJV8toiLqqB2B5+RxX0P1/QYAZ6qC1O7Drd1ZgMMQyIHAZJXpbvdoD7k5Spq6rnmeA49hitxHB79+mAI4FgItCJyrbfe12N52U78BwDMq6fdtS2MHBCBQZQJ+yM3uwRz0UMBeso6PPQ2mubHOgp8cSIJAVgT66v53pf0GAD6GYQBTIEGgngS+KbdXCOb6LdKT2lDAitJ8cDCOyEmXgAPhQgIAzzL0k4ZIEIBA/QgsLJePlflXbKT0Q4np+fanIMI/Jh2vCaIFGWkTuEjyb+rXhUF6AHyfoYMAEgQgUE8CU+X2h4O57l9AfoZBSj9O/P3ruwImyEgQGIbAzwc5eJAAwPX8bJDKOAYCEKgMAc9kXy2YN/+Rns8G09RNzlrKcGC3TOyHQAcCvkX/Fx32t901aADgiYAPtC2VHRCAQNUJzC8Hp8nmCebo96Xn7GCausnx/IUNu2ViPwTaEPDsf98S23caNAB4WjX9qu/aOAACEKgSgVfLmWhL8vrX0G6yRxMCPU5afYvl+IQ0IzUOgYG6/y1/0ADAxzIMYAokCNSbgGeyrxMMgSdDfT6Ypm5y1lWGT3TLxH4IjCHwrD6fPGZbzx+HCQDOUS239VwTGSEAgSoS8AS242TzBnPuO9LjrtGUkoMWzwkgQaBXAn9Rxnt6zTw23zABgLvaThxbIJ8hAIHaEVhPHkebfOfvJz8roOcHowRoNQdTfvBStHkVAdAgoQ2BE9ps72nzMAGAK2AYoCfMZIJA5QkcIA83Cubl9dKT2lCA51V8NBhH5MQk8IhknTSMtGEDgCtU+WXDCOBYCECgEgQ8kW26bL5g3nxTes4LpqmbnC8rwyrdMrG/9gQ8+c/r8gychg0AXLFnr5IgAAEIrCEEnhQYKaU4FOBbLI+RzR0JJFrCEfjJsIqyCACOl4ihopBhneB4CEAgDIGPS8lrw6iZJeRfeokWmHRDtLky7N0tE/trS8DDW38b1vssAoCHJWKocYhhneB4CEAgDAF/p0yTLRhG0SwhX9fL+cE0dZNzmDIs3y0T+2tJwD3vXv56qJRFAGABnrlKggAEIGACK8q8VHCk1BgKeDKSqC5aFtZ+f9EzFNAFVM12+95/97wPnbIKAM6TkuuGVkMBEIBAVQh8UI5sGcyZf0rPl4Jp6ibHDHfulon9tSJwmry9MwuPswoArIXJgFm0CGVAoBoE/Kt1mmyRYO58TXouDqapmxwvarRct0zsrw2BH2TlaZYBwHSJeiorYZQDAQgkT8AXrW8E88Ldp++X+XkmqaRJEuoHBpEgcKMQnJ4VhiwDgPskipUBs2oZyoFANQjsJjfeFsyVq6Tny8E0dZMTrSelm17250PgRyrW81kySVkGABbkrioSBCAAgWYC/tJasnlDgPdfkYZLAuhAAgR6JeBlrYe+97+5sqwDAK8K6AmBJAhAAAINAkvojYOASMlDAbvLUhoKiMQPLcUTcA/7/VlWm3UAYG3fzVIgZUEAApUgsIO8eGcwT66UHvcEkCCQAoEfZi0yjwDgFIm8LWuhlAcBCCRP4Ah5sHQwLw6VniuCaUIOBMYS8J0rmd+9kkcA4K61zG5TGEuBzxCAQLIEFpPyaIuGeQhgF9kzyVJFeB0IfCsPJ/MIAKzzSBnPB8ijxSgTAmkT2EbyfWdApOQegGgrF0big5ZyCdyu6nNZbj+vAOBBCT6uXGbUDgEIBCXgXzPR1rj3bYG+PZAEgWgE/P+SSw9VXgGAAfrhGx4OIEEAAhBoJjBJH3w7k1cLjJIYCojSEuhoJvCIPuS2ym6eAcB/JPyXzZ7wHgIQgMAIgal69fMCIqXLJObwSILQUnsCnvn/cF4U8gwArNnjakM/sjAv5ykXAhAolYDX5V+1VAVzVn6wNl0952a2QKBwAu72950zuaW8AwDfZ3tabuopGAIQSJnA/BI/XTZPICf8PBPuCgjUIDWWcoJ8z/WW+rwDALcdC23U+AzGdQh0IfBq7d+vS56id1+qCj3xigSBsgh4vf/ch6OKCAC8NDDLA5d1GlEvBOIT+JIkrhNM5uel55pgmpBTHwK/kqu5D0UVEQC4ybzaFgkCEIBAKwITtNF3BYxvtbOkbR4K2FP2XEn1U219CXje3CFFuF9UAOB5ABcW4RB1QAACSRLYUKo/G0y5v7O+HUwTcqpP4Ddy8fIi3CwqALAv7lIjQQACEGhH4EDt2KjdzpK2H6B6ry2pbqqtJ4FCfv0bbZEBwBmq7yxXSoIABCDQgsA4bfNdARNb7Ctrk4cC9pAxFFBWC9Sr3j/I3cwf+tMOYZEBgDV8rp0QtkMAAhAQgTVkBwUj4aGA7wXThJxqEih0vlzRAYDvBnBPAAkCEIBAOwL7a8cm7XaWtN1DAf8uqW6qrQeBP8nN84t0tegAwL55og+rAxbZytQFgbQIeGGgn8oWDCTbTzf1AkG+P5sEgawJ+JpY+CTYMgIAj294nIMEAQhAoB2BlbSj0O7QdkKatl+g97kuzdpUF2/rReDnctcLUBWayggA7OAnZM8W6imVQQACqRH4sAS/MZjoT0sPQwHBGiVxOV7zv5T5cWUFANfJ4WmJNxryIQCBfAn4ccHHyCbnW01fpXsoYE8Zw5h9YSNzBwJHa18pQWVZAYBZHCib4TckCEAAAm0IvETbc18TvU3d7TafpR1+TCsJAsMSeEwFeCnsUlKZAcDd8vibpXhNpRCAQEoE3i+xOwQT/EnpuTGYJuSkR8ArTd5VluwyAwD77Mj+v2U5T70QgEAyBDz5btFAav3LbW8ZQwGBGiUxKfdK79fL1Fx2APConP9CmQCoOxcCHruNlKLpicQmFS3LSOj3g4n9i/QcFUwTctIh4OXxHy5TbtkBgH0/Vpb7Yw/LhFzDuheQz5EuupHuJ6/h6ZCZy+9WSTtlVlo2BXko4NZsiqKUGhG4Sr568l+pKUIA8JwI7FsqBSrPmoAXclks60KHKG/pIY7l0FgEfiA5SwWS9Ii0cFdAoAZJRMrHpNPXvlJThADAAP4q80IIpOoQWDeQKy8PpAUpwxFYXIcfOVwRmR99ukr8cealUmBVCfxajnn4qPQUJQAwiP1lj5ZOBAFZEdgyq4KGLMf3kG80ZBkcHovA9pKzSyxJc31cehgKCNYoAeU8LU2fiKIrUgBwu6AcEgUMOoYm8E6V4KGAstM7JGDeskVQf+YEfPvUSzMvdfACPRTwgcEP58iaEPiu/Lwhiq8RvqCbWVykD/7CdjcfKW0Ci0i+T/QrS3RjnOr+mSzSfIQScVSq6onyZi2Z2zdK8mpuK8jWjyIIHaEI+JZ3/zB6KpSqYGLeID2+txZLn8GdakcHAmUlP12L86jaDPYp6+RqU+8kbfdQAOcdDMaeA+9qc86weQyBk/kHqswXyKlqyzKGmjZVvY60x/4T8rlaTGaojVeWRUrbSAznGQyaz4E/RTpBo2tZTgIf4p+oMl8iP1JbFhkEbKD67uP8qcz50/xF2ur9OQWfX6qua5quHK20sq1+XJ7QubBK1zOmhAzR5gA0EDiqdwDgSJqUPoFXyIV1ZH+U5T3+ta3q8G02ZQ49qHpSgQRWUF3+zriwwDq7VeWgZGfZQt0ysr/yBL4kD0+pvJcZO+hfjP4nImKuDoOb1J6e5JnHKoHLqtyfyJ6Xcc7Uj4F/Za0hi5S2kxjOxXoz+KfOgQmRTsqUtKwusf7H5p+oWgzOU5t6sqeDvGGTL/wHybyGBOdJvRn4LiLf+REpHS8xnJf1ZOAfI1MjnYwpajmQf6DKfoHcrrb9mmwT2fyyXtMUZdxF5ok1z8r4goVB4xz4nM6HSMm3oPr2r4Y+XuvDYlqkE7GVljy6YlvVM8y28Tr4EpnHkEnVJeAL+bWyK2T3yx4cMd/vvajMY/pTZBvKWCdCEEgtCTytra+UXd5ybzkbd1C1vyqnamotiYBvgV5b5u+xsCmFAMDwNpadL4vWvWdtJAhAIBaBqyTHyz/nPeG0H6//nzJzH3g/xNLO6/kfv43uQtS7AMZyu0Mb3BOw+dgdfIYABCAwhsBS+uzvthAPXBnRdpZed5EtOPKZl+oS+KlcOywF91LpATBL//q/QMaDXUyDBAEIdCLgCVj+wXBep0wF79te9XlhLFJ1Cdwl17xE9QMpuJjFLOyi/PQYsSNo3xVAggAEINCJgL/bpski/eL+tfT8UkaqLoEPybUkLv5uglSGABqny31686Rsq8YGXiEAAQi0IeDJowvIvABVlHS2hOwm6+eulyja0dGZwIna/eXOWWLtTS0AML2/y9y1N0VGggAEINCJgCcQnyu7uVOmAvc9prpuk729wDqpKn8CnqfmiX9J9VCnNAeguQmn6INvF1u4eSPvIQABCLQgcLO2rSt7pMW+sjadpIp3LKty6s2UgOebuFc60qTTnhxMaQ5As0M368NHmzfwHgIQgEAbAlO0/fA2+8ra7McY31tW5dSbKYFvqLTkLv4mkOIQQKPl3AOwssyRPQkCEIBAJwJeQOpi2Q2dMhW473HV5cVi3lZgnVSVPYHLVOR7ZM9lX3T+JaY6BNAg4wk+/5D5mQEkCEAAAp0IeEnetWWRZmn/Snq8UiApPQKekO7b0q9OT/osxakOATR4e0LNO2RuCBIEIACBTgSW0c7vdspQwr4Pqc5IAUkJCJKt8mNSnuzF39RTHgJonDX36M2jsq0bG3iFAAQg0IbAy7XdX9rXtdlf9GZ/d3nxGHoBiiY/XH2/1uH7D1dE+UenPgTQIGg/TpFt39jAKwQgAIE2BO7Tdg8F3N1mfxmb/f311jIqps6+CdyqIzaQ+aFlSaeqBABuhMVkl8qW9wcSBCAAgQ4EfMGNNAFvOelxz8TkDprZVT4BP2BqM5knlCafUp8D0NwAjsbcA5DUQgzNDvAeAhAojIC73N9XWG3dK/JCMvt1z0aOkgl8XPVX4uJvjlXqAWicF3vqzVGND7xCAAIQaEPgYW1fR+aV+aKkP0jIm6KIQccoAr/Qp3eO2pL4hyoGAG6SY2TvT7xtkA8BCORP4AxV4VXcXsi/qp5qWFa5PBSwSE+5yVQUAa8f8QrZI0VVWEQ9VbgLoBWn07XxjTKPq5EgAAEItCOwknZ4fYBL2mUoePsM1efhzO0Krpfq2hPwbebulbmlfZY091S1B8CtsYLM/9SeHEiCAAQg0I7Ao9rh2wNvapeh4O3+XvYTDHnqacHg21TnuSLHt9mX9OYqTQIc2xCO1pJdonGsM3yGAARyI7CgSv6JLMr3oYcjPJepUt3N8ifFdLhEV/Li78ao6hBA40S7UW/cpebhABIEIACBdgSmaIcnBf6tXYaCt1vLg7JtCq6X6mYT+LPe7iZzQFbJVPUAwI3mf+ilZZ7AQYIABCDQjsDrtMPrA9zbLkPB272uyatlKxdcL9XNNdf1guDVZf3QpsqmKs8BaG608frgMbWpzRt5DwEIQGAMAV90XyV7Zsz2sj6uoIqvki1UloAa1uteYwde11Td9zr0ALgNn5f9TuaVv5gUKAgkCECgJQE/MMirvZ3bcm/xGz0UYHtL8VXXskZfK/yAufPq4H1degAabbmG3lwom9TYwCsEIACBMQSe1ueNZVeM2V7WR39P/1X2urIE1Kjez8jXr9bF37oFAG5XTwh0b8A4fyBBAAIQaEHAF38HAQ4GIqSVJOJK2QIRxFRUgxeQ890XtUl1GQJoblDfGXCnpBbx4QAAD0RJREFUjIU2mqnwHgIQaCbgicO+LdC/vCMk3xHgsWmWCc6nNf6kYt8r8xBAbVIdAwA37mUy9368TkaCAAQg0IrAJtp4uuyOVjtL2PYP1fk62RQZKTsCnuz3ZlmlZ/y3wlXHIYBmDkfowwebN/AeAhCAQBOBf+n9+rIoTxldUVo8FODFi0jDE3BvsO/6uG34otIroa49AI2WcrfPurLVGxt4hQAEINBEYHG9n1/m74oI6SGJcDDie9RJwxHwkMobZNcPV0y6R9e9B8At50k1Z8o28gcSBCAAgTEEPC48VXb2mO1lffTchHNkrylLQAXq9ToPngfm9WFqmwgAZjX9kno5X7ZKbc8EHIcABDoRuEk7Xy57tFOmAvetproul81XYJ1VqcoBnR/wc0JVHBrUj7oPATS4PaY3p8q8UNDkxkZeIQABCIwQWESvXkTMtxBHSH5k8JOyrSKISUzDftJ7dGKac5FLD8BorKvqo7vWfAsQCQIQgEAzAT8Uxivynda8scT3HgrwsMSmJWpIreoDJPjQ1ETnpZcAYE6y7ubznIBF59zFFghAoOYE7pT/68geCMLhZdLh25oZCujeIN9Tlo92z1afHAwBzNnWd2uTo+p3yibMuZstEIBAjQn4oTzLyk4JwsBDAZ7Q5tnspPYEjtOuD7TfXc899AC0b/fXa5fH+ya2z8IeCECgpgQ8XyhKEOAfchfIvHQxaU4CJ2uTf9A9N+euem8hAOjc/ttq90myeTtnYy8EIFAzAvfI37Vl9wbxe03puFRGr+XoBvHk7nfI3EtCGkOAIYAxQMZ89AIRl8h2lPHwoDFw+AiBGhPw+iGryU4MwsCBiG9vc88laRYBT9bcSfY0QFoTIABozaV567/1wZE1QUAzFd5DAAKrC4G/H64KguJC6fDDgpYLoqdMGb747yB7qkwR0etmCKD3FtpaWT3mx5yA3pmREwJVJ/CQHHy57LYgjq4hHf7BUufvKa/u54u/10kgdSBAD0AHOGN2OdL307jeLmM4YAwcPkKgpgR8ofVcgOOD+H+fdHh9gC2C6ClaBhf/PogTAPQBS1lvlDEc0B8zckOg6gRWloN3yPzdECF5KGAb2TIRxBSo4Q+qi27/PoAzBNAHrKasW+q9hwMWbNrGWwhAoL4EZsh1DwXcHATButJxkawudzD9Ur7+r4wJf4LQa3JXEal/AmfokKkyd7eRIAABCCwkBD+VRflOvUJavlKTZvHwy3tkXPxr0uBR3PS9t7fLvEY4BgPOAc6BfaN8OUnHONk/Kv7d9H35FyXokpS0EkMAw7fXiiridNkqwxdFCRCAQOIEPPN8Q9m1QfzwUMDFsvFB9GQp4zAV9uksC6xbWUROw7f4TSpiM1mUe4GH94gSIACBQQn4roAfy6JMsPZQwFcHdSboce5p21/GxT9oA9VR1mJy+m8yuoFhwDnAORDp4uSJgFdW5LvJS/ruJiNlQIAhgAwgNhXh6H+6zGtPkyAAgfoS8IS0jWS+8EZI60mE7wpIeSjgMen3Q31+LyNlQCBKN1UGroQo4lmp8O2Bi8o2DqEIERCAQBkE/N26iexYWYSn0N0lHf6B4uHKFJP1byU7O0XxUTUTAGTfMu7+9TrUXiLUJyy9LIJAgkANCSw94vOZQXw/XzreKlsyiJ5eZXgV1tfLrun1APL1RoCLU2+cBs21ow70PaqOvEkQgED9CLhX8DUyd79HSBtIxN9kqQwFWKsfy86aK4KQdeIugKyJji7vZH3cWvbA6M18ggAEakLA9+JPk0X5EeDlir8lSyGdJJFbyLj4p9BaaGxLYGXtcfcVs8NhwDlQz3Pg8LbfDsXvmKAqrw7+ffQd6eMHavHnBjXmRMBLhf5GxgUABpwD9TsHPBFw85y+WwYp9pU6yMMT0c7FJ6Rp50Ec4pj+CTAJsH9mgx7h24J+IXP0vemghXAcBCCQJAHPt3IA4LsC/F1QdrpDAvyjxHcqREl3SoiHTP8QRVDVdRAAFNvCjrbPkN0ge4vM44MkCECgHgQWkZuTZVHuYz9HWt4mW0JWdrpMAraUXVe2EOqHQBEEPDP4Llm0Ljj00CacA/mdA8/rf/4NRXzB9FiHv4c8PFFmmx+n+qNMkuwRG9kgMDyB5VTE+bIy//moG/6cA8WeA7fqf949AVGS7woo4xx4RvV+PAoEdECgDAIeBviqrIx/QOqEO+dAOefAtDK+bNrUOb+2Xy8r8ly4W/V5cR8SBCAgAu+SzZAV+U9IXfDmHCjvHPBCYVGSJwMWNRRwtupaJorj6IBAFAIvk5Do9+dywSjvggH7arG/R//vkZbl9b33eZ5jnv/gOsbLSBCAQAsCC2ubbxfM8x+RsuHLORDjHPD/epS0gITcKMvj3HhQ5W4fxVF0QCA6gb0k8HFZHv+MlAlXzoE454CH/6Kk10mIf6lneX5covK8GioJAhDog8Dqynu5LMt/RsqCJ+dArHPAv45f0sf3Qt5Zj8joO6fR5e/Fz0gQgMAABHx/rMfNso7KuQjEugjQHvVujz/pfzzK01k9FPBv2TDnpGf5v1lGggAEMiDg53jfLxvmn5Jj4cc5EPcceH8G3xNZFeGn8A36o+OPOnbprIRQDgQgMIvA8nr5i4wvcRhwDlTvHHhY/9srzPpXD/H3R31+13jO0gdlUXoyQkBEBASyJOB/ro/KmCBYvQsAF3Xa1AF+lAuoHxZ0s6yX89JzldaSkSAAgQIIrKQ6zpX18s9JHjhxDqRzDnykgO+PXquYqoydhgK8nK9XMmWiX69EyQeBjAh4GeFPyZ6S8QUPA86BapwDj+n/eTVZlHS0hLQ6t7xo2SuiiEQHBOpKYH05fqWs1T8p2+DCOZDeOeCHhM0T5AttknT4AUaN88i/+r8sm1dGSphAlBMsYYQhpN8lFY7SPS9gU5l7BkgQgEC6BF4q6f5/diBQdnIP41Wy98mulW0nO172nIyUMIEok00SRhhOuhcPOkq2WThlCIIABPoh4Auvu9jd1R4h+eFFv5NZF6kCBAgAKtCILVxwuzpa/5Zs0Rb72QQBCKRBwLPrXyl7Og25qEyJAEMAKbVWf1qvUPafyqbI1pSRIACB9Ah4QR3Pwj8rPekojk6AHoDoLZSNvm1VjJcTXjGb4igFAhAokMCzqmsT2cUF1klVNSBAAFCDRh5xcT69+pZBm58vQIIABNIhcJ2kbih7Ih3JKI1OgCGA6C2UnT7/ijhLdqLMiwhFus9YckgQgEAHAkton2+7+3OHPOyCQF8E6AHoC1elMntY4NsyBwMkCEAgPgHPBdhCdk58qShMgQABQAqtlJ9GDwX8n+wzsoXzq4aSIQCBjAj4Mb3rybxaIAkCQxFgCGAofMkf7GGB82ReRMjBgMcY/0dGggAEYhLwbb1eme8PMeWhKiUCBAAptVZ+Wj2xyM/w/oVsKRlP9RIEEgSCEthIuv4uc28ACQIDE2AIYGB0lT5wS3l3uGzdSnuJcxBIl8Ctkv5y2cPpuoDysgnQA1B2C8Ss/z+SdaTsGpmDgMVkJAhAIA4BDwO4t+7XcSShJDUCBACptVixev3gjx/IHAh4fsAiMhIEIBCDwPqScZXsuhhyUJEaAYYAUmux8vT6HuRdZQfJlpGRIACB8gncKwlry+4pXwoKUiNAD0BqLVaeXj/68xLZj2SPyDw0sICMBAEIlEfA/4PLy04qTwI1p0qAW75SbbnydPv+48NkU2Qfk90hI0EAAuUQuFDV/qycqqkVAhCoOwEPDewsu172AgYDzoFCzgGv3+HVPEkQgAAESifg3qSdZJ44SCAAA86B7M8BLwX8W9mrZCQIQAAC4Qg4ENhOdqaMiwAMOAeGPwee0f/S8TJP9iNBIDMC3AWQGUoKakHAa5bvI/MQAY8gbgGITRDoQMCTbafJvim7RUaCQKYECAAyxUlhbQgsre0fkH1YxqJCbSCxGQIjBLzE7/dlx8g86ZYEAQhAIHkCvmVpb9llMrqGYcA5MPsc8Pj+6bI3y7g7SxBI+ROgByB/xtTQmsCrtdnDA544yPBAa0ZsrT6Bh+Wib+P7oezq6ruLh5EIEABEao16apkst98h21e2Zj0R4HUNCXhRraNkJ8geraH/uByAAAFAgEZAwkwC7vacKttVtoNsfhkJAlUi8JCc8Wx+X/i9hj8JAqUSIAAoFT+VtyGwsLa7V2AX2WtknKeCQEqSgMf2z5X9RPYL2RMyEgRCEOCLNUQzIKIDgeW1792yvWQrdcjHLghEIuAn9PmCf5zsP5GEoQUCDQIEAA0SvKZAYEOJ3FnmiYM8kTCFFquXxvvl7smyn8q8VC8JAqEJEACEbh7EtSHgp1huLnunbEcZawsIAqkUAr7o/0b2c9kZMj81kwSBJAgQACTRTIjsQGC89r1e9nbZtrIlZSQI5Engvyr8VNmvZGfJnpWRIJAcAQKA5JoMwR0I+E6C9WUOBLaReciABIEsCNyqQnzR/63sLBkXfUEgpU2AACDt9kN9ZwKravf2MgcEm8jGyUgQ6IWAL/AXyk4bsct7OYg8EEiJAAFASq2F1mEIeBlirz645YjROzAMzWoee6/cOkv2O5l/6T8oI0GgsgQIACrbtDjWhYBvKdxqxKbqdVKX/OyuHgE/aOd82Vkyr8N/qczPJyBBoBYECABq0cw42YWA7ypYXeZFhzaVvU72UhmpWgQelzuXyXyL3hmyc2VPyUgQqCUBAoBaNjtO90BgDeXZbMQ8f8A9BqS0CNwtuX+X/U12juwi2TMyEgQgIAIEAJwGEOiNgIcI1pF57oB7ChwcLC0jxSDgC/sNMv+6d7f+JbJrZXTpCwIJAq0IEAC0osI2CPRGwMsUbyTbQLa2zAHCFBn/V4KQY/LkvCtkV8quknmGvj/z614QSBDolQBfVL2SIh8EeiOwkLKtJXMw4KDA5vkFy8pI/RHwY3L9q/5fMl/sG3ab3pMgAIEhCRAADAmQwyHQI4EFlW8VmdcmaLw23td5KMFPx7tJdr3MF/uG+fOdMhIEIJATAQKAnMBSLAT6IDBReV8yYr77wEMLy8ka75fQ+8Vl42UppYck9h6ZJ+PdKvMv99ub3vvz/TISBCBQAgECgBKgUyUEBiQwWcf5WQcOBhq2mN4vKpt/xDxZ0b0N/uxXH9P4P19E75vTwvowz8gG3xP/dNNO3zLXuEXO771/huyRkffe5gu8t/v1Ppkv9F5Mx+9tz8hIEIBAUAL/H0wIq5UXXMAdAAAAAElFTkSuQmCC;textShadow=0;labelBorderColor=none;fontColor=default;imageBackground=#FFFFFF;" vertex="1" parent="1">
          <mxGeometry x="200" y="1115" width="50" height="50" as="geometry" />
        </mxCell>
        <mxCell id="LlsY5RYBl1xxhd0hf_0L-109" style="edgeStyle=orthogonalEdgeStyle;rounded=0;orthogonalLoop=1;jettySize=auto;html=1;entryX=0;entryY=0.5;entryDx=0;entryDy=0;" edge="1" parent="1" source="LlsY5RYBl1xxhd0hf_0L-110" target="LlsY5RYBl1xxhd0hf_0L-108">
          <mxGeometry relative="1" as="geometry" />
        </mxCell>
        <mxCell id="LlsY5RYBl1xxhd0hf_0L-110" value="" style="image;points=[];aspect=fixed;html=1;align=center;shadow=0;dashed=0;image=img/lib/allied_telesis/computer_and_terminals/Personal_Computer.svg;" vertex="1" parent="1">
          <mxGeometry x="100" y="1109.1" width="45.6" height="61.800000000000004" as="geometry" />
        </mxCell>
        <mxCell id="LlsY5RYBl1xxhd0hf_0L-111" value="" style="edgeStyle=orthogonalEdgeStyle;rounded=0;orthogonalLoop=1;jettySize=auto;html=1;" edge="1" parent="1" source="LlsY5RYBl1xxhd0hf_0L-114" target="LlsY5RYBl1xxhd0hf_0L-116">
          <mxGeometry relative="1" as="geometry" />
        </mxCell>
        <mxCell id="LlsY5RYBl1xxhd0hf_0L-112" value="" style="edgeStyle=orthogonalEdgeStyle;rounded=0;orthogonalLoop=1;jettySize=auto;html=1;" edge="1" parent="1" source="LlsY5RYBl1xxhd0hf_0L-114" target="LlsY5RYBl1xxhd0hf_0L-118">
          <mxGeometry relative="1" as="geometry" />
        </mxCell>
        <mxCell id="LlsY5RYBl1xxhd0hf_0L-113" style="edgeStyle=orthogonalEdgeStyle;rounded=0;orthogonalLoop=1;jettySize=auto;html=1;" edge="1" parent="1" source="LlsY5RYBl1xxhd0hf_0L-114" target="LlsY5RYBl1xxhd0hf_0L-137">
          <mxGeometry relative="1" as="geometry" />
        </mxCell>
        <mxCell id="LlsY5RYBl1xxhd0hf_0L-114" value="" style="dashed=0;outlineConnect=0;html=1;align=center;labelPosition=center;verticalLabelPosition=bottom;verticalAlign=top;shape=mxgraph.weblogos.java" vertex="1" parent="1">
          <mxGeometry x="500" y="1107.5" width="34.4" height="65" as="geometry" />
        </mxCell>
        <mxCell id="LlsY5RYBl1xxhd0hf_0L-115" style="edgeStyle=orthogonalEdgeStyle;rounded=0;orthogonalLoop=1;jettySize=auto;html=1;exitX=1;exitY=0.5;exitDx=0;exitDy=0;entryX=0;entryY=0.5;entryDx=0;entryDy=0;" edge="1" parent="1" source="LlsY5RYBl1xxhd0hf_0L-116" target="LlsY5RYBl1xxhd0hf_0L-121">
          <mxGeometry relative="1" as="geometry" />
        </mxCell>
        <mxCell id="LlsY5RYBl1xxhd0hf_0L-116" value="Cadastrar metas" style="whiteSpace=wrap;html=1;verticalAlign=middle;dashed=0;fillColor=#6d8764;fontColor=#ffffff;strokeColor=#3A5431;" vertex="1" parent="1">
          <mxGeometry x="571.6" y="1110" width="120" height="60" as="geometry" />
        </mxCell>
        <mxCell id="LlsY5RYBl1xxhd0hf_0L-117" style="edgeStyle=orthogonalEdgeStyle;rounded=0;orthogonalLoop=1;jettySize=auto;html=1;exitX=1;exitY=0.5;exitDx=0;exitDy=0;" edge="1" parent="1" source="LlsY5RYBl1xxhd0hf_0L-118" target="LlsY5RYBl1xxhd0hf_0L-126">
          <mxGeometry relative="1" as="geometry" />
        </mxCell>
        <mxCell id="LlsY5RYBl1xxhd0hf_0L-118" value="Mudar status&amp;nbsp;&lt;div&gt;da meta&lt;/div&gt;" style="whiteSpace=wrap;html=1;verticalAlign=top;dashed=0;fillColor=#6d8764;fontColor=#ffffff;strokeColor=#3A5431;" vertex="1" parent="1">
          <mxGeometry x="457.2" y="1260" width="120" height="60" as="geometry" />
        </mxCell>
        <mxCell id="LlsY5RYBl1xxhd0hf_0L-119" style="edgeStyle=orthogonalEdgeStyle;rounded=0;orthogonalLoop=1;jettySize=auto;html=1;exitX=1;exitY=0.5;exitDx=0;exitDy=0;entryX=0;entryY=0.5;entryDx=0;entryDy=0;" edge="1" parent="1" source="LlsY5RYBl1xxhd0hf_0L-120" target="LlsY5RYBl1xxhd0hf_0L-124">
          <mxGeometry relative="1" as="geometry" />
        </mxCell>
        <mxCell id="LlsY5RYBl1xxhd0hf_0L-120" value="Meta concluida" style="rhombus;whiteSpace=wrap;html=1;verticalAlign=middle;dashed=0;" vertex="1" parent="1">
          <mxGeometry x="780" y="1240" width="80" height="80" as="geometry" />
        </mxCell>
        <mxCell id="LlsY5RYBl1xxhd0hf_0L-121" value="&lt;span style=&quot;text-wrap-mode: nowrap;&quot;&gt;Armazena todas&lt;/span&gt;&lt;div style=&quot;text-wrap-mode: nowrap;&quot;&gt;&amp;nbsp;as mensagens&lt;/div&gt;" style="whiteSpace=wrap;html=1;fillColor=#6d8764;fontColor=#ffffff;strokeColor=#3A5431;" vertex="1" parent="1">
          <mxGeometry x="757.2" y="1110" width="120" height="60" as="geometry" />
        </mxCell>
        <mxCell id="LlsY5RYBl1xxhd0hf_0L-122" value="" style="outlineConnect=0;dashed=0;verticalLabelPosition=bottom;verticalAlign=top;align=center;html=1;shape=mxgraph.aws3.mysql_db_instance_2;fillColor=#2E73B8;gradientColor=none;" vertex="1" parent="1">
          <mxGeometry x="857.2" y="1145" width="50" height="50" as="geometry" />
        </mxCell>
        <mxCell id="LlsY5RYBl1xxhd0hf_0L-123" style="edgeStyle=orthogonalEdgeStyle;rounded=0;orthogonalLoop=1;jettySize=auto;html=1;exitX=1;exitY=0.5;exitDx=0;exitDy=0;" edge="1" parent="1" source="LlsY5RYBl1xxhd0hf_0L-124" target="LlsY5RYBl1xxhd0hf_0L-133">
          <mxGeometry relative="1" as="geometry">
            <mxPoint x="1072.8" y="1351.904761904762" as="targetPoint" />
          </mxGeometry>
        </mxCell>
        <mxCell id="LlsY5RYBl1xxhd0hf_0L-124" value="Dispara evento" style="whiteSpace=wrap;html=1;dashed=0;" vertex="1" parent="1">
          <mxGeometry x="919.8" y="1322" width="120" height="60" as="geometry" />
        </mxCell>
        <mxCell id="LlsY5RYBl1xxhd0hf_0L-125" style="edgeStyle=orthogonalEdgeStyle;rounded=0;orthogonalLoop=1;jettySize=auto;html=1;exitX=1;exitY=0.5;exitDx=0;exitDy=0;" edge="1" parent="1" source="LlsY5RYBl1xxhd0hf_0L-126" target="LlsY5RYBl1xxhd0hf_0L-120">
          <mxGeometry relative="1" as="geometry" />
        </mxCell>
        <mxCell id="LlsY5RYBl1xxhd0hf_0L-126" value="Atualiza status" style="whiteSpace=wrap;html=1;dashed=0;" vertex="1" parent="1">
          <mxGeometry x="611" y="1249" width="120" height="80" as="geometry" />
        </mxCell>
        <mxCell id="LlsY5RYBl1xxhd0hf_0L-127" value="" style="image;sketch=0;aspect=fixed;html=1;points=[];align=center;fontSize=12;image=img/lib/mscae/Cache_Redis_Product.svg;" vertex="1" parent="1">
          <mxGeometry x="601" y="1309" width="50" height="42" as="geometry" />
        </mxCell>
        <mxCell id="LlsY5RYBl1xxhd0hf_0L-128" value="" style="outlineConnect=0;dashed=0;verticalLabelPosition=bottom;verticalAlign=top;align=center;html=1;shape=mxgraph.aws3.mysql_db_instance_2;fillColor=#2E73B8;gradientColor=none;" vertex="1" parent="1">
          <mxGeometry x="691" y="1309" width="50" height="50" as="geometry" />
        </mxCell>
        <mxCell id="LlsY5RYBl1xxhd0hf_0L-129" style="edgeStyle=orthogonalEdgeStyle;rounded=0;orthogonalLoop=1;jettySize=auto;html=1;" edge="1" parent="1" source="LlsY5RYBl1xxhd0hf_0L-131" target="LlsY5RYBl1xxhd0hf_0L-133">
          <mxGeometry relative="1" as="geometry" />
        </mxCell>
        <mxCell id="LlsY5RYBl1xxhd0hf_0L-130" style="edgeStyle=orthogonalEdgeStyle;rounded=0;orthogonalLoop=1;jettySize=auto;html=1;" edge="1" parent="1" source="LlsY5RYBl1xxhd0hf_0L-131" target="LlsY5RYBl1xxhd0hf_0L-135">
          <mxGeometry relative="1" as="geometry" />
        </mxCell>
        <mxCell id="LlsY5RYBl1xxhd0hf_0L-131" value="" style="dashed=0;outlineConnect=0;html=1;align=center;labelPosition=center;verticalLabelPosition=bottom;verticalAlign=top;shape=mxgraph.weblogos.java" vertex="1" parent="1">
          <mxGeometry x="1255.6" y="1320" width="34.4" height="65" as="geometry" />
        </mxCell>
        <mxCell id="LlsY5RYBl1xxhd0hf_0L-132" value="MicroserviÃ§o&lt;div&gt;envio de email&lt;/div&gt;" style="text;html=1;align=center;verticalAlign=middle;resizable=0;points=[];autosize=1;strokeColor=none;fillColor=none;" vertex="1" parent="1">
          <mxGeometry x="1222.8" y="1393" width="100" height="40" as="geometry" />
        </mxCell>
        <mxCell id="LlsY5RYBl1xxhd0hf_0L-133" value="" style="shape=image;verticalLabelPosition=bottom;labelBackgroundColor=default;verticalAlign=top;aspect=fixed;imageAspect=0;image=data:image/png,iVBORw0KGgoAAAANSUhEUgAABAoAAAMMCAYAAADaWkW/AAAAAXNSR0IArs4c6QAAAERlWElmTU0AKgAAAAgAAYdpAAQAAAABAAAAGgAAAAAAA6ABAAMAAAABAAEAAKACAAQAAAABAAAECqADAAQAAAABAAADDAAAAAA5BOj9AABAAElEQVR4AezdB3hlV3Uo/nXu1ahMcwHbFNt0h2LTQxxCCY8EQkLJgzghGBwzM3aAgBvFBQyD6QZcCBAyzX52SF5oL+QFYpI/CS0B0uih/AMYGxuCMW4zI2kk3fO2xhhseTwj6bZ9zvnp+/SN7j1n773Wb2l0r5ZOifBBgAABAgQIECBAgAABAgQIECBAgAABAgQIECBAgAABAgQIECBAgAABAgQIECBAgAABAgQIECBAgAABAgQIECBAgAABAgQIECBAgAABAgQIECBAgAABAgQIECBAgAABAgQIECBAgAABAgQIECBAgAABAgQIECBAgAABAgQIECBAgAABAgQIECBAgAABAgQIECBAgAABAgQIECBAgAABAgQIECBAgAABAgQIECBAgAABAgQIECBAgAABAgQIECBAgAABAgQIECBAgAABAgQIECBAgAABAgQIECBAgAABAgQIECBAgAABAgQIECBAgAABAgQIECBAgAABAgQIECBAgAABAgQIECBAgAABAgQIECBAgAABAgQIECBAgAABAgQIECBAgAABAgQIECBAgAABAgQIECBAgAABAgQIECBAgAABAgQIECBAgAABAgQIECBAgAABAgQIECBAgAABAgQIECBAgAABAgQIECBAgAABAgQIECBAgAABAgQIECBAgAABAgQIECBAgAABAgQIECBAgAABAgQIECBAgAABAgQIECBAgAABAgQIECBAgAABAgQIECBAgAABAgQIECBAgAABAgQIECBAgAABAgQIECBAgAABAgQIECBAgAABAgQIECBAgAABAgQIECBAgAABAgQIECBAgAABAgQIECBAgAABAgQIECBAgAABAgQIECBAgAABAgQIECBAgAABAgQIECBAgAABAgQIECBAgAABAgQIECBAgAABAgQIECBAgAABAgQIECBAgAABAgQIECBAgAABAgQIECBAgAABAgQIECBAgAABAgQIECBAgAABAgQIECBAgAABAgQIECBAgAABAgQIECBAgAABAgQIECBAgAABAgQIECBAgAABAgQIECBAgAABAgQIECBAgAABAgQIECBAgAABAgQIECBAgAABAgQIECBAgAABAgQIECBAgAABAgQIECBAgAABAgQIECBAgAABAgQIECBAgAABAgQIECBAgAABAgQIECBAgAABAgQIECBAgAABAgQIECBAgAABAgQIECBAgAABAgQIECBAgAABAgQIECBAgAABAgQIECBAgAABAgQIECBAgAABAgQIECBAgAABAgQIECBAgAABAgQIECBAgAABAgQIECBAgAABAgQIECBAgAABAgQIECBAgAABAgQIECBAgAABAgQIECBAgAABAgQIECBAgAABAgQIECBAgAABAgQIECBAgAABAgQIECBAgAABAgQIECBAgAABAgQIECBAgAABAgQIECBAgAABAgQIECBAgAABAgQIECBAgAABAgQIECBAgAABAgQIECBAgAABAgQIECBAgAABAgQIECBAgAABAgQIECBAgAABAgQIECBAgAABAgQIECBAgAABAgQIECBAgAABAgQIECBAgAABAgQIECBAgAABAgQIECBAgAABAgQIECBAgAABAgQIECBAgAABAgQIECBAgAABAgQIECBAgAABAgQIECBAgAABAgQIECBAgAABAgQIECBAgAABAgQIECBAgAABAgQIECBAgAABAgQIECBAgAABAgQIECBAgAABAgQIECBAgAABAgQIECBAgAABAgQIECBAgAABAgQIECBAgAABAgQIECBAgAABAgQIECBAgAABAgQIECBAgAABAgQIECBAgAABAgQIECBAgAABAgQIECBAgAABAgQIECBAgAABAgQIECBAgAABAgQIECBAgAABAgQIECBAgAABAgQIECBAgAABAgQIECBAgAABAgQIECBAgAABAgQIECBAgAABAgQIECBAgAABAgQIECBAgAABAgQIECBAgAABAgQIECBAgAABAgQIECBAgAABAgQIECBAgAABAgQIECBAgAABAgQIECBAgAABAgQIECBAgAABAgQIECBAgAABAgQIECBAgAABAgQIECBAgAABAgQIECBAgAABAgQIECBAgAABAgQIECBAgAABAgQIECBAgAABAgQIECBAgAABAgQIECBAgAABAgQIECBAgAABAgQIECBAgAABAgQIECBAgAABAgQIECBAgAABAgQIECBAgAABAgQIECBAgAABAgQIECBAgAABAgQIECBAgAABAgQIECBAgAABAgQIECBAgAABAgQIECBAgAABAgQIECBAgAABAgQIECBAgAABAgQIECBAgAABAgQIECBAgAABAgQIECBAgAABAgQIECBAgAABAgQIECBAgAABAgQIECBAgAABAgQIECBAgAABAgQIECBAgAABAgQIECBAgAABAgQIECBAgAABAgQIECBAgAABAgQIECBAgAABAgQIECBAgAABAgQIECBAgAABAgQIECBAgAABAgQIECBAgAABAgQIECBAgAABAgQIECBAgAABAgQIECBAgAABAgQIECBAgAABAgQIECBAgAABAgQIECBAgAABAgQIECBAgAABAgQIECBAgAABAgQIECBAgAABAgQIECBAgAABAgQIECBAgAABAgQIECBAgAABAgQIECBAgAABAgQIECBAgAABAgQIECBAgAABAgQIECBAgAABAgQIECBAgAABAgQIECBAgAABAgQIECBAgAABAgQIECBAgAABAgQIECBAgAABAgQIECBAgAABAgQIECBAgAABAgQIECBAgAABAgQIECBAgAABAgQIECBAgAABAgQIECBAgAABAgQIECBAgAABAgQIECBAgAABAgQIECBAgAABAgQIECBAgAABAgQIECBAgAABAgQIECBAgAABAgQIECBAgAABAgQIECBAgAABAgQIECBAgAABAgQIECBAgAABAgQIECBAgAABAgQIECBAgAABAgQIECBAgAABAgQIECBAgAABAgQIECBAgAABAgQIECBAgAABAgQIECBAgAABAgQIECBAgAABAgQIECBAgAABAgQIECBAgAABAgQIECBAgAABAgQIECBAgAABAgQIECBAgAABAgQIECBAgAABAgQIECBAgAABAgQIECBAgAABAgQIECBAgAABAgQIECBAgAABAgQIECBAgAABAgQIECBAgAABAgQIECBAgAABAgQIECBAgAABAgQIECBAgAABAgQIECBAgAABAgQIECBAgAABAgQIECBAgAABAgQIECBAgAABAgQIECBAgAABAgQIECBAgAABAgQIECBAgAABAgQIECBAgAABAgQIECBAgAABAgQIECBAgAABAgQIECBAgAABAgQIECBAgAABAgQIECBAgAABAgQIECBAgAABAgQIECBAgAABAgQIECBAgAABAgQIECBAgAABAgQIECBAgAABAgQIECBAgAABAgQIECBAgAABAgQIECBAgAABAgQIECBAgAABAgQIECBAgAABAgQIECBAgAABAgQIECBAgAABAgQIECBAgAABAgQIECBAgAABAgQIECBAgAABAgQIECBAgAABAgQIECBAgAABAgQIECBAgAABAgQIECBAgAABAgQIECBAgAABAgQIECBAgAABAgQIECBAgAABAgQIECBAgAABAgQIECBAgAABAgQIECBAgAABAgQIECBAgAABAgQIECBAgAABAgQIECBAgAABAgQIECBAgAABAgQIECBAgAABAgQIECBAgAABAgQIECBAgAABAgQIECBAgAABAgQIECBAgAABAgQIECBAgAABAgQIECBAgAABAgQIECBAgAABAgQIECBAgAABAgQIECBAgAABAgQIECBAgAABAgQIECBAgAABAgQIECBAgAABAgQIECBAgAABAgQIECBAgAABAgQIECBAgAABAgQIECBAgAABAgQIECBAgAABAgQIECBAgAABAgQIECBAgAABAgQIECBAgAABAgQIECBAgAABAgQIECBAgAABAgQIECBAgAABAgQIECBAgAABAgQIECBAgAABAgQIECBAgAABAgQIECBAgAABAgQIECBAgAABAhUTKCoWr3AJECBAgACBLgXKE2Pl9K64e6cdBxdFrCg6sXauiNb8tO0yOmUrbizLmGnNxY/GRuOqYlPs7HJJwwkQIECAAIEKCWgUVKhYQiVAgAABAksRmFoX9+4U8ajUDLh/agY8qCziAWn84elzzVLmSfvelD6vKMr4emoifC01Eb7RKuNfxrfFd5Y4j90JECBAgACBCghoFFSgSEIkQIAAAQKLEZg8Pu5ZtOOpad/HlRGPSf/edTHjutjnB+mNxGfS+E+Vc/E3ExfH5V3MZSgBAgQIECCQiYBGQSaFEAYBAgQIEFiOwPT6OLIT8Zw09mnp88jlzNHDMV9Nc/3fdA7Dn49tjfmvfRAgQIAAAQIVFNAoqGDRhEyAAAECzRa48bi40+hoHBtlHJeOHHhEjhrpDca/RxGX7NoV7117SVybY4xiIkCAAAECBPYsoFGwZxfPEiBAgACB7ASm1sd909EDp6ZrDjw/NQkmsgtwTwEVMZmuaXBROsrg/PGt8V972sVzBAgQIECAQF4CGgV51UM0BAgQIEDgdgLTJ6QLEXbinHT0wP9MG6v62p2upRj/p2jFq8c2x9dul6QnCBAgQIAAgWwEqvpmIxtAgRAgQIAAgX4JTJ6Y7lAwF+ek+Y9Ln3V5zU79jrgk2vHqiU1xRb/szEuAAAECBAgsX6AubzqWL2AkAQIECBDITKBcF2umIs5KrYFTU2hjmYXXq3Cm0+kT549HvLHYtvv2i72a1zwECBAgQIBAlwIaBV0CGk6AAAECBHolUG6M1tQV6eiBIt6U5rxLr+bNfJ4fpobBmeOHxyXFxkiXYPBBgAABAgQIDFtAo2DYFbA+AQIECBBIAjtPiEcXc3FBahL8YiNByvjXsh2nrNwc/9zI/CVNgAABAgQyEtAoyKgYQiFAgACB5gns3BCHFmW8JWX+nOZlv8eM/7yciVesvCSu2uNWTxIgQIAAAQJ9F9Ao6DuxBQgQIECAwO0FymNiYmq/eFk67P6MtHXl7fdo9DM705EVbx6/Id5WvD8mGy0heQIECBAgMAQBjYIhoFuSAAECBJotsHNd/G5RxLlJ4R7Nlthn9t8ry3R0wbZ43z73tAMBAgQIECDQMwGNgp5RmogAAQIECOxdYPsJ8dB2J96R9nrs3ve0dYHAp+dacdLqzfHFBc97SIAAAQIECPRBQKOgD6imJECAAAECtxa46QVx8MhMvD49tyF9eu29Nc7ivy7TaRqbZ0fj7DXviR8tfpg9CRAgQIAAgaUKeLOyVDH7EyBAgACBRQqk6xCMTu4XL0kXK3x1GrJ2kcPstneBG9PpCK+duCnema5fsGvvu9pKgAABAgQILEdAo2A5asYQIECAAIF9CEytj98qI85Lux2xj11tXp7At9KbmNPGt8ZHljfcKAIECBAgQOCOBDQK7kjG8wQIECBAYBkC0xviAZ1yd4PgN5Yx3JClC1zWasepY5viG0sfagQBAgQIECCwJwGNgj2peI4AAQIECCxR4PoXxgGju+I16YX1j9LQkSUOt3t3ArPp6I13Tc/FxgMujuu7m8poAgQIECBAQKPA9wABAgQIEOhCIF2HoD29X5yYzps/J01z5y6mMrR7gR+n60GcPXZTbE7XL5jrfjozECBAgACBZgpoFDSz7rImQIAAgR4ITK6LJ0QrLkxX4z+qB9OZolcCRXwlTXXSxJb4RK+mNA8BAgQIEGiSgEZBk6otVwIECBDoicDkhrhX+sv129Lh7s/syYQm6YtAepPzwbKIl6eGwXf7soBJCRAgQIBATQU0CmpaWGkRIECAQO8FyhfF6qnpOCvNfFr6HOv9Cmbsg8B0FPH28dF4U/Hu2N6H+U1JgAABAgRqJ6BRULuSSogAAQIEei2QjhwoptbF89IvnG9Oc9+11/ObbyACV6dTRM4c3xaXpjc/qaQ+CBAgQIAAgTsS0Ci4IxnPEyBAgACBJLBzQxydTjO4MH35KCC1EPh82YmTV14Un69FNpIgQIAAAQJ9ENAo6AOqKQkQIECg+gI7j4u7Fyt2H0Hw3OpnI4M9CFzaKeOMVdvi6j1s8xQBAgQIEGi0gEZBo8sveQIECBBYKFAeH+NTI/HS+cPU07ZVC7d7XCuBHanObxzvxHnFxTFVq8wkQ4AAAQIEuhDQKOgCz1ACBAgQqJdAOs3gd9JpBm9NWd2zXpnJZh8Cl5dlvGzltvjgPvazmQABAgQINEJAo6ARZZYkAQIECOxNYNe6eMhcK12HoIzH720/22ov8IlWESePbYkv1z5TCRIgQIAAgb0IaBTsBccmAgQIEKi3wE3Pj4NGinh9upvBhpRpq97Zym6RAp30/bBpdi5eveaiuGaRY+xGgAABAgRqJaBRUKtySoYAAQIEFiNQnhgrJufixelF8DVp//0WM8Y+zRJI3xvXp4sdvnZiJN5VbIqZZmUvWwIECBBouoBGQdO/A+RPgACBhglMrYunlEWcn9L+hYalLt3lCJTxjaKIU8e3xmXLGW4MAQIECBCoooBGQRWrJmYCBAgQWLJAahD8wk8bBE9Z8mADCER8tGilhsHm+BYMAgQIECBQdwGNgrpXWH4ECBBouMB1x8f+E+14dRnxkkQx0nAO6XcnMJPeOP3xWDvOSacj3NDdVEYTIECAAIF8BTQK8q2NyAgQIECgC4HymGhPr40NqUHwujTNQV1MZSiBhQLXpNMRXjV2aGwpNkZn4UaPCRAgQIBA1QU0CqpeQfETIECAwO0EJp8fjy/T7Q7Ti9xDbrfREwR6JJC+v76YGlEnT2yNT/VoStMQIECAAIEsBDQKsiiDIAgQIECgFwKTx8c903nkb03XIvidXsxnDgKLEijifTEbp09cHJcvan87ESBAgACBzAU0CjIvkPAIECBAYN8C5fNi1dRonJn2fGn6HN/3CHsQ6LnAVJTx1vGZeEtxaezo+ewmJECAAAECAxTQKBggtqUIECBAoLcC6bDvYmpDHJt+QXtLmvluvZ3dbASWIVDEVen78RXpdop/kd5kpW9RHwQIECBAoHoCGgXVq5mICRAgQCAJ7Fwfj0ovYu9IX/4SEAIZCny204qTV22Of80wNiERIECAAIG9CmgU7JXHRgIECBDITWDHurhbq4g3prj+ILfYxENggcD8EQWXzM3FGasvjh8u2OYhAQIECBDIVkCjINvSCIwAAQIEbi1QHh/jU+04NT13VvpcfettviaQucD2KOIN4xNxfvHHMZ15rMIjQIAAAQLpZcsHAQIECBDIXGDnhnhmUcbbUpj3yjxU4RHYm8B3OumCm6u2xl/tbSfbCBAgQIDAsAU0CoZdAesTIECAwB0KTG+IB3fKuCDt8IQ73MkGAtUT+HhrLk4duzi+Ur3QRUyAAAECTRDQKGhCleVIgACBignceGLceUUnXpeuGX9CCr1dsfCFS2AxAnPpAgZ/OjsTr157SVy7mAH2IUCAAAECgxLQKBiUtHUIECBAYJ8C5cYYmb4y/ijtuDH9ErX/PgfYgUDFBdIbsevSiaAbxw6NdxcbY7bi6QifAAECBGoioFFQk0JKgwABAlUXmDohnlzOpdMMirh/1XMRP4FlCPxnug7HqePb4u+WMdYQAgQIECDQUwGNgp5ymowAAQIEliqQGgRHlJ04L437raWOtT+BugmkI2n+byvitPGt8V91y00+BAgQIFAdAY2C6tRKpAQIEKiVQHli7Dc9G2eXRZyUEltRq+QkQ6A7gZmiiAvGJuP1xXvjxu6mMpoAAQIECCxdQKNg6WZGECBAgEAXAuk6BK2pK2L9/H3l0zQHdTGVoQTqLVDGj1KCZ40fHhel6xekOyv6IECAAAECgxHQKBiMs1UIECBAIAlMro/HpReeC9Lh1Q8DQoDA4gTS0QX/kU7POXliW3xmcSPsRYAAAQIEuhPQKOjOz2gCBAgQWIRAahDcIx1BcG663eHvLmJ3uxAgsGeB/51uFnr6xKa4Ys+bPUuAAAECBHojoFHQG0ezECBAgMAeBNJ1CFZOzcYZqUnw8rR5fA+7eIoAgaUIFDGZdj93vBXnFpti51KG2pcAAQIECCxWQKNgsVL2I0CAAIFFC6RTC4qp9fH7Pz2K4O6LHmhHAgQWK3Bl+n/2iomt8ZfpzVz60gcBAgQIEOidgEZB7yzNRIAAAQJJYMe6eGSriHekL38ZCAECfRf4p04nTlp1UfxH31eyAAECBAg0RkCjoDGlligBAgT6K7D9+LhLux1vSqv8Qfr0+tJfbrMTuLXA/BEFF80VcdbqLfHft97gawIECBAgsBwBb+SWo2YMAQIECPxMoHxJjE3ujFPSC8qr0pOrf7bBFwQIDFrgptQxeP3EjXFB8f7YNejFrUeAAAEC9RHQKKhPLWVCgACBgQvsWB+/3Yp4e1r43gNf3IIECNyRwH8VZbx0fFv89R3t4HkCBAgQILA3AY2CvenYRoAAAQJ7FJg+Po7qtOP8tPGJe9zBkwQI5CDwd61WnDa2Ob6WQzBiIECAAIHqCGgUVKdWIiVAgMDQBW5YHweuiHhdevH4wxRMe+gBCYAAgX0JzJVFvHumjI37bY2f7Gtn2wkQIECAwLyARoHvAwIECBDYp0C5MUamr4gXpleN16ZzoA/Y5wA7ECCQm8BP0pu+s8cOi03FxpjNLTjxECBAgEBeAhoFedVDNAQIEMhOYGpdPCn9RXL+NIMHZhecgAgQWKrAV9OAUya2xseXOtD+BAgQINAcAY2C5tRapgQIEFiSwNT6uG8n4rz0QvG0JQ20MwEC2QukI4M+3CrjtHTBw+9kH6wACRAgQGDgAhoFAye3IAECBPIWKI+NtdMT8aqyjFNSpOmSBD4IEKipwK70RvD8sTLeUGyLm2qao7QIECBAYBkCGgXLQDOEAAECdRRI1yFoTV0Zx0cZb0rXIji4jjnKiQCBPQr8MP2/P3P88LgkXb8gHUjkgwABAgSaLqBR0PTvAPkTIEAgCUyui8cUrbgwHUXwcCAECDRUoIx/LdtxysrN8c8NFZA2AQIECPxUQKPAtwIBAgQaLDB5Yhwec/GWRPDsBjNInQCB2wr8ebqA6ekrt8T3b/u0RwQIECDQFAGNgqZUWp4ECBC4lUB5Yqyc6sQr0lOvSIccT9xqky8JECAwL7AznYL05vEb4m3F+2MSCQECBAg0S0CjoFn1li0BAg0XSFc6LybXx++lH/7nJorDGs4hfQIE9i3wvXRK0itWbov37XtXexAgQIBAXQQ0CupSSXkQIEBgHwI7nh8Pb7XiHWm3X9nHrjYTIEBgocCn51px0urN8cWFGzwmQIAAgfoJaBTUr6YyIkCAwG0Etm+IQ9plvDE9+fz06ef+bXQ8IEBgCQLpoKTYMrsiXrXmPfGjJYyzKwECBAhUTMAbxooVTLgECBBYrEB5TIxOro1T0g/6V6UxaxY7zn4ECBDYh8CN6XSE107cFO9M1y/YtY99bSZAgACBCgpoFFSwaEImQIDAvgSm1sXT01XLz0v73Wdf+9pOgACBZQp8K72RPG18a3xkmeMNI0CAAIFMBTQKMi2MsAgQILAcgekT4kGdTpyfxv76csYbQ4AAgWUIXNYq4rSxLfH1ZYw1hAABAgQyFNAoyLAoQiJAgMBSBW5YHweuKGJjUcaL0tj2UsfbnwABAl0KzKYLGLxrei42HnBxXN/lXIYTIECAwJAFNAqGXADLEyBAoBuBcmOMTH8//jCdL3xOmufAbuYylgABAj0Q+HFqWJ49dlNsTtcvmOvBfKYgQIAAgSEIaBQMAd2SBAgQ6IVAug7Br6XrEMyfZnBkL+YzBwECBHomUMRX0lwnTWyJT/RsThMRIECAwMAENAoGRm0hAgQI9EZg6sS4T2cu3p5+gD+jNzOahQABAv0RSD+nPpQami9LDYPv9mcFsxIgQIBAPwQ0Cvqhak4CBAj0QaBcF2umi3hlOg/41DT9aB+WMCUBAgT6ITAdRbx9fDTeVLw7tvdjAXMSIECAQG8FNAp662k2AgQI9FwgXYegNXVFHJfeaL85TX5IzxcwIQECBAYjcHWUceb4trg0vQFNPU8fBAgQIJCrgEZBrpURFwECBJLAzhPi0UUnLkxfPhIIAQIEaiLw+XQ6wikrt8TnapKPNAgQIFA7AY2C2pVUQgQI1EFg54Y4NDUIzk1HEfx+HfKRAwECBPYgcGmnjDNWbYur97DNUwQIECAwRAGNgiHiW5oAAQILBcpjYmJqbbw8NQjOSAfmTizc7jEBAgRqJrAj/ax743gnzisujqma5SYdAgQIVFZAo6CypRM4AQJ1E0hHEfxeuv/4W1Je96hbbvIhQIDAPgQuL8t42cpt8cF97GczAQIECAxAQKNgAMiWIECAwN4EdqyPh7Vi93UIHru3/WwjQIBA7QWK+GT6eXjS2Jb4cu1zlSABAgQyFtAoyLg4QiNAoN4CN70gDh6ZiTekLNenTz+P611u2REgsHiBTvqJuGl2Ll695qK4ZvHD7EmAAAECvRLwxrRXkuYhQIDAIgXSdQhGJ9fGSekH8NlpyNpFDrMbAQIEGiWQfkZeny52+NqJkXhXsSlmGpW8ZAkQIDBkAY2CIRfA8gQINEtg6oR4apku2pWyvl+zMpctAQIElilQxjfSG9bTxrfF3y5zBsMIECBAYIkCGgVLBLM7AQIEliMwvSEe0OnE+elw2icvZ7wxBAgQIBAfLVpx6vjm+BYLAgQIEOivgEZBf33NToBAwwWuf2EcMLorXpN+2L44UbQbziF9AgQIdCswk36e/vFYO85JpyPc0O1kxhMgQIDAngU0Cvbs4lkCBAh0JVBujJHp78cJ6XZfr0sT3amryQwmQIAAgYUC1xRFvGrs0NhSbIzOwo0eEyBAgEB3AhoF3fkZTYAAgdsJTG6I/5GevCDKOOp2Gz1BgAABAj0TKCO+lN7MnjSxNT7Vs0lNRIAAAQJux+V7gAABAr0S2Pn8OKzVigvSG9dn9mpO8xAgQIDAIgSKeF/62fvSlVvi+4vY2y4ECBAgsA8BRxTsA8hmAgQI7Etg/jSDySvS7Q6LOCftu2pf+9tOgAABAn0RuGn36Qg3pNspvj/m+rKCSQkQINAQAY2ChhRamgQI9Edgen0cmf6KdUn6fFh/VjArAQIECCxFIDUL/qOYi+eNXRT/uZRx9iVAgACBnwu0fv6lrwgQIEBgsQKpMVBMrY8XpSto/ZsmwWLV7EeAAIH+C6SLyD6804p/n/8ZPf+zuv8rWoEAAQL1E/DDs341lREBAn0WuO742D/dmuuS9AP0aX1eyvQECBAg0IVAahT89a7ROH7/P4nrupjGUAIECDROQKOgcSWXMAEC3QhMrYtfKIv46zTHEd3MYywBAgQIDEzgW612PGNsU3xjYCtaiAABAhUXcOpBxQsofAIEBieQmgRPSk2Cz6cVNQkGx24lAgQIdCtwRGcuPjd1Qjy524mMJ0CAQFMENAqaUml5EiDQlcDkujg2NQk+kibZr6uJDCZAgACBYQjsV3bio5Mb4rnDWNyaBAgQqJqARkHVKiZeAgQGLjC1IV6YLod1SVp4ZOCLW5AAAQIEeiXQijIunb/IYa8mNA8BAgTqKqBRUNfKyosAgZ4I7Fwfp6YraL87TebnZU9ETUKAAIHhCqQLHL4r/Wx/xXCjsDoBAgTyFnAxw7zrIzoCBIYoMLk+1qXltw4xBEsTIECAQJ8EiiL+cHxLbOrT9KYlQIBApQU0CipdPsETINAvgZ3r4lnpTeT70vyOJOgXsnkJECAwXIFOuvbMc1Zuib8cbhhWJ0CAQH4CGgX51UREBAgMWWDnhji6KOOTKYzRIYdieQIECBDor8BMugbNEye2xKf7u4zZCRAgUC0BjYJq1Uu0BAj0WWDncXH3YkX8W1rmLn1eyvQECBAgkINAGT9KzYJHTWyN7+UQjhgIECCQg4BDanOoghgIEMhCoDw+xlOT4K9SMJoEWVREEAQIEBiAQBEHp7+c/VV5YqwcwGqWIECAQCUENAoqUSZBEiAwCIHJVrwtrfPIQaxlDQIECBDIRyDdCeGhU3NxQT4RiYQAAQLDFXDqwXD9rU6AQCYC6b7av5XeKP5NJuEIgwABAgSGIJAubvisdHHDDw1haUsSIEAgKwGNgqzKIRgCBIYhsH1DHNIu4ytp7YOGsb41CRAgQCAPgfTG+LrOTBy18pK4Ko+IREGAAIHhCDj1YDjuViVAICOB1CSYP9xUkyCjmgiFAAECwxBIR5YdECviXcNY25oECBDIScARBTlVQywECAxcYGpdPCkdavqxgS9sQQIECBDIVqBVxG+PbYkPZxugwAgQINBnAY2CPgObngCBfAXm73Iw1Y6vpQjvnW+UIiNAgACBIQhcOb4rHlBcGjuGsLYlCRAgMHQBpx4MvQQCIEBgWALpLgcvSWtrEgyrANYlQIBAvgKHTa2Il+UbnsgIECDQXwFHFPTX1+wECGQqcN3xsf9EO76z+3zUTGMUFgECBAgMVWDHbCfuteaiuGaoUVicAAECQxBwRMEQ0C1JgMDwBcZbcbomwfDrIAICBAhkLLCq3Y6zM45PaAQIEOibgCMK+kZrYgIEchW4YX0cOBpxRYpvVa4xiosAAQIEshDYNTcX91h9cfwwi2gEQYAAgQEJOKJgQNCWIUAgH4HRIl6YotEkyKckIiFAgECuAqPpqIKTcg1OXAQIEOiXgCMK+iVrXgIEshQoXxJjUzvjeym4Q7IMUFAECBAgkJVAerN8/dhYHFa8O7ZnFZhgCBAg0EcBRxT0EdfUBAjkJ5CaBM9OUWkS5FcaEREgQCBLgXQ9m/2nd8UfZBmcoAgQINAnAY2CPsGalgCBTAWKeH6mkQmLAAECBHIVKL125FoacREg0B8Bpx70x9WsBAhkKDC1Lu5dFvHtDEMTEgECBAhkLtAq4iFjW+LLmYcpPAIECPREwBEFPWE0CQECVRBITQKHjlahUGIkQIBAhgJl6TUkw7IIiQCBPgloFPQJ1rQECGQp8KwsoxIUAQIECGQvkK5V8DvZBylAAgQI9EhAo6BHkKYhQCBvgckNca8U4YPyjlJ0BAgQIJCxwOG71sVDMo5PaAQIEOiZwEjPZjIRAQIEMhYoO/GMwlVZMq5QD0MbGY1i/7tHsTbd3GLtwVGsOvDmycdWR9G++WWv3Hn9zc/t2hnljp9EpM/yhh9Gef3VPQwk86laI1EckJzWHByx+k5RrL5zxLzPyFgUoxO7gy9npiLmPztzP3fafm2U134vYnY68wSFR6D3AnNFPCPN+qXez2xGAgQI5CWgUZBXPURDgECfBFKP4Df6NLVphyxQHHK/aB35lGjd7zHRuvuRURxyRESrvbyo0i/F5TXfjs4VX4zOt/85Ol//eJQ//Oby5sppVOqSte7xiGgd8fgo7vsr0brbA6M46N6pMbBieVGmk7XL676fbL4Rne98Ljrf+nR0vvmJiLmZ5c1nFIGqCJTx5BTqOVUJV5wECBBYroC/ry1XzjgCBCojUB4T7am1kf5sHGsrE7RA9y6Q/uLd/uXjYuQJfxTFoUftfd8ut5ZXfilmP7U55j69Of0VfVeXsw12eLHfXaP9xJdE++hjozjw8P4uPnljzP3b+2P2snOj/O9v9XctsxMYnsDM+I2xX/H+mBxeCFYmQIBA/wU0CvpvbAUCBIYssP2EeGi7E18YchiW75FA6yFPixXHvrP/v/guiLf8yZUx8+cvjs4X/3rBlgwfpiMFRp52dow8+eURK8YHG2A62mDuH94ZMx88IyKd2uGDQO0EOvGrExfFJ2uXl4QIECBwKwEXM7wVhi8JEKinwEgZv1LPzBqWVTp8fuR33xajL/nrgTcJ5qWLAw+L0Rd/OEaecnrW8MWag2L0jM/EyFPPHnyTYDdUsfsohrEz/zld/+CgrK0ER2BZAu14zLLGGUSAAIEKCWgUVKhYQiVAYHkC6Q+cD13eSKNyEhj5n2+IkSe9dOghjTzrzdF+7Iahx7HHANIpGaMv/f+ida9H7XHzIJ8sDntIrHjhB5Z/vYhBBmstAksQKDpeU5bAZVcCBCoqoFFQ0cIJmwCBJQiU8cAl7G3XDAVa9/8fMfKbZ2YT2Ypnnz+Uoxr2BbDimLemazY8eF+7DWx764jHRfvxLxjYehYiMAiBsvCaMghnaxAgMFwBjYLh+ludAIFBCBTxoEEsY40+CRStWPHsC/o0+TKnTbdaHHnqq5Y5uD/DioPvm+Uv5btP1VjuXSj6Q2VWAt0KHFGeGMu8ZUi3SxtPgACBwQhoFAzG2SoECAxJYPuGOCQtvd+QlrdsDwRaD/y1vt/ZYDlhto9+bsREPt9aI088KcvD/Oev7TB/60ofBGokMDI9G/euUT5SIUCAwO0ENApuR+IJAgTqJFDMxd3rlE8Tc5m/DWKWH/O3aHzgr2cTWusRz8omloWBtB74pIVPeUyg0gJly2tLpQsoeAIE9imgUbBPIjsQIFBlgXY77lLl+MWe/kiejijI9aP1oDwaBfOnHRT73y1Xpmgd7nqi2RZHYMsTKL22LA/OKAIEqiKgUVCVSomTAIHlChy63IHGDV+gOOg+UaydP3skz4/isDx+AW5lEscdVak4yFHad2Tj+WoKlBFeW6pZOlETILBIAY2CRULZjQCBagp0OrG6mpGLel6guFveN6xoZRJfcfB9sv6GKfa7a9bxCY7AUgWKiLVLHWN/AgQIVElAo6BK1RIrAQJLFkgXzPdmbslq+QxoZf4LcKS7H+RwQcPsfxHP6KKP+Xx3i6TKAumIAk3oKhdQ7AQI7FNAo2CfRHYgQKDSAmWMVDr+pgef8WkHt5Qmi2sDrDzglnCy/bdYuX+2sQmMwFIFiiLGljrG/gQIEKiSgEZBlaolVgIElizgrz5LJstqQLH6oKzi2VMwRQa/pBcr87lN456MPEegdgJlTNQuJwkRIEDgVgIaBbfC8CUBAgQIZCYwtiqzgPYQzviaPTzpKQIECBAgQIBAdQU0CqpbO5ETIECg9gLFaP5/tKtCjLX/RpEgAQIECBAg0FMBjYKecpqMAAECBAgMQWC0AkdeDIHFkgQIECBAgMDyBDQKludmFAECBAgMQmD+rgK5f4yMDj/C9orhxyACAgQIECBAoDYCGgW1KaVECBAgUEOBVgVuWjG6sobwUiJAgAABAgSaLKBR0OTqy50AAQIECBAgQIAAAQIECCwQ0ChYAOIhAQIECBAgQIAAAQIECBBosoBGQZOrL3cCBAgQIECAAAECBAgQILBAQKNgAYiHBAgQIECAAAECBAgQIECgyQIaBU2uvtwJECBAgAABAgQIECBAgMACAY2CBSAeEiBAgAABAgQIECBAgACBJgtoFDS5+nInQIAAAQIECBAgQIAAAQILBDQKFoB4SIAAAQIECBAgQIAAAQIEmiygUdDk6sudAAECBAgQIECAAAECBAgsENAoWADiIQECBAgQIECAAAECBAgQaLKARkGTqy93AgQIECBAgAABAgQIECCwQECjYAGIhwQIECBAgAABAgQIECBAoMkCGgVNrr7cCRAgQIAAAQIECBAgQIDAAgGNggUgHhIgQIAAAQIECBAgQIAAgSYLaBQ0ufpyJ0CAAAECBAgQIECAAAECCwQ0ChaAeEiAAAECBAgQIECAAAECBJosoFHQ5OrLnQABAgQIECBAgAABAgQILBDQKFgA4iEBAgQIECBAgAABAgQIEGiygEZBk6svdwIECBAgQIAAAQIECBAgsEBAo2ABiIcECBAgQIAAAQIECBAgQKDJAhoFTa6+3AkQIECAAAECBAgQIECAwAIBjYIFIB4SIECAAAECBAgQIECAAIEmC2gUNLn6cidAgAABAgQIECBAgAABAgsENAoWgHhIgAABAgQIECBAgAABAgSaLKBR0OTqy50AAQIECBAgQIAAAQIECCwQ0ChYAOIhAQIECBAgQIAAAQIECBBosoBGQZOrL3cCBAgQIECAAAECBAgQILBAQKNgAYiHBAgQIECAAAECBAgQIECgyQIaBU2uvtwJECBAgAABAgQIECBAgMACAY2CBSAeEiBAgAABAgQIECBAgACBJgtoFDS5+nInQIAAAQIECBAgQIAAAQILBDQKFoB4SIAAAQIECBAgQIAAAQIEmiygUdDk6sudAAECBAgQIECAAAECBAgsENAoWADiIQECBAgQIECAAAECBAgQaLKARkGTqy93AgQIECBAgAABAgQIECCwQECjYAGIhwQIECBAgAABAgQIECBAoMkCGgVNrr7cCRAgQIAAAQIECBAgQIDAAgGNggUgHhIgQIAAAQIECBAgQIAAgSYLaBQ0ufpyJ0CAAAECBAgQIECAAAECCwQ0ChaAeEiAAAECBAgQIECAAAECBJosoFHQ5OrLnQABAgQIECBAgAABAgQILBDQKFgA4iEBAgQIECBAgAABAgQIEGiygEZBk6svdwIECBAgQIAAAQIECBAgsEBAo2ABiIcECBAgQKByAiMr8g95fG3+MYqQAAECBAgQ2C2gUeAbgQABAgQIVFygGF2VfwYtbznyL5IICRAgQIDAzQJetX0nECBAgACBbgRWTHQz2lgCBAgQIECAQHYCGgXZlURABAgQIFAlgWIsg7/mTzisv0rfM2IlQIAAAQK5C2gU5F4h8REgQIBA3gJjq4ceX7H2kKHHsM8ARsb3uYsdCBAgQIAAgTwENAryqIMoCBAgQKCiAsWaOw838on9IkZXDjeGRaxejA+/obKIMO1CgAABAgQIJAGNAt8GBAgQIECgC4HigMO6GN390NbB9+1+kkHMML5mEKtYgwABAgQIEOiBgEZBDxBNQYAAAQLNFSgOPWqoyRf3fORQ11/s4sWagxe7q/0IECBAgACBIQtoFAy5AJYnQIAAgWoLFHe+VxQHHj60JFr3f8LQ1l7KwsXB91nK7vYlQIAAAQIEhiigUTBEfEsTIECAQD0E2r/0nOEkkg7nbz/4qcNZe4mrFvd4xBJH2J0AAQIECBAYloBGwbDkrUuAAAECtRFoP+nUiCGcgz/yxJMicrg94yIq2X7Ar0WMjC1iT7sQIECAAAECwxbQKBh2BaxPgAABApUXmD//fsVz/2SgeRR3PzJGfvPMga7Z1WITa6P96D/oagqDCRAgQIAAgcEIaBQMxtkqBAgQIFBzgfbRx8aK4/40or2i75nONwlGT7msMkcT3AIy8sw3RnGne9zy0L8ECBAgQIBApgIaBZkWRlgECBAgUD2B9uNOjLGz/z1aD0yH2RdFzxMoVu4fI09/TYy98l+iOODuPZ+/3xMWq+8Uo6d/Klr3elS/lzI/AQIECBAg0IXASBdjDSVAgAABAgQWCMzfLnH0tL+P8gdfj7l//0B0vvqx6Fz5pYjp7Qv2XMTDdHRCccgRu3+xbj3oSdF+6DMiRicWMTDfXebvEDF61udi7osfjs5nL43ONz8R5Y6f5BuwyAgQIECAQAMFNAoaWHQpEyBAgED/BYq7PiBGnnp2xPxnWUZ57eVRXn/17s/YtTNi8obdz/8skpHRdCrB6ijSufyRrnlQ7HeXdNTAoQM5leFnMQzqi3S0Rfthv737c7fNdVdG+aNvR3nTNRE7ro2Y3bU7krLsJKcbbx/VfNOlM3ub58ud19/8eGY6Ymby5vG3GM+m53bd6rko0z4371dO74iYm7nNXB4QIECAAIGmC2gUNP07QP4ECBAg0H+B9Itxced77f7s/2IVW2HeJh1lMP851I/UkCjnmw9TN6VGxc2NhXK+oTPftJhK2+bmt6Wmxfzj9PxttnXmbm78zDccUuOhnG9KpHl2Hylx439HufO6oaZmcQIECBAgsFQBjYKlitmfAAECBAgQqJ9AOpJj91UlVh34s9x6dZWJ+YZBedVXo/Ptz0bnyx+Jzn/9UzqaJB0t4YMAAQIECGQqoFGQaWGERYAAAQIECNRDoEjNh+KIx0UrfcZTTo/yx9+N2Y++OeY+szWdQpGORvBBgAABAgQyE3DXg8wKIhwCBAgQIECg3gLzp6HM30pz9IzP7L4WRb2zlR0BAgQIVFFAo6CKVRMzAQIECBAgUHmB1r2PTreL/HTM3zbSBwECBAgQyElAoyCnaoiFAAECBAgQaJRAcfB9Y8Xx2xqVs2QJECBAIH8BjYL8ayRCAgQIECBAoMYCrYc+PVr3e2yNM5QaAQIECFRNQKOgahUTLwECBAgQIFA7gfYTXlS7nCREgAABAtUV0Ciobu1EToAAAQIECNREoH3Ub0a03IyqJuWUBgECBCovoFFQ+RJKgAABAgQIEKi8wMTaKO72wMqnIQECBAgQqIeARkE96igLAgQIECBAoOICrbvev+IZCJ8AAQIE6iKgUVCXSsqDAAECBAgQqLRAceDhlY5f8AQIECBQHwGNgvrUUiYECBAgQIBAlQVWHlDl6MVOgAABAjUS0CioUTGlQoAAAQIECFRXoBhbVd3gRU6AAAECtRLQKKhVOSVDgAABAgQIECBAgAABAgS6E9Ao6M7PaAIECBAgQIAAAQIECBAgUCsBjYJalVMyBAgQIECAAAECBAgQIECgOwGNgu78jCZAgAABAgQIECBAgAABArUS0CioVTklQ4AAAQIECBAgQIAAAQIEuhPQKOjOz2gCBAgQIECAAAECBAgQIFArAY2CWpVTMgQIECBAgEBVBcrpHVUNXdwECBAgUDMBjYKaFVQ6BAgQIECAQEUF5mYqGriwCRAgQKBuAhoFdauofAgQIECAAAECBAgQIECAQBcCGgVd4BlKgAABAgQIECBAgAABAgTqJqBRULeKyocAAQIECBAgQIAAAQIECHQhoFHQBZ6hBAgQIECAAIGeCYyt6tlUJiJAgAABAt0IaBR0o2csAQIECBAgQKBHAkV7RY9mMg0BAgQIEOhOQKOgOz+jCRAgQIAAAQIECBAgQIBArQQ0CmpVTskQIECAAAECBAgQIECAAIHuBDQKuvMzmgABAgQIECBAgAABAgQI1EpAo6BW5ZQMAQIECBAgQIAAAQIECBDoTkCjoDs/owkQIECAAAECBAgQIECAQK0ENApqVU7JECBAgAABAgQIECBAgACB7gQ0CrrzM5oAAQIECBAgQIAAAQIECNRKQKOgVuWUDAECBAgQIECAAAECBAgQ6E5Ao6A7P6MJECBAgAABAr0RaLV7M49ZCBAgQIBAlwIaBV0CGk6AAAECBAgQ6InA+JqeTGMSAgQIECDQrYBGQbeCxhMgQIAAAQIECBAgQIAAgRoJaBTUqJhSIUCAAAECBAgQIECAAAEC3QpoFHQraDwBAgQIECBAgAABAgQIEKiRgEZBjYopFQIECBAgQIAAAQIECBAg0K2ARkG3gsYTIECAAAECBAgQIECAAIEaCWgU1KiYUiFAgAABAgQIECBAgAABAt0KjHQ7gfEECBAgQIAAga4Eyk6UV301ymu/F5G+XvLHxP5R3P3IKFbfaclDsxpQ+PtNVvUQDAECBBosoFHQ4OJLnQABAgQIDFOg/MHXY/ayt0bnC/8nyp3XdxdK+iW7da9fjPavvjDaRx8b0areW5xiYm13BkYTIECAAIEeCVTvVbRHiZuGAAECBAgQGJLA7K6Y/eDpMfvxP47ozPUmiHQkQuc7n9/9Ofuxt8Xohj+L4rCH9GZusxAgQIAAgYYJOMatYQWXLgECBAgQGKrA9I7Ydf6TYvbvL+hdk2BBQvOnMUy/6dHR+eplC7Z4SIAAAQIECCxGQKNgMUr2IUCAAAECBHoisOtPfy863/xkT+ba6yS7dsaudz8rOt/7j73uZiMBAgQIECBwewGNgtubeIYAAQIECBDog8DcP74rOl/+SB9mvoMpU7NgZnO6XsHczB3s4GkCBAgQIEBgTwIaBXtS8RwBAgQIECDQW4H0S/vshzf2ds5FzFb+8Bsx95lti9jTLgQIECBAgMAtAhoFt0j4lwABAgQIEOibwNy/fSDK7T/u2/x7m3j2E3+yt822ESBAgAABAgsENAoWgHhIgAABAgQI9F6g85UBnnKwIPzyyi9Fef3VC57N8GG6xaMPAgQIECCQg4BXpByqIAYCBAgQIFBzgc6VXx5qhvPNguw/xtdmH6IACRAgQKAZAhoFzaizLAkQIECAwHAFbvrRUNcvh7z+UJO3OAECBAgQWKKARsESwexOgAABAgQILEOg7CxjkCEECBAgQIDAMAQ0Coahbk0CBAgQIECAAAECBAgQIJCpgEZBpoURFgECBAgQINBDgVa7h5OZigABAgQI1FtAo6De9ZUdAQIECBAgkASK8TUcCBAgQIAAgUUKaBQsEspuBAgQIECAAAECBAgQIECgCQIaBU2oshwJECBAgAABAgQIECBAgMAiBTQKFgllNwIECBAgQIAAAQIECBAg0AQBjYImVFmOBAgQIECg6QIT+zVdQP4ECBAgQGDRAhoFi6ayIwECBAgQIFBdgSL/0FeM5R+jCAkQIECgEQIaBY0osyQJECBAgACB3AWKFRO5hyg+AgQIEGiIgEZBQwotTQIECBAgQIAAAQIECBAgsBgBjYLFKNmHAAECBAgQqLbA2Kpqxy96AgQIECAwQAGNggFiW4oAAQIECDRWYGz1UFMvRlcOdX2LEyBAgACBKgloFFSpWmIlQIAAAQIVFSgOvs/wIm+1ozjo3sNb38oECBAgQKBiAhoFFSuYcAkQIECAQBUFWvd73NDCbt3zkRErxoe2voUJECBAgEDVBDQKqlYx8RIgQIAAgQoKtI9+TkQxnFsUtn/5eRUUEzIBAgQIEBiegEbB8OytTIAAAQIEGiNQ3OX+0X74swaeb7HfXaP96OMHvq4FCRAgQIBAlQU0CqpcPbETIECAAIEKCYw8+/woVh040IhXPO9PItzxYKDmFiNAgACB6gtoFFS/hjIgQIAAAQKVECgOODRWvOiDEaMTA4l35Okbo/XQZwxkLYsQIECAAIE6CWgU1KmaciFAgAABApkLtH7hV2P01I9Fsd9d+hdpayRW/P6FMfL01/RvDTMTIECAAIEaC2gU1Li4UiNAgAABAjkKtO732Bh97Vej/YQXRYyM9jTE1pG/EWNn/1u0n3hST+c1GQECBAgQaJLASJOSlSsBAgQIECCQh0Cx+k6x4th3xcgzzonOFz8cnW9/NsprvxcxN7O0ANOdFOYvWFgc9tBoP+wZURxyxNLG25sAAQIECBC4nYBGwe1IPEGAAAECBAgMSmC+YdB+zLrdn4Na0zoECBAgQIDA3gWcerB3H1sJECBAgAABAgQIECBAgECjBDQKGlVuyRIgQIAAAQIECBAgQIAAgb0LaBTs3cdWAgQIECBAgMBgBNL1FnwQIECAAIEcBDQKcqiCGAgQIECAAAECE/sxIECAAAECWQhoFGRRBkEQIECAAAECBAgQIECAAIE8BDQK8qiDKAgQIECAAAECBAgQIECAQBYCGgVZlEEQBAgQIECAAAECBAgQIEAgDwGNgjzqIAoCBAgQIECAAAECBAgQIJCFgEZBFmUQBAECBAgQINB4gc5c4wkAECBAgEAeAhoFedRBFAQIECBAgEDTBaZuarqA/AkQIEAgEwGNgkwKIQwCBAgQIECAAAECBAgQIJCDgEZBDlUQAwECBAgQIECAAAECBAgQyERAoyCTQgiDAAECBAgQIECAAAECBAjkIKBRkEMVxECAAAECBAgQIECAAAECBDIR0CjIpBDCIECAAAECBAgQIECAAAECOQhoFORQBTEQIECAAAECBAgQIECAAIFMBDQKMimEMAgQIECAAIFmC5Sd2WYDyJ4AAQIEshHQKMimFAIhQIAAAQIEGi0wtb3R6UueAAECBPIR0CjI/perKAAAKwtJREFUpxYiIUCAAAECBAgQIECAAAECQxfQKBh6CQRAgAABAgQIEEgCs1MYCBAgQIBAFgIaBVmUQRAECBAgQIBA4wVmNAoa/z0AgAABApkIaBRkUghhECBAgAABAs0WKGemmw0gewIECBDIRkCjIJtSCIQAAQIECBBotMDMZKPTlzwBAgQI5COgUZBPLURCgAABAgQINFlgbqbJ2cudAAECBDIS0CjIqBhCIUCAAAECBBosML2jwclLnQABAgRyEtAoyKkaYiFAgAABAgQaK1BqFDS29hInQIBAbgIaBblVRDwECBAg8HOBuV0//9pXBOousOMndc9QfgQIECBQEQGNgooUSpgECBBopMCunY1MW9LNFCh3XtfMxGVNgAABAtkJaBRkVxIBESBAgMAtAqX7yt9C4d8GCJTbf9yALKVIgAABAlUQ0CioQpXESIAAgaYKTN3U1Mzl3USBHY4oaGLZ5UyAAIEcBTQKcqyKmAgQ6JlAEbG9Z5OZaOACpXO2B25uweEJlDf+cHiLW3mpAlNLHWB/AgQIVElAo6BK1RIrAQJLFyhidumDjMhFoLzu+7mEIg4CfRcof3Jl39ewQG8EygiNgt5QmoUAgUwFNAoyLYywCBDojUBZxg29mcksQxHQKBgKu0UHL1Bef3WEa3IMHn6ZKxZF7FjmUMMIECBQCQGNgkqUSZAECCxXIJ164CT35eJlMK5z1dcyiEIIBPovUF79n/1fxAo9E0hN6Bt7NpmJCBAgkKGARkGGRRESAQK9EyjKuKp3s5lp0ALlj/4rYtof7gbtbr3BC3S+9++DX9SKyxZIRxR4bVm2noEECFRBQKOgClUSIwECyxaYbccPlj3YwOELlJ3ofPMTw49DBAT6LND5/z/d5xVM30uBohOuPNlLUHMRIJCdgEZBdiUREAECvRQoZ/3Vp5eew5hr7isfHcay1iQwOIHJG6Pz9Y8Pbj0rdS1QjIQrrXataAICBHIW0CjIuTpiI0Cga4E1F8U16ToFbk7eteTwJpj73Hsjdu0cXgBWJtBngbnPp+9xFzLss3JPp58bvS6+09MZTUaAAIHMBDQKMiuIcAgQ6L1Auo3VV3s/qxkHJjB5Q8x+/I8HtpyFCAxUYHZXzH70zQNd0mJdC3yreH/s6noWExAgQCBjAY2CjIsjNAIEeibgcuI9oxzORLN/8/rYfWHD4SxvVQJ9E5j90JlR/uSKvs1v4t4LpIvkuh1L71nNSIBAZgIaBZkVRDgECPReIF2d+ku9n9WMAxWY3h673vG0KG+6ZqDLWoxAPwXmPvGemP378/u5hLn7IFC24st9mNaUBAgQyEpAoyCrcgiGAIF+CBSz8Zl+zGvOwQqUP/xG7HrDL0Xnii8MdmGrEei1wK7JmPmLk2PmvS+KKNPJUT6qJdDxmlKtgomWAIHlCKRrfPkgQIBAvQXKjdGavjKuTW/H9693pg3JrtWO9mM3xMivnxLFXe7fkKSlWQuBdHeDuX+6KGb/7jynG1S3oLPj7div2BSusFrdGoqcAIFFCGgULALJLgQIVF9gcn38Tcrit6qfiQx+JpDOKWnd65eideRvROt+j4ni0AdHseagn232BYGhC6QLcXa+/+XofOfzu29/2PnGP0bMTg89LAF0JfD5ia1xdFczGEyAAIEKCIxUIEYhEiBAoGuB1BW9LB1RoFHQtWRGE6RDtjvf+dzuz1uiKlbfKR03crcoDjg0ivG1ERNroxhbdfPmoh0xvuaWXf1LoHuBqZvSqQNzu+cpp9MfmCevj3JHuhtrupZGee3lUe68vvs1zJCXQBGX5RWQaAgQINAfAUcU9MfVrAQIZCYweWIcHnPxvczCEg4BAgQIVEig04lHrLoo/qNCIQuVAAECyxLQKFgWm0EECFRRYGp9fCEdVfDQKsYuZgIECBAYusD3x7fG4enNc3op8UGAAIF6C7jrQb3rKzsCBG4lUBbxgVs99CUBAgQIEFi0QDrb6UOaBIvmsiMBAhUX0CioeAGFT4DAEgRacWna21+ClkBmVwIECBC4WSA1my9mQYAAgaYIaBQ0pdLyJEAgJjbFFVHEx1EQIECAAIGlCKQO85dWbY0vLGWMfQkQIFBlAY2CKldP7AQILFkgHTq6dcmDDCBAgACBRgu0itjWaADJEyDQOAGNgsaVXMIEmi0wcWN8KAl8v9kKsidAgACBJQjcMDbptIMleNmVAIEaCGgU1KCIUiBAYPECxftjVzqE9MLFj7AnAQIECDRZoChiU/HeuLHJBnInQKB5AhoFzau5jAk0XmBiKjYlBG/6Gv+dAIAAAQL7FJjp7NJc3qeSHQgQqJ2ARkHtSiohAgT2JbD7L0NFnL+v/WwnQIAAgcYLbFl5SVzVeAUABAg0TkCjoHEllzABAvMC46PxtvTPNTQIECBAgMAdCOzotON1d7DN0wQIEKi1gEZBrcsrOQIE7kigeHdsT+edvv6OtnueAAECBBovcMGqTfGDxisAIECgkQIaBY0su6QJEJgXGLsh3pP++ToNAgQIECCwQOAH41Nx7oLnPCRAgEBjBDQKGlNqiRIgsFBg/g4I6bkXLHzeYwIECBBotkBZxEnudNDs7wHZE2i6gEZB078D5E+g4QITW+NTUcZFDWeQPgECBAj8XOBvV26JD/z8oa8IECDQPAGNgubVXMYECCwQmJmNl6enrl7wtIcECBAg0DyBG6LtSLPmlV3GBAgsFNAoWCjiMQECjRNYe0lcm5I+Ln2WjUtewgQIECDwM4H0IvCCiU1xxc+e8AUBAgQaKqBR0NDCS5sAgdsKpFMQPl5EvPW2z3pEgAABAo0RKOKSlVvjfzcmX4kSIEBgLwIaBXvBsYkAgWYJjLXjVSnjTzcra9kSIECAQBL42ngnXkyCAAECBG4W0CjwnUCAAIGfChSbYmZ2RfxOeuiwU98VBAgQaI7AT4oynl5si5uak7JMCRAgsHcBjYK9+9hKgEDDBNa8J34014pnpLR3Nix16RIgQKCJAnNRxDHj2+I7TUxezgQIELgjAY2CO5LxPAECjRVYvTm+mP66NH9kwUxjESROgACBJgiUsW5iS/xDE1KVIwECBJYioFGwFC37EiDQGIH016W/LYt4Xkq405ikJUqAAIEGCRRFnDyxLS5pUMpSJUCAwKIFNAoWTWVHAgSaJrByS/xlumHiC1LebpvYtOLLlwCBeguU8crxLfGOeicpOwIECCxfIN0NzAcBAgQI7E1gcl0cm85h/V9pn/be9rONAAECBPIXSEeLvSw1gt+ef6QiJECAwPAENAqGZ29lAgQqJDC1Lp6e3ly+P4U8WqGwhUqAAAECPxfozB8llk432Pzzp3xFgAABAnsS0CjYk4rnCBAgsAeBdGTBY9LTH0xHFxy8h82eIkCAAIF8Bba3inju2Jb4cL4hiowAAQL5CGgU5FMLkRAgUAGByfVxj3TBgg+nH54PqUC4QiRAgACBiMtbc/H0sYvjKzAIECBAYHECLma4OCd7ESBAYLfAxNb43sSu+JV0+OpfICFAgACB7AX+bqYdv6hJkH2dBEiAQGYCjijIrCDCIUCgOgKTG+K5qWHwJyni1dWJWqQECBBohMCudPTXK1Nz9+3pza471zSi5JIkQKCXAhoFvdQ0FwECjROYOjHuU87FRSnxxzYueQkTIEAgT4GvdiKOW7U1vpBneKIiQIBA/gIaBfnXSIQECGQukP5UVUytj/XpB+q56esDMg9XeAQIEKinQBGTKbFzxlvpKIJNMVPPJGVFgACBwQhoFAzG2SoECDRA4Kbnx0EjrTg3pfoH6dPP1wbUXIoECOQhUJbxN0UnXjJxcVyeR0SiIECAQLUFvJGtdv1ET4BAhgI718ej0g/XC1Jov5xheEIiQIBAnQS+XrTi1PHN8bE6JSUXAgQIDFtAo2DYFbA+AQK1FNh9OsK6eE46rmD+CIO71TJJSREgQGBIAukN7PXp5+trxg6NdxcbY3ZIYViWAAECtRXQKKhtaSVGgEAOAuXzYtXUaJyRYnlZ+hzPISYxECBAoMICcyn2TTMzcfbaS+LaCuchdAIECGQtoFGQdXkER4BAXQQmj497psNj31oW8Tt1yUkeBAgQGKhAGf/Q6sQpYxfHVwa6rsUIECDQQAGNggYWXcoECAxPYPL58fiyFRemH74PGV4UViZAgEClBL6bbnd4Wrrd4V9VKmrBEiBAoMICrQrHLnQCBAhUTmDiovjkxGHx8NQoeEEK/prKJSBgAgQIDE5ge1rqrPGV8QBNgsGhW4kAAQLzAo4o8H1AgACBIQlcd3zsP9GOV6cLH74khTAypDAsS4AAgdwE0o/FuKTTjjNXbYof5BaceAgQINAEAY2CJlRZjgQIZC0wtS5+IV27YP52ir+RdaCCI0CAQP8FPpu6BKes3Br/0v+lrECAAAECdySgUXBHMp4nQIDAgAVSw+ApP20YHDHgpS1HgACB4QoUcVV04vTxbfHn6c3p/BEFPggQIEBgiAIaBUPEtzQBAgQWCpQnxorJuXhx+uH8mrRtv4XbPSZAgEDNBKZSW+Ct4zPxluLS2FGz3KRDgACBygpoFFS2dAInQKDOAje9IA4e2RWvS1eS2ZDydOHZOhdbbgSaKlDE+2I2Tp+4OC5vKoG8CRAgkKuARkGulREXAQIEksD2E+Kh7U5cmL58HBACBAjUQSC9+fxiOrfg5Imt8ak65CMHAgQI1FFAo6COVZUTAQK1E9i5Po5JP7DfmhK7R+2SkxABAk0RuCadZvDK8cNja7ExXZHABwECBAhkK6BRkG1pBEaAAIHbCpTHxMTU2nhpevbM9Lnytls9IkCAQLYCM0UZ7xgbidcVm+KGbKMUGAECBAj8TECj4GcUviBAgEA1BHYeF3cvVsS5KdrnVCNiURIg0GCBjxatOHV8c3yrwQZSJ0CAQOUENAoqVzIBEyBA4GaBnevil9MP8QvTBQ9/kQkBAgSyEijjG0WRGgRb47Ks4hIMAQIECCxKwJW0F8VkJwIECOQnsHJbfDad63t0Ouf3+Sm6H+YXoYgIEGiaQGpeXl+WqUFweBylSdC06suXAIE6CTiioE7VlAsBAo0VKNfFmqmIs9LRBaclhNHGQkicAIFhCcylnz+bZ1px9tpN8eNhBWFdAgQIEOiNgEZBbxzNQoAAgSwEptbFvTtFnJd+uD8ji4AEQYBAEwT+sVXEKWNb4stNSFaOBAgQaIKARkETqixHAgQaJzC5Pp6Ykr4gfR7ZuOQlTIDAoAS+WxbxspVb4kODWtA6BAgQIDAYAdcoGIyzVQgQIDBQgYmt8fHxw+Jh6WJiL04L/2Sgi1uMAIG6C2xPCZ41PhcP1CSoe6nlR4BAUwUcUdDUysubAIHGCNywPg5cUcTGdB/zF6Wk241JXKIECPRD4H91yjhr1ba4uh+Tm5MAAQIE8hDQKMijDqIgQIBA3wWmT4gHdTpxflro1/u+mAUIEKibwOfKiJNXbo1/qVti8iFAgACB2wtoFNzexDMECBCotUC64OHT03nF56Uk71PrRCVHgEAvBK5OdzM4fXxLvDe9aUy9Ah8ECBAg0AQBjYImVFmOBAgQWCBQHhOjk2vj1PQi8Mq0ac2CzR4SIEAg3XE13j6+K95UXBo7cBAgQIBAswQ0CppVb9kSIEDgNgLbN8Qh7U68Kf3F8Pi0wWvCbXQ8INBMgXQ9kw+UnXj5xMVxeTMFZE2AAAEC3hT6HiBAgACB2LEhHtHqxDtSq+DROAgQaKZAOq/gS0UnTp64KD7ZTAFZEyBAgMAtAhoFt0j4lwABAg0XSL8kFJMb4tnpr4nnJopDG84hfQJNErgmvSE8e+yw2FxsjE6TEpcrAQIECOxZQKNgzy6eJUCAQGMFyhNj5dRcnJ4AXpE+xxsLIXEC9ReYSW8E3znWjtcWm+KG+qcrQwIECBBYrIBGwWKl7EeAAIGGCUyeGIenvy2+NV3n/Hcblrp0CTRB4KPp6KHTxrfFN5uQrBwJECBAYGkCGgVL87I3AQIEGieQTkd4bPqF4sJ0asLDGpe8hAnUTaCMb6Q3f/MNgr+tW2ryIUCAAIHeCbR6N5WZCBAgQKCOAhNb4tPp3OVHpiMLTkyfP6pjjnIiUHeB1By4vizj1PGReLAmQd2rLT8CBAh0L+CIgu4NzUCAAIHGCKTrF+w3PRtnl0WclJJe0ZjEJUqgugLzFyfcPNuJs9dcFNdUNw2REyBAgMAgBTQKBqltLQIECNREYOqEOCLdZ/28lM5v1SQlaRCon0ARn0yHjp40tiW+XL/kZESAAAEC/RTQKOinrrkJECBQc4HUMHhyORcXRBH3r3mq0iNQJYHL02kGL1u5LT5YpaDFSoAAAQL5CLhGQT61EAkBAgQqJzC+OT42fngcNX/u8/w50JVLQMAE6iWwI11H5JXjc/EATYJ6FVY2BAgQGLSAIwoGLW49AgQI1FTgxhPjzis68brdFz2M0IiuaZ2lla3ApZ0yzli1La7ONkKBESBAgEBlBDQKKlMqgRIgQKAaAtMb4sHpF5YLU7S/Wo2IRUmg0gKfT9cLOXnlRfH5SmcheAIECBDISkCjIKtyCIYAAQL1Edi5IZ5ZlPH2lNE965OVTAhkIzB/5MAZ41vjz9KbuTKbqARCgAABArUQ0CioRRklQYAAgTwFyuNjfKoVp6WLHZ6VIlyVZ5SiIlApgan0/+m88el4Y3Fp7KhU5IIlQIAAgcoIaBRUplQCJUCAQHUFdqyLu7WKeHPK4HnVzULkBIYrkI7Q+UDZildMbInvDjcSqxMgQIBA3QU0CupeYfkRIEAgI4F0OsLR6ZedC1JIv5RRWEIhkLVAOq/gy0URJ6cGwSeyDlRwBAgQIFAbAY2C2pRSIgQIEKiGQPqlp5hal44sKOJNKeK7VSNqURIYisCP0xu1V43dGFuK98fcUCKwKAECBAg0UkCjoJFllzQBAgSGL1C+KFZPTe++dsFpKZqx4UckAgLZCMymIwjeOTkbrz3g4rg+m6gEQoAAAQKNEdAoaEypJUqAAIE8BSY3xL3S6QhvS0caPDPPCEVFYKACl6X/D6eMb4tvDnRVixEgQIAAgVsJaBTcCsOXBAgQIDA8gcl18YRoxYXpRm9HDS8KKxMYmsC3ftog+NuhRWBhAgQIECDwUwGNAt8KBAgQIJCNQHlMtKf3ixPLMs5JQd05m8AEQqB/Ajeko2leO9GOdxabYqZ/y5iZAAECBAgsXkCjYPFW9iRAgACBAQlc/8I4YHRXvCa9SL04Ldke0LKWITBIgU46embLbBmvWnNRXDPIha1FgAABAgT2JaBRsC8h2wkQIEBgaALTG+IBnU6cn+6Q8OShBWFhAr0WKOKT7U6cPLotvtTrqc1HgAABAgR6IaBR0AtFcxAgQIBAXwWmToinlp04Ly1yv74uZHIC/RW4vCzi5Su3xAf6u4zZCRAgQIBAdwIaBd35GU2AAAECAxJI1y8YnVwbJ6UXrrPTkmsHtKxlCPRCYGc6KuaN4zfEecX7Y7IXE5qDAAECBAj0U0CjoJ+65iZAgACBngvc9II4eGQm3pAmXp8+vY71XNiEPRb4s3Imzlh5SVzV43lNR4AAAQIE+ibgDVbfaE1MgAABAv0U2PH8eHirFRekNR7bz3XMTWCZAv+STjM4OZ1m8LlljjeMAAECBAgMTUCjYGj0FiZAgACBbgXSbeWKyQ3xu+n+829Ncx3W7XzGE+iBwA/S3QzOGN8Wl6Y3Welb1AcBAgQIEKiegEZB9WomYgIECBBYIJCuXzAxtSZeEa04Pf1qNrFgs4cEBiEwnRY5b3ws3li8O7YPYkFrECBAgACBfgloFPRL1rwECBAgMHCBnRvi0J8eXfDsgS9uwcYKpDdTH0qnGbxsYkt8t7EIEidAgACBWgloFNSqnJIhQIAAgXmBnevjV1oRF6bjvh9BhEDfBIr4Spr7pNQg+ETf1jAxAQIECBAYgkB6H+WDAAECBAjUS2Dl1vinscPiUSmr9elUhB/VKzvZZCDw43TkygvT7Q4fpkmQQTWEQIAAAQI9F3BEQc9JTUiAAAECOQmUx8ba6fF4ZTq64NQU14qcYhNL5QRm0/fRu6bnYuMBF8f1lYtewAQIECBAYJECGgWLhLIbAQIECFRbYGp93LcT8fb0wvf0amci+iEJXNYq4rSxLfH1Ia1vWQIECBAgMDABjYKBUVuIAAECBHIQmFoXT0oXnjs/xfLAHOIRQ/YC30pvlk4b3xofyT5SARIgQIAAgR4JuEZBjyBNQ4AAAQLVEEj3t/+78cPiIekc85PSL4DXVSNqUQ5B4MayjJeO3xhHaRIMQd+SBAgQIDBUAUcUDJXf4gQIECAwTIEbj4s7jayIc9KL4R+mONrDjMXa2QiU6QKYm2dH4+w173EhzGyqIhACBAgQGKiARsFAuS1GgAABAjkKTB8fR3Xau09HeGKO8YlpYAKfmmvF/2vv/kLkOqsAgJ87m+zubJsYEAq1GquIfzCgVCwWJL5WUFCwLxGXNGtDKa1NsKXaQsQIKTZoDBWUJptqoAXJQx9aH3wptBWVFrFQS4WWYouloVKKSbuzu7pzPQtpH0KWzu7eOzN35rcwZHPnu+d85/cF7uRw57u3X34inu1bRokIECBAgMAQCmgUDOGimBIBAgQIDEbgnbn4Rn4n7+eZ/WODmYGsAxJ4JZ9mcGc+VvPMgPJLS4AAAQIEhkpAo2ColsNkCBAgQGDQAuVtMbXYyUcplnFPzuXyQc9H/loFFjL6vbkPwc+KM9GpNZPgBAgQIECgQQIaBQ1aLFMlQIAAgf4JvLM/rmytxL2ZcTZfrpf9o+9PpiIeKpfjrpnT8Vp/EspCgAABAgSaI+CDT3PWykwJECBAYAACC3NxbV4sf5GprxtAeimrFijjmbIV35s5GX+pOrR4BAgQIEBgVAQ0CkZlJdVBgAABArUJ5PfXi8V9sSfvK7gvk3yotkQC1ynwen6d5O58POZv88NPLqkfAgQIECBAYC0BjYK1ZBwnQIAAAQIXCZTficsWJ+MHefiOfE1f9La/DqfAUrYFjuViHSlOxfnhnKJZESBAgACB4RLQKBiu9TAbAgQIEGiAQGdvXF204mhZxLcaMN2xnWJRxCPRjTvyLoKXxxZB4QQIECBAYAMCGgUbQHMKAQIECBBYFejcGF/J77sfz4vp54gMkUARz+VsDrRPxuNDNCtTIUCAAAECjRHIx0X7IUCAAAECBDYi0H4wnmh/JK7JRsHNef6/NxLDOZUKvJl3Edwy/eG4RpOgUlfBCBAgQGDMBNxRMGYLrlwCBAgQqEfgrb2xoz0Rh3KXvNsyw5Z6soi6hsBKuv9yeTJ+vONX8dYaYxwmQIAAAQIEehTQKOgRyjACBAgQINCLQD4d4VO5d8Hq4xSv72W8MZsUKOMPrVYcnDoZL2wyktMJECBAgACBCwIaBf4pECBAgACBGgSyYfDVCw2DT9YQXsiIF/NDzMHp+fg9DAIECBAgQKBaAY2Caj1FI0CAAAEC7wmU+2NrZyVuzYvtj/LgB957wy+bETiXDZjD7f/E/cWZWN5MIOcSIECAAAEClxbQKLi0i6MECBAgQKAygfM3xxVbluMnUcR3M6iNhDcmm9sQxPz/tsY9234db2wshLMIECBAgACBXgQ0CnpRMoYAAQIECFQg8PZN8fmJbhzPULsrCDdOIZ7qRtx+2Xz8bZyKVisBAgQIEBiUgEbBoOTlJUCAAIGxFViYixvyAnw0AT46tgi9Ff5Kfs3grpmT8bvehhtFgAABAgQIVCGgUVCFohgECBAgQGCdAuUN0V7cHt/P036Yr5l1nj7qwxeywJ9On4ujuQ9BZ9SLVR8BAgQIEBg2AY2CYVsR8yFAgACBsRJYmI2riq1xXxa9Z6wKX7vYhy/cRfCvtYd4hwABAgQIEKhTQKOgTl2xCRAgQIBAjwIL++K6vCgfzw0Pv9jjKaM1rIxnyok4MHMi/jRahamGAAECBAg0T8DOy81bMzMmQIAAgREUmDkVf57eGV+KMm7M8s6OYIlrlXR2tebV2jUJ1iJynAABAgQI9FfAHQX99ZaNAAECBAi8r0C5L7YtRtyddxcczMFT73tCMwcsZYPg2HTEkeJUnG9mCWZNgAABAgRGU0CjYDTXVVUECBAgMAICnf2xM1bicJYym69RuWaXWcvpmIhD7Qfi1RFYJiUQIECAAIGRExiVDx0jtzAKIkCAAAEC7wos3RSfLbtxOP+H/c081tRrd+5RGI8UrTg0dSKef7c2fxIgQIAAAQLDJ9DUDxvDJ2lGBAgQIECgZoHFufhEN+JgUeQ+BmW0a05XTfgiOmUZD+amSMem5+OlaoKKQoAAAQIECNQpoFFQp67YBAgQIECgBoFzs/HBycn4djYLZvMugy/UkGLTIfMDxl/z3ofTy8vx0PbT8eamAwpAgAABAgQI9E1Ao6Bv1BIRIECAAIHqBZbmYlfeZbAnI389X7uqz7CuiH/P0Y/m3QMPT83H6u9+CBAgQIAAgQYKaBQ0cNFMmQABAgQIXEqgszeuLibia/ne7rzT4Mv555WXGlfhsdfzg8QfM96T5Uo81v5N/LPC2EIRIECAAAECAxLQKBgQvLQECBAgQKBugcV98fFuEdfmngafLrq5IWIRn8mcO/O1bZ25Vx9f+GpRxgtlK57PPQf+0Srj6elT8fI64xhOgAABAgQINEBAo6ABi2SKBAgQIECgSoFyf8wsLcdV3Ym4IpsIW7OJsH2liPzGQMREGd1sBpzLZsB/WyvxxtRkvFY8EAtV5heLAAECBAgQIECAAAECBAgQIECAAAECBAgQIECAAAECBAgQIECAAAECBAgQIECAAAECBAgQIECAAAECBAgQIECAAAECBAgQIECAAAECBAgQIECAAAECBAgQIECAAAECBAgQIECAAAECBAgQIECAAAECBAgQIECAAAECBAgQIECAAAECBAgQIECAAAECBAgQIECAAAECBAgQIECAAAECBAgQIECAAAECBAgQIECAAAECBAgQIECAAAECBAgQIECAAAECBAgQIECAAAECBAgQIECAAAECBAgQIECAAAECBAgQIECAAAECBAgQIECAAAECBAgQIECAAAECBAgQIECAAAECBAgQIECAAAECBAgQIECAAAECBAgQIECAAAECBAgQIECAAAECBAgQIECAAAECBAgQIECAAAECBAgQIECAAAECBAgQIECAAAECBAgQIECAAAECBAgQIECAAAECBAgQIECAAAECBAgQIECAAAECBAgQIECAAAECBAgQIECAAAECBAgQIECAAAECBAgQIECAAAECBAgQIECAAAECBAgQIECAAAECBAgQIECAAAECBAgQIECAAAECBAgQIECAAAECBAgQIECAAAECBAgQIECAAAECBAgQIECAAAECBAgQIECAAAECBAgQIECAAAECBAgQIECAAAECBAgQIECAAAECBAgQIECAAAECBAgQIECAAAECBAgQIECAAAECBAgQIECAAAECBAgQIECAAAECBAgQIECAAAECBAgQIECAAAECBAgQIECAAAECBAgQIECAAAECBAgQIECAAAECBAgQIECAAAECBAgQIECAAAECBAgQIECAAAECBAgQIECAAAECBAgQIECAAAECBAgQIECAAAECBAgQIECAAAECBAgQIECAAAECBAgQIECAAAECBAgQIECAAAECBAgQIECAAAECBAgQIECAAAECBAgQIECAAAECBAgQIECAAAECBAgQIECAAAECBAgQIECAAAECBAgQIECAAAECBAgQIECAAAECBAgQIECAAAECBAgQIECAAAECBAgQIECAAAECBAgQIECAAAECBAgQIECAAAECBAgQIECAAAECBAgQIECAAAECBAgQIECAAAECBAgQIECAAAECBAgQIECAAAECBAgQIECAAAECBAgQIECAAAECBAgQIECAAAECBAgQIECAAAECBAgQIECAAAECBAgQIECAAAECBAgQIECAAAECBAgQIECAAAECBAgQIECAAAECBAgQIECAAAECBAgQIECAAAECBAgQIECAAAECBAgQIECAAAECBAgQIECAAAECBAgQIECAAAECBAgQIECAAAECBAgQIECAAAECBAgQIECAAAECBAgQIECAAAECBAgQIECAAAECBAgQIECAAAECBAgQIECAAAECBAgQIECAAAECBAgQIECAAAECBAgQIECAAAECBAgQIECAAAECBAgQIECAAAECBAgQIECAAAECBAgQIECAAAECBAgQIECAAAECBAgQIECAAAECBAgQIECAAAECBAgQIECAAAECBAgQIECAAAECBAgQIECAAAECBAgQIECAAAECBAgQIECAAAECBAgQIECAAAECBAgQIECAAAECBAgQIECAAAECBAgQIECAAAECBAgQIECAAAECBAgQIECAAAECBAgQIECAAAECBAgQIECAAAECBAgQIECAAAECBAgQIECAAAECBAgQIECAAAECBAgQIECAAAECBAgQIECAAAECBAgQIECAAAECBAgQIECAAAECBAgQIECAAAECBAgQIECAAAECBAgQIECAAAECBAgQIECAAAECBAgQIECAAAECBAgQIECAAAECBAgQIECAAAECBAgQIECAAAECBAgQIECAAAECBAgQIECAAAECBAgQIECAAAECBAgQIECAAAECBAgQIECAAAECBAgQIECAAAECBAgQIECAAAECBAgQIECAAAECBAgQIECAAAECBAgQIECAAAECBAgQIECAAAECBAgQIECAAAECBAgQIECAAAECBAgQIECAAAECBAgQIECAAAECBAgQIECAAAECBAgQIECAAAECBAgQIECAAAECBAgQIECAAAECBAgQIECAAAECBAgQIECAAAECBAgQIECAAAECBAgQIECAAAECBAgQIECAAAECBAgQIECAAAECBAgQIECAAAECBAgQIECAAAECBAgQIECAAAECBAgQIECAAAECBAgQIECAAAECBAgQIECAAAECBAgQIECAAAECBAgQIECAAAECBAgQIECAAAECBAgQIECAAAECBAgQIECAAAECBAgQIECAAAECBAgQIECAAAECBAgQIECAAAECBAgQIECAAAECBAgQIECAAAECBAgQIECAAAECBAgQIECAAAECBAgQIECAAAECBAgQIECAAAECBAgQIECAAAECBAgQIECAAAECBAgQIECAAAECBAgQIECAAAECBAgQIECAAAECBAgQIECAAAECBAgQIECAAAECBAgQIECAAAECBAgQIECAAAECBAgQIECAAAECBAgQIECAAAECBAgQIECAAAECBAgQIECAAAECBAgQIECAAAECBAgQIECAAAECBAgQIECAAAECBAgQIECAAAECBAgQIECAAAECBAgQIECAAAECBAgQIECAAAECBAgQIECAAAECBAgQIECAAAECBAgQIECAAAECBAgQIECAAAECBAgQIECAAAECBAgQIECAAAECBAgQIECAAAECBAgQIECAAAECBAgQIECAAAECBAgQIECAAAECBAgQIECAAAECBAgQIECAAAECBAgQIECAAAECBAgQIECAAAECBAgQIECAAAECBAgQIECAAAECBAgQIECAAAECBAgQIECAAAECBAgQIECAAAECBAgQIECAAAECBAgQIECAAAECBAgQIECAAAECBAgQIECAAAECBAgQIECAAAECBAgQIECAAAECBAgQIECAAAECBAgQIECAAAECBAgQIECAAAECBAgQIECAAAECBAgQIECAAAECBAgQIECAAAECBAgQIECAAAECBAgQIECAAAECBAgQIECAAAECBAgQIECAAAECBAgQIECAAAECBAgQIECAAAECBAgQIECAAAECBAgQIECAAAECBAgQIECAAAECBAgQIECAAAECBAgQIECAAAECBAgQIECAAAECBAgQIECAAAECBAgQIECAAAECBAgQIECAAAECBAgQIECAAAECBAgQIECAAAECBAgQIECAAAECBAgQIECAAAECBAgQIECAAAECBAgQIECAAAECBAgQIECAAAECBAgQIECAAAECBAgQIECAAAECBAgQIECAAAECBAgQIECAAAECBAgQIECAAAECBAgQIECAAAECBAgQIECAAAECBAgQIECAAAECBAgQIECAAAECBAgQIECAAAECBAgQIECAAAECBAgQIECAAAECBAgQIECAAAECBAgQIECAAAECBAgQIECAAAECBAgQIECAAAECBAgQIECAAAECBAgQIECAAAECBAgQIECAAAECBAgQIECAAAECBAgQIECAAAECBAgQIECAAAECBAgQIECAAAECBAgQIECAAAECBAgQIECAAAECBAgQIECAAAECBAgQIECAAAECBAgQIECAAAECBAgQIECAAAECBAgQIECAAAECBAgQIECAAAECBAgQIECAAAECBAgQIECAAAECBAgQIECAAAECBAgQIECAAAECBAgQIECAAAECBAgQIECAAAECBAgQIECAAAECBAgQIECAAAECBAgQIECAAAECBAgQIECAAAECBAgQIECAAAECBAgQIECAAAECBAgQIECAAAECBAgQIECAAAECBAgQIECAAAECBAgQIECAAAECBAgQIECAAAECBAgQIECAAAECBAgQIECAAAECBAgQIECAAAECBAgQIECAAAECBAgQIECAAAECBAgQIECAAAECBAgQIECAAAECBCoV+D9yRZO4oAhPgwAAAABJRU5ErkJggg==;" vertex="1" parent="1">
          <mxGeometry x="1082.8" y="1325.6" width="70" height="52.8" as="geometry" />
        </mxCell>
        <mxCell id="LlsY5RYBl1xxhd0hf_0L-134" value="Ouve evento" style="text;html=1;align=center;verticalAlign=middle;resizable=0;points=[];autosize=1;strokeColor=none;fillColor=none;" vertex="1" parent="1">
          <mxGeometry x="1157.8" y="1328" width="90" height="30" as="geometry" />
        </mxCell>
        <mxCell id="LlsY5RYBl1xxhd0hf_0L-135" value="Envia email&amp;nbsp;&lt;div&gt;Com parabÃ©ns, top&lt;/div&gt;" style="rounded=0;whiteSpace=wrap;html=1;" vertex="1" parent="1">
          <mxGeometry x="1342.8" y="1323" width="120" height="60" as="geometry" />
        </mxCell>
        <mxCell id="LlsY5RYBl1xxhd0hf_0L-136" value="" style="edgeStyle=orthogonalEdgeStyle;rounded=0;orthogonalLoop=1;jettySize=auto;html=1;" edge="1" parent="1" source="LlsY5RYBl1xxhd0hf_0L-137" target="LlsY5RYBl1xxhd0hf_0L-147">
          <mxGeometry relative="1" as="geometry" />
        </mxCell>
        <mxCell id="LlsY5RYBl1xxhd0hf_0L-137" value="Obter metas&amp;nbsp;" style="rounded=0;whiteSpace=wrap;html=1;fillColor=#6d8764;fontColor=#ffffff;strokeColor=#3A5431;" vertex="1" parent="1">
          <mxGeometry x="457.2" y="1000" width="120" height="60" as="geometry" />
        </mxCell>
        <mxCell id="LlsY5RYBl1xxhd0hf_0L-138" value="" style="edgeStyle=orthogonalEdgeStyle;rounded=0;orthogonalLoop=1;jettySize=auto;html=1;" edge="1" parent="1" source="LlsY5RYBl1xxhd0hf_0L-139" target="LlsY5RYBl1xxhd0hf_0L-141">
          <mxGeometry relative="1" as="geometry" />
        </mxCell>
        <mxCell id="LlsY5RYBl1xxhd0hf_0L-139" value="Consulta&amp;nbsp;" style="whiteSpace=wrap;html=1;rounded=0;" vertex="1" parent="1">
          <mxGeometry x="822.8" y="1027.1" width="120" height="60" as="geometry" />
        </mxCell>
        <mxCell id="LlsY5RYBl1xxhd0hf_0L-140" value="" style="outlineConnect=0;dashed=0;verticalLabelPosition=bottom;verticalAlign=top;align=center;html=1;shape=mxgraph.aws3.mysql_db_instance_2;fillColor=#2E73B8;gradientColor=none;" vertex="1" parent="1">
          <mxGeometry x="905.5999999999999" y="1059.1" width="50" height="50" as="geometry" />
        </mxCell>
        <mxCell id="LlsY5RYBl1xxhd0hf_0L-141" value="Cria Cache" style="whiteSpace=wrap;html=1;rounded=0;" vertex="1" parent="1">
          <mxGeometry x="1022.8" y="1027.1" width="120" height="60" as="geometry" />
        </mxCell>
        <mxCell id="LlsY5RYBl1xxhd0hf_0L-142" value="" style="image;sketch=0;aspect=fixed;html=1;points=[];align=center;fontSize=12;image=img/lib/mscae/Cache_Redis_Product.svg;" vertex="1" parent="1">
          <mxGeometry x="1102.8" y="1067.1" width="50" height="42" as="geometry" />
        </mxCell>
        <mxCell id="LlsY5RYBl1xxhd0hf_0L-143" value="" style="edgeStyle=orthogonalEdgeStyle;rounded=0;orthogonalLoop=1;jettySize=auto;html=1;" edge="1" parent="1" source="LlsY5RYBl1xxhd0hf_0L-147" target="LlsY5RYBl1xxhd0hf_0L-148">
          <mxGeometry relative="1" as="geometry">
            <Array as="points">
              <mxPoint x="690" y="920" />
            </Array>
          </mxGeometry>
        </mxCell>
        <mxCell id="LlsY5RYBl1xxhd0hf_0L-144" value="Se sim" style="edgeLabel;html=1;align=center;verticalAlign=middle;resizable=0;points=[];" vertex="1" connectable="0" parent="LlsY5RYBl1xxhd0hf_0L-143">
          <mxGeometry x="0.0914" y="3" relative="1" as="geometry">
            <mxPoint as="offset" />
          </mxGeometry>
        </mxCell>
        <mxCell id="LlsY5RYBl1xxhd0hf_0L-145" style="edgeStyle=orthogonalEdgeStyle;rounded=0;orthogonalLoop=1;jettySize=auto;html=1;exitX=1;exitY=1;exitDx=0;exitDy=0;entryX=0;entryY=0.5;entryDx=0;entryDy=0;" edge="1" parent="1" source="LlsY5RYBl1xxhd0hf_0L-147" target="LlsY5RYBl1xxhd0hf_0L-139">
          <mxGeometry relative="1" as="geometry" />
        </mxCell>
        <mxCell id="LlsY5RYBl1xxhd0hf_0L-146" value="Se nÃ£o" style="edgeLabel;html=1;align=center;verticalAlign=middle;resizable=0;points=[];" vertex="1" connectable="0" parent="LlsY5RYBl1xxhd0hf_0L-145">
          <mxGeometry x="-0.3784" y="-6" relative="1" as="geometry">
            <mxPoint as="offset" />
          </mxGeometry>
        </mxCell>
        <mxCell id="LlsY5RYBl1xxhd0hf_0L-147" value="Possui metas no redis" style="rhombus;whiteSpace=wrap;html=1;rounded=0;" vertex="1" parent="1">
          <mxGeometry x="640" y="981" width="90" height="100" as="geometry" />
        </mxCell>
        <mxCell id="LlsY5RYBl1xxhd0hf_0L-148" value="Consulta&amp;nbsp;" style="whiteSpace=wrap;html=1;rounded=0;" vertex="1" parent="1">
          <mxGeometry x="790" y="890" width="120" height="60" as="geometry" />
        </mxCell>
        <mxCell id="LlsY5RYBl1xxhd0hf_0L-149" value="" style="image;sketch=0;aspect=fixed;html=1;points=[];align=center;fontSize=12;image=img/lib/mscae/Cache_Redis_Product.svg;" vertex="1" parent="1">
          <mxGeometry x="879.8" y="917" width="50" height="42" as="geometry" />
        </mxCell>
        <mxCell id="LlsY5RYBl1xxhd0hf_0L-150" style="edgeStyle=orthogonalEdgeStyle;rounded=0;orthogonalLoop=1;jettySize=auto;html=1;" edge="1" parent="1" source="LlsY5RYBl1xxhd0hf_0L-151" target="LlsY5RYBl1xxhd0hf_0L-114">
          <mxGeometry relative="1" as="geometry" />
        </mxCell>
        <mxCell id="LlsY5RYBl1xxhd0hf_0L-151" value="Login/cadastro" style="whiteSpace=wrap;html=1;verticalAlign=middle;labelBackgroundColor=none;labelBorderColor=none;align=center;fillColor=#6d8764;strokeColor=#3A5431;fontColor=#ffffff;" vertex="1" parent="1">
          <mxGeometry x="295" y="1110" width="120" height="60" as="geometry" />
        </mxCell>
      </root>
    </mxGraphModel>
  </diagram>
</mxfile>
